<svg xmlns="http://www.w3.org/2000/svg" fill="none" viewBox="54.72 52.65 257.43 272.06">
<path d="M63.4606 109.37L63.3411 251.663L186.63 322.706L310.039 251.456L310.158 109.163" stroke="#EE7D0C" stroke-width="4"/>
<path d="M59.7258 111.401C62.5956 109.744 66.2651 110.728 67.922 113.597C69.5788 116.467 68.5956 120.137 65.7258 121.794C62.856 123.45 59.1865 122.467 57.5297 119.597C55.8728 116.728 56.856 113.058 59.7258 111.401Z" fill="#EE7D0C" stroke="#EE7D0C" stroke-width="4"/>
<path d="M292.21 242.223L292.421 117.052L183.914 54.6489" stroke="#EE7D0C" stroke-width="4"/>
<path d="M293.836 240.66C292.349 241.519 290.447 241.009 289.588 239.521C288.728 238.033 289.238 236.131 290.725 235.273C292.212 234.414 294.114 234.924 294.973 236.412C295.832 237.9 295.322 239.802 293.836 240.66Z" fill="#EE7D0C" stroke="#EE7D0C" stroke-width="4"/>
<path d="M109.41 188.018C105.5 188.018 102.65 189.308 102.65 192.918C102.65 196.718 105.5 197.688 109.57 197.688C111.48 197.667 113.37 197.378 115.2 196.838V188.018H109.41ZM118.84 181.088V197.557C118.87 198.527 118.26 199.408 117.35 199.718C114.86 200.538 112.25 200.958 109.63 200.938C103.23 200.997 99 198.698 99 192.788C99 186.878 103.9 184.638 109.51 184.638H115.2V181.088C115.2 178.358 113.11 176.478 109.51 176.478C107.65 176.448 105.81 176.868 104.15 177.698C103.6 178.038 102.97 178.238 102.33 178.288C101.4 178.278 100.65 177.508 100.67 176.578C100.67 175.978 101 175.428 101.52 175.138C103.91 173.798 106.61 173.098 109.35 173.098C114.61 173.118 118.84 175.748 118.84 181.108" fill="#34343A"/>
<path d="M127.59 164.148V199.178C127.64 200.128 126.9 200.948 125.94 200.998H125.77C124.8 201.038 123.98 200.278 123.95 199.298V164.148C123.91 163.178 124.67 162.358 125.65 162.328H125.77C126.72 162.278 127.54 163.018 127.59 163.978V164.148Z" fill="#34343A"/>
<path d="M142.72 188.018C138.81 188.018 135.97 189.308 135.97 192.918C135.97 196.718 138.8 197.688 142.88 197.688C144.79 197.667 146.69 197.378 148.52 196.838V188.018H142.72ZM152.17 181.088V197.557C152.18 198.537 151.55 199.418 150.62 199.718C148.13 200.538 145.51 200.958 142.89 200.938C136.56 200.938 132.32 198.638 132.32 192.728C132.32 186.818 137.22 184.578 142.84 184.578H148.53V181.028C148.53 178.298 146.44 176.408 142.84 176.408C140.98 176.378 139.14 176.798 137.47 177.628C136.94 177.978 136.34 178.218 135.71 178.288C134.78 178.268 134.04 177.497 134.06 176.557C134.07 175.967 134.4 175.418 134.91 175.128C137.3 173.788 140 173.088 142.74 173.088C147.94 173.098 152.17 175.728 152.17 181.088Z" fill="#34343A"/>
<path d="M190.75 182.487V199.117C190.75 200.127 189.93 200.957 188.91 200.957C187.89 200.957 187.07 200.137 187.07 199.117V182.377C187.32 179.367 185.08 176.727 182.07 176.477C181.82 176.457 181.58 176.457 181.33 176.477C179.31 176.497 177.35 177.227 175.8 178.517V199.127C175.8 200.137 174.98 200.967 173.96 200.967C172.94 200.967 172.12 200.147 172.12 199.127V180.147C172.06 178.877 171.3 177.727 170.14 177.197C169.16 176.677 168.06 176.427 166.95 176.477C164.88 176.517 162.82 176.847 160.83 177.447V199.137C160.83 200.147 160.01 200.977 158.99 200.977C157.97 200.977 157.15 200.157 157.15 199.137V176.717C157.13 175.637 157.87 174.697 158.92 174.467C161.54 173.617 164.27 173.157 167.02 173.127C169.53 173.007 171.97 173.947 173.77 175.697C175.91 174.087 178.51 173.187 181.18 173.127C186.78 173.127 190.73 176.487 190.73 182.507" fill="#34343A"/>
<path d="M204.55 188.018C200.64 188.018 197.79 189.308 197.79 192.918C197.79 196.718 200.64 197.688 204.71 197.688C206.62 197.667 208.52 197.378 210.35 196.838V188.018H204.55ZM214 181.088V197.557C214.01 198.557 213.36 199.438 212.39 199.718C209.9 200.538 207.29 200.958 204.67 200.938C198.34 200.938 194.11 198.638 194.11 192.728C194.11 186.818 199.01 184.578 204.63 184.578H210.33V181.028C210.33 178.358 208.21 176.468 204.63 176.468C202.79 176.458 200.97 176.868 199.32 177.688C198.77 178.028 198.14 178.228 197.5 178.278C196.57 178.268 195.82 177.498 195.84 176.568C195.84 175.968 196.17 175.418 196.69 175.128C199.09 173.788 201.79 173.088 204.53 173.088C209.72 173.118 214 175.738 214 181.098" fill="#34343A"/>
<path d="M235.55 174.818C236.16 175.108 236.55 175.718 236.56 176.388C236.59 177.268 235.89 178.018 235.01 178.038H234.9C234.24 177.988 233.6 177.788 233.03 177.448C231.52 176.808 229.89 176.488 228.25 176.478C224.5 176.478 222.13 178.928 222.13 182.978V191.148C222.13 195.238 224.49 197.648 228.25 197.648C229.89 197.648 231.52 197.317 233.03 196.677C233.59 196.357 234.21 196.158 234.85 196.088C235.77 196.058 236.54 196.778 236.56 197.698V197.798C236.53 198.458 236.14 199.058 235.55 199.348C233.34 200.518 230.86 201.098 228.35 201.008C222.3 201.008 218.43 197.198 218.43 191.138V182.968C218.43 176.788 222.46 173.098 228.35 173.098C230.85 173.098 233.32 173.677 235.55 174.807" fill="#34343A"/>
<path d="M264.15 161.798L250.27 150.138L267.34 143.927L264.16 161.798H264.15ZM260.33 183.658L246.41 171.978L263.54 165.768L260.33 183.658ZM246.5 151.508L243.36 169.408L229.45 157.728L246.5 151.508ZM248.78 151.908L262.7 163.588L245.57 169.798L248.77 151.908H248.78ZM269.57 141.268C269.25 140.998 268.82 140.928 268.44 141.078L247.64 148.668L226.84 156.258C226.45 156.398 226.17 156.738 226.09 157.138C226.03 157.548 226.18 157.958 226.5 158.228L243.36 172.487L260.35 186.737C260.67 187.007 261.1 187.077 261.49 186.938C261.88 186.798 262.15 186.457 262.22 186.057L266.11 164.268L269.97 142.427C270.05 141.997 269.9 141.558 269.58 141.278" fill="#EE7D0C"/>
</svg>