<svg width="172" height="61" viewBox="0 0 172 61" fill="none" xmlns="http://www.w3.org/2000/svg">
<path d="M10.9143 47.0175C7.00434 47.0175 4.15435 48.3075 4.15435 51.9175C4.15435 55.7175 7.00435 56.6875 11.0743 56.6875C12.9843 56.6675 14.8743 56.3775 16.7043 55.8375V47.0175H10.9143ZM20.3443 40.0875V56.5575C20.3743 57.5275 19.7643 58.4075 18.8543 58.7175C16.3643 59.5375 13.7543 59.9575 11.1343 59.9375C4.73435 59.9975 0.504349 57.6975 0.504349 51.7875C0.504349 45.8775 5.40434 43.6375 11.0143 43.6375H16.7043V40.0875C16.7043 37.3575 14.6143 35.4775 11.0143 35.4775C9.15434 35.4475 7.31435 35.8675 5.65435 36.6975C5.10435 37.0375 4.47435 37.2375 3.83435 37.2875C2.90435 37.2775 2.15435 36.5075 2.17435 35.5775C2.17435 34.9775 2.50435 34.4275 3.02435 34.1375C5.41435 32.7975 8.11435 32.0975 10.8543 32.0975C16.1143 32.1175 20.3443 34.7475 20.3443 40.1075" fill="#34343A"/>
<path d="M29.0941 23.1476V58.1776C29.1441 59.1276 28.4041 59.9476 27.4441 59.9976H27.2741C26.3041 60.0376 25.4841 59.2776 25.4541 58.2976V23.1476C25.4141 22.1776 26.1741 21.3576 27.1541 21.3276H27.2741C28.2241 21.2776 29.0441 22.0176 29.0941 22.9776V23.1476Z" fill="#34343A"/>
<path d="M44.2242 47.0175C40.3142 47.0175 37.4742 48.3075 37.4742 51.9175C37.4742 55.7175 40.3042 56.6875 44.3842 56.6875C46.2942 56.6675 48.1942 56.3775 50.0242 55.8375V47.0175H44.2242ZM53.6742 40.0875V56.5575C53.6842 57.5375 53.0542 58.4175 52.1242 58.7175C49.6342 59.5375 47.0142 59.9575 44.3942 59.9375C38.0642 59.9375 33.8242 57.6375 33.8242 51.7275C33.8242 45.8175 38.7242 43.5775 44.3442 43.5775H50.0342V40.0275C50.0342 37.2975 47.9442 35.4075 44.3442 35.4075C42.4842 35.3775 40.6442 35.7975 38.9742 36.6275C38.4442 36.9775 37.8442 37.2175 37.2142 37.2875C36.2842 37.2675 35.5442 36.4975 35.5642 35.5575C35.5742 34.9675 35.9042 34.4175 36.4142 34.1275C38.8042 32.7875 41.5042 32.0875 44.2442 32.0875C49.4442 32.0975 53.6742 34.7275 53.6742 40.0875Z" fill="#34343A"/>
<path d="M92.2542 41.4874V58.1174C92.2542 59.1274 91.4342 59.9574 90.4142 59.9574C89.3942 59.9574 88.5742 59.1374 88.5742 58.1174V41.3774C88.8242 38.3674 86.5842 35.7275 83.5742 35.4775C83.3242 35.4575 83.0842 35.4575 82.8342 35.4775C80.8142 35.4975 78.8542 36.2274 77.3042 37.5174V58.1274C77.3042 59.1374 76.4842 59.9674 75.4642 59.9674C74.4442 59.9674 73.6242 59.1474 73.6242 58.1274V39.1474C73.5642 37.8774 72.8042 36.7274 71.6442 36.1974C70.6642 35.6774 69.5642 35.4275 68.4542 35.4775C66.3842 35.5175 64.3242 35.8474 62.3342 36.4474V58.1374C62.3342 59.1474 61.5142 59.9775 60.4942 59.9775C59.4742 59.9775 58.6542 59.1574 58.6542 58.1374V35.7174C58.6342 34.6374 59.3742 33.6974 60.4242 33.4674C63.0442 32.6174 65.7742 32.1574 68.5242 32.1274C71.0342 32.0074 73.4742 32.9474 75.2742 34.6974C77.4142 33.0874 80.0142 32.1874 82.6842 32.1274C88.2842 32.1274 92.2342 35.4874 92.2342 41.5074" fill="#34343A"/>
<path d="M106.054 47.0175C102.144 47.0175 99.2942 48.3075 99.2942 51.9175C99.2942 55.7175 102.144 56.6875 106.214 56.6875C108.124 56.6675 110.024 56.3775 111.854 55.8375V47.0175H106.054ZM115.504 40.0875V56.5575C115.514 57.5575 114.864 58.4375 113.894 58.7175C111.404 59.5375 108.794 59.9575 106.174 59.9375C99.8442 59.9375 95.6142 57.6375 95.6142 51.7275C95.6142 45.8175 100.514 43.5775 106.134 43.5775H111.834V40.0275C111.834 37.3575 109.714 35.4675 106.134 35.4675C104.294 35.4575 102.474 35.8675 100.824 36.6875C100.274 37.0275 99.6442 37.2275 99.0042 37.2775C98.0742 37.2675 97.3242 36.4975 97.3442 35.5675C97.3442 34.9675 97.6742 34.4175 98.1942 34.1275C100.594 32.7875 103.294 32.0875 106.034 32.0875C111.224 32.1175 115.504 34.7375 115.504 40.0975" fill="#34343A"/>
<path d="M137.054 33.8175C137.664 34.1075 138.054 34.7175 138.064 35.3875C138.094 36.2675 137.394 37.0175 136.514 37.0375H136.404C135.744 36.9875 135.104 36.7875 134.534 36.4475C133.024 35.8075 131.394 35.4875 129.754 35.4775C126.004 35.4775 123.634 37.9275 123.634 41.9775V50.1475C123.634 54.2375 125.994 56.6475 129.754 56.6475C131.394 56.6475 133.024 56.3175 134.534 55.6775C135.094 55.3575 135.714 55.1575 136.354 55.0875C137.274 55.0575 138.044 55.7775 138.064 56.6975V56.7975C138.034 57.4575 137.644 58.0575 137.054 58.3475C134.844 59.5175 132.364 60.0975 129.854 60.0075C123.804 60.0075 119.934 56.1975 119.934 50.1375V41.9675C119.934 35.7875 123.964 32.0975 129.854 32.0975C132.354 32.0975 134.824 32.6775 137.054 33.8075" fill="#34343A"/>
<path d="M165.654 20.7975L151.774 9.13751L168.844 2.92749L165.664 20.7975H165.654ZM161.834 42.6575L147.914 30.9775L165.044 24.7675L161.834 42.6575ZM148.004 10.5075L144.864 28.4075L130.954 16.7275L148.004 10.5075ZM150.284 10.9075L164.204 22.5875L147.074 28.7975L150.274 10.9075H150.284ZM171.074 0.267518C170.754 -0.0024823 170.324 -0.0724847 169.944 0.0775153L149.144 7.66754L128.344 15.2575C127.954 15.3975 127.674 15.7375 127.594 16.1375C127.534 16.5475 127.684 16.9575 128.004 17.2275L144.864 31.4875L161.854 45.7375C162.174 46.0075 162.604 46.0775 162.994 45.9375C163.384 45.7975 163.654 45.4575 163.724 45.0575L167.614 23.2675L171.474 1.42749C171.554 0.997491 171.404 0.557527 171.084 0.277527" fill="#EE7D0C"/>
</svg>
