<svg width="186" height="79" viewBox="0 0 186 79" fill="none" xmlns="http://www.w3.org/2000/svg">
<path d="M0 45.0055C1.49214 44.7732 3.00221 44.666 4.52116 44.6839C6.65662 44.6839 7.96112 44.8893 9.08693 45.5595C10.2306 46.1313 10.9543 47.3107 10.9543 48.5884C10.9275 50.1342 9.89107 51.4744 8.40786 51.8855V51.9391C10.2038 52.3143 11.4904 53.9048 11.4814 55.7454C11.4814 57.032 10.8918 58.2382 9.87321 59.0245C8.7474 59.918 6.86206 60.4273 3.78843 60.4273C2.51966 60.4362 1.25983 60.3648 0 60.2039V45.0144V45.0055ZM3.46678 50.9294H4.60154C6.43322 50.9294 7.41609 50.1967 7.41609 49.0262C7.41609 47.8558 6.52256 47.2392 4.93213 47.2392C4.44071 47.2392 3.94927 47.266 3.46678 47.3375V50.9383V50.9294ZM3.46678 57.7915C3.91353 57.8361 4.36923 57.8451 4.82492 57.8361C6.40641 57.8361 7.80023 57.2196 7.80023 55.6381C7.80023 54.0566 6.40636 53.4401 4.66404 53.4401H3.46678V57.8004V57.7915Z" fill="#2C5157"/>
<path d="M23.5078 53.7172H17.7983V57.3894H24.1511V60.2576H14.3047V44.8001H23.8384V47.6682H17.7894V50.8848H23.472L23.4899 53.7261L23.5078 53.7172Z" fill="#2C5157"/>
<path d="M31.0491 56.2905L29.9501 60.2576H26.3224L31.0491 44.7911H35.6417L40.4308 60.2576H36.6692L35.4808 56.2905H31.0491ZM34.9716 53.6725L34.0066 50.3933C33.7386 49.473 33.4527 48.3294 33.2293 47.4091H33.2114C32.988 48.3294 32.7467 49.4998 32.4787 50.3933L31.5583 53.6725H34.9716Z" fill="#2C5157"/>
<path d="M45.64 44.8001V53.6993C45.64 56.3619 46.6497 57.72 48.4456 57.72C50.2415 57.72 51.2959 56.4334 51.2959 53.6993V44.8001H54.7806V53.467C54.7806 58.2472 52.377 60.5077 48.3294 60.5077C44.2819 60.5077 42.1376 58.3544 42.1376 53.4223V44.7911H45.64V44.8001Z" fill="#2C5157"/>
<path d="M61.6607 47.7307H57.5059V44.8001H69.3895V47.7307H65.1633V60.2576H61.6607V47.7307Z" fill="#2C5157"/>
<path d="M75.697 44.8001V60.2665H72.1946V44.8001H75.697Z" fill="#2C5157"/>
<path d="M80.0301 44.8001H89.4834V47.6682H83.5416V51.1975H89.0992V54.0478H83.5416V60.2665H80.0391V44.8001H80.0301Z" fill="#2C5157"/>
<path d="M95.5686 44.8001V53.6993C95.5686 56.3619 96.5783 57.72 98.3742 57.72C100.17 57.72 101.225 56.4334 101.225 53.6993V44.8001H104.709V53.467C104.709 58.2472 102.306 60.5077 98.2581 60.5077C94.2105 60.5077 92.0662 58.3544 92.0662 53.4223V44.7911H95.5686V44.8001Z" fill="#2C5157"/>
<path d="M108.194 44.8001H111.705V57.3269H117.852V60.2576H108.194V44.7911V44.8001Z" fill="#2C5157"/>
<path d="M5.8252 77.8148V63.7333H7.97856L12.8839 70.8634C13.9024 72.3198 14.8227 73.8477 15.6358 75.4381H15.6805C15.5108 73.5171 15.4303 71.5871 15.4571 69.6572V63.7869H17.3245V77.8684H15.332L10.4713 70.6758C9.41702 69.1747 8.46102 67.6021 7.61219 65.976H7.54959C7.65681 67.754 7.70152 69.4427 7.70152 71.7837V77.797L5.83414 77.8148H5.8252Z" fill="#2C5157"/>
<path d="M20.595 63.7333H28.8151V65.2612H22.5696V69.9431H28.3594V71.4084H22.5696V77.7791H20.595V63.7333Z" fill="#2C5157"/>
<path d="M44.1295 70.6312C44.1295 75.4829 40.9308 78.0472 37.0173 78.0472C33.1038 78.0472 30.1373 75.1612 30.1373 70.8992C30.1373 66.6372 33.1574 63.501 37.2496 63.501C41.3418 63.501 44.1295 66.4406 44.1295 70.6222V70.6312ZM32.2549 70.8635C32.2549 73.8746 34.0329 76.564 37.1423 76.564C40.2517 76.564 42.0387 73.9103 42.0387 70.6937C42.0387 67.8881 40.4572 64.9663 37.1602 64.9663C33.8632 64.9663 32.2549 67.763 32.2549 70.8545V70.8635Z" fill="#2C5157"/>
<path d="M46.9264 63.9209C48.1773 63.7154 49.446 63.6171 50.7148 63.6261C52.8235 63.6261 54.1906 63.9835 55.1198 64.7787C55.9061 65.4399 56.3528 66.4227 56.326 67.4503C56.2992 69.1658 55.1109 70.649 53.44 71.0421V71.1046C54.6194 71.4799 55.3252 72.4807 55.6826 73.946C55.9596 75.2684 56.3528 76.5639 56.8621 77.8148H54.8517C54.396 76.7337 54.0565 75.599 53.8331 74.4464C53.3774 72.5075 52.5554 71.7748 50.7684 71.7123H48.901V77.8148H46.9174V63.9209H46.9264ZM48.9099 70.3362H50.9292C53.0379 70.3362 54.3871 69.273 54.3871 67.6647C54.3871 65.8419 52.9218 65.0557 50.8667 65.0289C50.2145 65.011 49.5532 65.0646 48.9189 65.1986V70.3362H48.9099Z" fill="#2C5157"/>
<path d="M71.9534 71.6318C71.8462 69.6661 71.7122 67.3073 71.73 65.5471H71.6674C71.1581 67.2001 70.5506 68.9692 69.8 70.8991L67.1999 77.7344H65.7346L63.349 71.0242C62.6163 69.0407 62.0534 67.2269 61.6424 65.5471H61.5978C61.5531 67.2983 61.4458 69.6661 61.3118 71.7748L60.9187 77.8148H59.1228L60.1502 63.7333H62.5627L65.0823 70.5507C65.6989 72.2841 66.1992 73.8298 66.5477 75.2863H66.6103C66.9856 73.8745 67.5038 72.3555 68.165 70.5507L70.7918 63.7333H73.231L74.1514 77.8148H72.284L71.9534 71.6318Z" fill="#2C5157"/>
<path d="M79.691 73.3831L78.1631 77.7881H76.2153L81.192 63.7065H83.4705L88.4651 77.7881H86.4458L84.8733 73.3831H79.691ZM84.4891 71.9714L83.0238 67.9149C82.6932 66.9946 82.4787 66.1637 82.291 65.3506H82.2464C82.032 66.1905 81.7907 67.0393 81.5137 67.897L80.0483 71.9803H84.4979L84.4891 71.9714Z" fill="#2C5157"/>
<path d="M91.6814 65.2791H87.0263V63.7333H98.3558V65.2791H93.6828V77.8148H91.6814V65.2791Z" fill="#2C5157"/>
<path d="M102.27 63.7333V77.8148H100.295V63.7333H102.27Z" fill="#2C5157"/>
<path d="M119.04 70.6312C119.04 75.4829 115.833 78.0472 111.928 78.0472C108.024 78.0472 105.048 75.1612 105.048 70.8992C105.048 66.6372 108.068 63.501 112.16 63.501C116.253 63.501 119.04 66.4406 119.04 70.6222V70.6312ZM107.166 70.8635C107.166 73.8746 108.935 76.564 112.044 76.564C115.154 76.564 116.95 73.9103 116.95 70.6937C116.95 67.8881 115.359 64.9663 112.062 64.9663C108.765 64.9663 107.166 67.763 107.166 70.8545V70.8635Z" fill="#2C5157"/>
<path d="M121.426 77.8148V63.7333H123.579L128.485 70.8634C129.503 72.3198 130.415 73.8477 131.228 75.4381H131.272C131.094 73.5618 131.049 71.8552 131.049 69.6572V63.7869H132.916V77.8684H130.924L126.063 70.7204C125.009 69.2104 124.062 67.6468 123.204 66.0207H123.141C123.249 67.7987 123.302 69.4874 123.302 71.8284V77.8416L121.435 77.8148H121.426Z" fill="#2C5157"/>
<path d="M186 32.5412C186.009 29.5391 183.579 27.0998 180.576 27.0909C177.574 27.082 175.135 29.5123 175.126 32.5144C175.126 34.6231 176.332 36.5441 178.244 37.4465C176.52 50.983 165.021 61.1332 151.377 61.16C150.153 61.16 148.929 61.0796 147.705 60.9188C135.41 59.2122 125.832 49.3837 124.456 37.0444C127.261 35.9901 128.682 32.854 127.619 30.0484C127.002 28.4222 125.653 27.1892 123.973 26.7245C121.784 11.41 108.677 0.01787 93.2012 0C91.7984 0 90.3955 0.0982915 89.0017 0.285926C75.1077 2.21588 64.2161 13.1881 62.3754 27.0909C59.5252 28.0291 57.9705 31.0938 58.8997 33.953C59.8379 36.8032 62.9025 38.3579 65.7617 37.4287C68.612 36.4905 70.1667 33.4258 69.2375 30.5666C68.7728 29.137 67.7364 27.9754 66.3783 27.3411C68.0759 15.3414 77.5202 5.91497 89.5288 4.25306C90.7439 4.09223 91.9681 4.0118 93.2012 4.0118C106.63 4.03861 118.023 13.885 119.988 27.1713C117.335 28.5741 116.325 31.8532 117.728 34.5069C118.308 35.6149 119.264 36.4816 120.417 36.973C121.811 51.3315 132.872 62.8666 147.168 64.8501C148.562 65.0378 149.965 65.1361 151.368 65.1361C167.129 65.1093 180.38 53.324 182.247 37.6788C184.472 36.9462 185.973 34.8822 186 32.5412ZM180.567 34.5427C179.459 34.5427 178.557 33.6492 178.557 32.5502C178.557 31.4422 179.451 30.5398 180.55 30.5398C181.657 30.5398 182.56 31.4333 182.56 32.5323C182.56 33.6313 181.666 34.5337 180.567 34.5337V34.5427ZM120.506 31.9694C120.506 30.8614 121.391 29.959 122.499 29.9501C123.607 29.9501 124.509 30.8347 124.518 31.9426C124.518 33.0416 123.643 33.944 122.535 33.9619C121.436 33.9798 120.524 33.0952 120.506 31.9962V31.9783V31.9694ZM62.0537 32.2553C62.0537 31.1474 62.9473 30.2539 64.0552 30.2539C65.1632 30.2539 66.0567 31.1474 66.0567 32.2553C66.0567 33.3632 65.1632 34.2567 64.0552 34.2567C62.9562 34.2389 62.0805 33.3454 62.0805 32.2553H62.0537Z" fill="url(#paint0_linear_1_14423)"/>
<defs>
<linearGradient id="paint0_linear_1_14423" x1="58.6406" y1="32.568" x2="186" y2="32.568" gradientUnits="userSpaceOnUse">
<stop stop-color="#2C5059"/>
<stop offset="0.16" stop-color="#2F5256"/>
<stop offset="0.29" stop-color="#3A5A52"/>
<stop offset="0.4" stop-color="#4A644B"/>
<stop offset="0.52" stop-color="#63753E"/>
<stop offset="0.62" stop-color="#808830"/>
<stop offset="0.63" stop-color="#81892F"/>
<stop offset="0.71" stop-color="#868D31"/>
<stop offset="0.82" stop-color="#969A35"/>
<stop offset="0.94" stop-color="#B0B03F"/>
<stop offset="0.99" stop-color="#BBBA44"/>
</linearGradient>
</defs>
</svg>
