<svg xmlns="http://www.w3.org/2000/svg" fill="none" viewBox="0.55 1 250.45 289">
<path d="M248.892 74.25L125.722 3L2.55273 74.25V216.75L125.722 288" stroke="#2E5159" stroke-width="4"/>
<path d="M243 78C247.418 78 251 74.4183 251 70C251 65.5817 247.418 62 243 62C238.582 62 235 65.5817 235 70C235 74.4183 238.582 78 243 78Z" fill="#2E5159"/>
<path d="M19.463 205.926L127.759 268.694L236.055 205.927" stroke="#2E5159" stroke-width="4"/>
<path d="M23.114 203.006C20.2915 203.006 18.0034 205.294 18.0034 208.116C18.0034 210.938 20.2915 213.225 23.114 213.225C25.9365 213.225 28.2246 210.938 28.2246 208.116C28.2246 205.294 25.9365 203.006 23.114 203.006Z" fill="#2E5159"/>
<path d="M34 135.005C35.4921 134.773 37.0022 134.666 38.5212 134.684C40.6566 134.684 41.9611 134.889 43.0869 135.559C44.2306 136.131 44.9543 137.311 44.9543 138.588C44.9275 140.134 43.8911 141.474 42.4079 141.885V141.939C44.2038 142.314 45.4904 143.905 45.4814 145.745C45.4814 147.032 44.8918 148.238 43.8732 149.025C42.7474 149.918 40.8621 150.427 37.7884 150.427C36.5197 150.436 35.2598 150.365 34 150.204V135.014V135.005ZM37.4668 140.929H38.6015C40.4332 140.929 41.4161 140.197 41.4161 139.026C41.4161 137.856 40.5226 137.239 38.9321 137.239C38.4407 137.239 37.9493 137.266 37.4668 137.338V140.938V140.929ZM37.4668 147.791C37.9135 147.836 38.3692 147.845 38.8249 147.836C40.4064 147.836 41.8002 147.22 41.8002 145.638C41.8002 144.057 40.4064 143.44 38.664 143.44H37.4668V147.8V147.791Z" fill="#2C5157"/>
<path d="M57.5078 143.717H51.7983V147.389H58.1511V150.258H48.3047V134.8H57.8384V137.668H51.7894V140.885H57.472L57.4899 143.726L57.5078 143.717Z" fill="#2C5157"/>
<path d="M65.0492 146.29L63.9502 150.258H60.3225L65.0492 134.791H69.6418L74.4309 150.258H70.6693L69.4809 146.29H65.0492ZM68.9716 143.673L68.0067 140.393C67.7386 139.473 67.4527 138.329 67.2293 137.409H67.2115C66.9881 138.329 66.7468 139.5 66.4787 140.393L65.5584 143.673H68.9716Z" fill="#2C5157"/>
<path d="M79.6399 134.8V143.699C79.6399 146.362 80.6496 147.72 82.4455 147.72C84.2414 147.72 85.2958 146.433 85.2958 143.699V134.8H88.7805V143.467C88.7805 148.247 86.3769 150.508 82.3293 150.508C78.2818 150.508 76.1375 148.354 76.1375 143.422V134.791H79.6399V134.8Z" fill="#2C5157"/>
<path d="M95.6607 137.731H91.5059V134.8H103.389V137.731H99.1632V150.258H95.6607V137.731Z" fill="#2C5157"/>
<path d="M109.697 134.8V150.267H106.195V134.8H109.697Z" fill="#2C5157"/>
<path d="M114.03 134.8H123.483V137.668H117.542V141.197H123.099V144.048H117.542V150.267H114.039V134.8H114.03Z" fill="#2C5157"/>
<path d="M129.569 134.8V143.699C129.569 146.362 130.578 147.72 132.374 147.72C134.17 147.72 135.225 146.433 135.225 143.699V134.8H138.709V143.467C138.709 148.247 136.306 150.508 132.258 150.508C128.21 150.508 126.066 148.354 126.066 143.422V134.791H129.569V134.8Z" fill="#2C5157"/>
<path d="M142.194 134.8H145.705V147.327H151.852V150.258H142.194V134.791V134.8Z" fill="#2C5157"/>
<path d="M39.8252 167.815V153.733H41.9786L46.8839 160.863C47.9024 162.32 48.8227 163.848 49.6358 165.438H49.6805C49.5108 163.517 49.4303 161.587 49.4571 159.657V153.787H51.3245V167.868H49.332L44.4713 160.676C43.417 159.175 42.461 157.602 41.6122 155.976H41.5496C41.6568 157.754 41.7015 159.443 41.7015 161.784V167.797L39.8341 167.815H39.8252Z" fill="#2C5157"/>
<path d="M54.595 153.733H62.8151V155.261H56.5696V159.943H62.3594V161.408H56.5696V167.779H54.595V153.733Z" fill="#2C5157"/>
<path d="M78.1294 160.631C78.1294 165.483 74.9307 168.047 71.0172 168.047C67.1037 168.047 64.1372 165.161 64.1372 160.899C64.1372 156.637 67.1573 153.501 71.2495 153.501C75.3418 153.501 78.1294 156.441 78.1294 160.622V160.631ZM66.2548 160.863C66.2548 163.875 68.0328 166.564 71.1422 166.564C74.2516 166.564 76.0387 163.91 76.0387 160.694C76.0387 157.888 74.4571 154.966 71.1601 154.966C67.8631 154.966 66.2548 157.763 66.2548 160.855V160.863Z" fill="#2C5157"/>
<path d="M80.9264 153.921C82.1773 153.715 83.4461 153.617 84.7149 153.626C86.8235 153.626 88.1906 153.983 89.1199 154.779C89.9061 155.44 90.3529 156.423 90.3261 157.45C90.2992 159.166 89.1109 160.649 87.4401 161.042V161.105C88.6195 161.48 89.3253 162.481 89.6827 163.946C89.9596 165.268 90.3528 166.564 90.8621 167.815H88.8518C88.3961 166.734 88.0565 165.599 87.8332 164.446C87.3775 162.507 86.5554 161.775 84.7684 161.712H82.901V167.815H80.9175V153.921H80.9264ZM82.91 160.336H84.9293C87.0379 160.336 88.3871 159.273 88.3871 157.665C88.3871 155.842 86.9218 155.056 84.8668 155.029C84.2145 155.011 83.5533 155.065 82.9189 155.199V160.336H82.91Z" fill="#2C5157"/>
<path d="M105.953 161.632C105.846 159.666 105.712 157.307 105.73 155.547H105.667C105.158 157.2 104.551 158.969 103.8 160.899L101.2 167.734H99.7346L97.349 161.024C96.6164 159.041 96.0534 157.227 95.6424 155.547H95.5978C95.5531 157.298 95.4459 159.666 95.3118 161.775L94.9187 167.815H93.1228L94.1502 153.733H96.5628L99.0824 160.551C99.6989 162.284 100.199 163.83 100.548 165.286H100.61C100.986 163.875 101.504 162.356 102.165 160.551L104.792 153.733H107.231L108.151 167.815H106.284L105.953 161.632Z" fill="#2C5157"/>
<path d="M113.691 163.383L112.163 167.788H110.215L115.192 153.707H117.471L122.465 167.788H120.446L118.873 163.383H113.691ZM118.489 161.971L117.024 157.915C116.693 156.995 116.479 156.164 116.291 155.351H116.246C116.032 156.19 115.791 157.039 115.514 157.897L114.048 161.98H118.498L118.489 161.971Z" fill="#2C5157"/>
<path d="M125.681 155.279H121.026V153.733H132.356V155.279H127.683V167.815H125.681V155.279Z" fill="#2C5157"/>
<path d="M136.27 153.733V167.815H134.295V153.733H136.27Z" fill="#2C5157"/>
<path d="M153.04 160.631C153.04 165.483 149.833 168.047 145.928 168.047C142.024 168.047 139.048 165.161 139.048 160.899C139.048 156.637 142.068 153.501 146.16 153.501C150.253 153.501 153.04 156.441 153.04 160.622V160.631ZM141.166 160.863C141.166 163.875 142.935 166.564 146.044 166.564C149.154 166.564 150.95 163.91 150.95 160.694C150.95 157.888 149.359 154.966 146.062 154.966C142.765 154.966 141.166 157.763 141.166 160.855V160.863Z" fill="#2C5157"/>
<path d="M155.426 167.815V153.733H157.579L162.485 160.863C163.503 162.32 164.415 163.848 165.228 165.438H165.272C165.094 163.562 165.049 161.855 165.049 159.657V153.787H166.916V167.868H164.924L160.063 160.72C159.009 159.21 158.062 157.647 157.204 156.021H157.141C157.249 157.799 157.302 159.487 157.302 161.828V167.842L155.435 167.815H155.426Z" fill="#2C5157"/>
<path d="M220 122.541C220.009 119.539 217.578 117.1 214.576 117.091C211.574 117.082 209.135 119.512 209.126 122.514C209.126 124.623 210.332 126.544 212.244 127.447C210.52 140.983 199.021 151.133 185.377 151.16C184.153 151.16 182.929 151.08 181.705 150.919C169.41 149.212 159.832 139.384 158.456 127.044C161.261 125.99 162.682 122.854 161.619 120.048C161.002 118.422 159.653 117.189 157.973 116.725C155.784 101.41 142.677 90.0179 127.201 90C125.798 90 124.395 90.0983 123.002 90.2859C109.108 92.2159 98.216 103.188 96.3754 117.091C93.5251 118.029 91.9704 121.094 92.8997 123.953C93.8379 126.803 96.9025 128.358 99.7617 127.429C102.612 126.491 104.167 123.426 103.237 120.567C102.773 119.137 101.736 117.975 100.378 117.341C102.076 105.341 111.52 95.915 123.529 94.2531C124.744 94.0922 125.968 94.0118 127.201 94.0118C140.63 94.0386 152.023 103.885 153.988 117.171C151.335 118.574 150.325 121.853 151.728 124.507C152.308 125.615 153.264 126.482 154.417 126.973C155.811 141.332 166.872 152.867 181.168 154.85C182.562 155.038 183.965 155.136 185.368 155.136C201.129 155.109 214.38 143.324 216.247 127.679C218.472 126.946 219.973 124.882 220 122.541ZM214.567 124.543C213.459 124.543 212.557 123.649 212.557 122.55C212.557 121.442 213.451 120.54 214.55 120.54C215.657 120.54 216.56 121.433 216.56 122.532C216.56 123.631 215.666 124.534 214.567 124.534V124.543ZM154.506 121.969C154.506 120.861 155.391 119.959 156.499 119.95C157.607 119.95 158.509 120.835 158.518 121.943C158.518 123.042 157.643 123.944 156.535 123.962C155.436 123.98 154.524 123.095 154.506 121.996V121.978V121.969ZM96.0537 122.255C96.0537 121.147 96.9473 120.254 98.0552 120.254C99.1631 120.254 100.057 121.147 100.057 122.255C100.057 123.363 99.1631 124.257 98.0552 124.257C96.9562 124.239 96.0805 123.345 96.0805 122.255H96.0537Z" fill="url(#paint0_linear_1_20508)"/>
<defs>
<linearGradient id="paint0_linear_1_20508" x1="92.6406" y1="122.568" x2="220" y2="122.568" gradientUnits="userSpaceOnUse">
<stop stop-color="#2C5059"/>
<stop offset="0.16" stop-color="#2F5256"/>
<stop offset="0.29" stop-color="#3A5A52"/>
<stop offset="0.4" stop-color="#4A644B"/>
<stop offset="0.52" stop-color="#63753E"/>
<stop offset="0.62" stop-color="#808830"/>
<stop offset="0.63" stop-color="#81892F"/>
<stop offset="0.71" stop-color="#868D31"/>
<stop offset="0.82" stop-color="#969A35"/>
<stop offset="0.94" stop-color="#B0B03F"/>
<stop offset="0.99" stop-color="#BBBA44"/>
</linearGradient>
</defs>
</svg>