<svg width="180" height="62" viewBox="0 0 180 62" fill="none" xmlns="http://www.w3.org/2000/svg">
<path d="M145.84 0.657772H144.092V6.0797H143.378V0.657772H141.631V0.0187988H145.84V0.657772Z" fill="#1D3157"/>
<path d="M152.973 6.0797H152.268V2.01091C152.268 1.69142 152.287 1.29675 152.324 0.826907H152.305C152.24 1.09941 152.174 1.29675 152.127 1.41891L150.05 6.0797H149.703L147.635 1.4565C147.579 1.32495 147.513 1.11822 147.457 0.836313H147.438C147.457 1.08063 147.476 1.4753 147.476 2.02032V6.0797H146.79V0.0187988H147.729L149.59 4.24735C149.731 4.57623 149.825 4.81114 149.872 4.97089H149.9C150.022 4.642 150.116 4.38828 150.191 4.22853L152.089 0.0187988H152.982V6.0797H152.973Z" fill="#1D3157"/>
<path d="M31.2462 36.4313H24.4147V20.5132H7.33147V36.4313H0.5V0H7.33147V15.6738H24.4147V0H31.2462V36.4313Z" fill="#1D3157"/>
<path d="M44.6467 3.98425C44.6467 4.51987 44.534 5.02728 44.3178 5.49712C44.1017 5.96696 43.8104 6.38041 43.4533 6.72809C43.0962 7.08517 42.664 7.36709 42.1848 7.57382C41.6961 7.78055 41.1793 7.89331 40.6249 7.89331C40.0704 7.89331 39.5818 7.78995 39.1026 7.57382C38.6233 7.36709 38.2099 7.08517 37.8529 6.72809C37.4958 6.37101 37.2232 5.96696 37.0071 5.49712C36.8004 5.02728 36.6877 4.51987 36.6877 3.98425C36.6877 3.44863 36.791 2.91302 37.0071 2.42438C37.2139 1.93575 37.4958 1.5129 37.8529 1.16522C38.2099 0.808142 38.6233 0.535641 39.1026 0.319515C39.5818 0.112786 40.0892 0 40.6249 0C41.1605 0 41.6961 0.10339 42.1848 0.319515C42.6734 0.526244 43.0962 0.808142 43.4533 1.16522C43.8104 1.5223 44.1017 1.93575 44.3178 2.42438C44.534 2.91302 44.6467 3.42984 44.6467 3.98425Z" fill="#1D3157"/>
<path d="M43.7067 10.5808H37.486V36.4313H43.7067V10.5808Z" fill="#1D3157"/>
<path d="M67.7438 16.0497C67.5559 16.2846 67.3774 16.4726 67.1988 16.6041C67.0203 16.7357 66.7666 16.8015 66.4284 16.8015C66.0901 16.8015 65.7987 16.7075 65.498 16.5102C65.1973 16.3128 64.8309 16.0967 64.4174 15.8524C63.9946 15.6081 63.4965 15.3919 62.9139 15.1946C62.3313 14.9973 61.6172 14.9033 60.7621 14.9033C59.672 14.9033 58.7135 15.1007 57.8866 15.4953C57.0597 15.89 56.3832 16.4538 55.8288 17.1961C55.2838 17.9385 54.8796 18.8312 54.6071 19.8836C54.3346 20.936 54.2031 22.12 54.2031 23.445C54.2031 24.7699 54.3535 26.0479 54.6448 27.1191C54.9361 28.1904 55.3589 29.0924 55.9133 29.8254C56.4677 30.5583 57.1349 31.1127 57.9242 31.4886C58.7136 31.8645 59.6062 32.0524 60.5929 32.0524C61.5795 32.0524 62.3877 31.9303 62.9985 31.6859C63.6093 31.4416 64.1261 31.1785 64.549 30.8778C64.9719 30.5865 65.3383 30.314 65.6483 30.0697C65.9584 29.8254 66.3061 29.7032 66.6914 29.7032C67.1988 29.7032 67.5747 29.9006 67.8285 30.2858L69.6138 32.5505C68.9278 33.3586 68.1762 34.0351 67.368 34.5802C66.5599 35.1252 65.7236 35.5668 64.8591 35.8863C63.9945 36.2152 63.1019 36.4407 62.1716 36.5817C61.2507 36.7132 60.3298 36.779 59.4277 36.779C57.8302 36.779 56.3268 36.4783 54.9173 35.8863C53.5078 35.2943 52.2768 34.4204 51.2243 33.2834C50.1719 32.137 49.3449 30.7463 48.7342 29.0924C48.1234 27.4386 47.8133 25.5498 47.8133 23.4356C47.8133 21.5374 48.0858 19.7802 48.6308 18.1546C49.1758 16.5383 49.9746 15.1288 51.0364 13.9449C52.0983 12.7609 53.4044 11.8306 54.9642 11.1634C56.5241 10.4962 58.3189 10.158 60.358 10.158C62.3971 10.158 63.9851 10.468 65.4322 11.0882C66.8887 11.7084 68.1949 12.6011 69.3507 13.7569L67.7157 16.0215L67.7438 16.0497Z" fill="#1D3157"/>
<path d="M84.0663 10.1768C86.0021 10.1768 87.75 10.4868 89.3192 11.107C90.8885 11.7272 92.2321 12.6105 93.3409 13.7569C94.4498 14.9033 95.305 16.2941 95.9064 17.9385C96.5078 19.5829 96.8178 21.4247 96.8178 23.4544C96.8178 25.4841 96.5172 27.3541 95.9064 28.9985C95.305 30.6429 94.4498 32.0431 93.3409 33.2083C92.2321 34.3735 90.8885 35.2567 89.3192 35.8769C87.75 36.4971 86.0021 36.8072 84.0663 36.8072C82.1306 36.8072 80.3828 36.4971 78.8042 35.8769C77.2255 35.2567 75.8818 34.3641 74.7636 33.2083C73.6454 32.0525 72.7809 30.6429 72.1701 28.9985C71.5593 27.3541 71.2492 25.5029 71.2492 23.4544C71.2492 21.4059 71.5593 19.5829 72.1701 17.9385C72.7809 16.2941 73.6454 14.9033 74.7636 13.7569C75.8818 12.6105 77.2255 11.7366 78.8042 11.107C80.3828 10.4868 82.14 10.1768 84.0663 10.1768ZM84.0663 32.0148C86.2182 32.0148 87.8063 31.2913 88.84 29.8442C89.8736 28.3971 90.3905 26.2828 90.3905 23.492C90.3905 20.7011 89.8736 18.5775 88.84 17.121C87.8063 15.6551 86.2182 14.9315 84.0663 14.9315C81.9145 14.9315 80.2701 15.6645 79.2271 17.1398C78.1841 18.6057 77.6672 20.7293 77.6672 23.5014C77.6672 26.2734 78.1841 28.3877 79.2271 29.8348C80.2701 31.2913 81.8769 32.0148 84.0663 32.0148Z" fill="#1D3157"/>
<path d="M122.376 33.5465V19.9776C122.376 19.1695 122.498 18.4553 122.733 17.8351C122.968 17.2149 123.288 16.6981 123.701 16.2847C124.115 15.8712 124.594 15.5611 125.139 15.3356C125.684 15.1195 126.276 15.0067 126.915 15.0067C128.306 15.0067 129.368 15.4202 130.091 16.2565C130.815 17.0834 131.172 18.3237 131.172 19.9682V32.4753C133.239 32.3062 135.316 32.2122 137.392 32.184V19.9682C137.392 18.4083 137.195 17.0176 136.8 15.8148C136.406 14.6026 135.832 13.5784 135.071 12.7421C134.32 11.9058 133.38 11.2668 132.271 10.8251C131.162 10.3929 129.894 10.1674 128.465 10.1674C127.638 10.1674 126.821 10.2613 126.013 10.4399C125.195 10.6278 124.434 10.9097 123.711 11.295C122.987 11.6803 122.329 12.1783 121.719 12.7985C121.117 13.4093 120.61 14.1422 120.206 15.0067C119.689 13.5502 118.9 12.3756 117.847 11.4923C116.795 10.609 115.46 10.1674 113.825 10.1674C113.055 10.1674 112.341 10.2519 111.692 10.4305C111.044 10.609 110.442 10.8439 109.879 11.1446C109.315 11.4453 108.789 11.8118 108.291 12.2253C107.793 12.6481 107.323 13.1086 106.872 13.6066L106.468 11.6896C106.214 10.9379 105.688 10.5526 104.88 10.5526H101.074V36.4032H107.295V17.4875C107.962 16.7169 108.695 16.1061 109.475 15.6645C110.254 15.2228 111.091 14.9973 111.984 14.9973C113.346 14.9973 114.37 15.392 115.066 16.1813C115.761 16.9706 116.109 18.2298 116.109 19.9588V34.6835C117.828 34.3265 119.792 33.9412 121.784 33.6217C121.982 33.5935 122.17 33.5559 122.357 33.5277L122.376 33.5465Z" fill="#1D3157"/>
<path d="M21.9162 49.5022C21.9162 49.5022 22.5081 49.7465 23.6075 50.2069C24.707 50.6674 26.342 51.2594 28.4469 51.9265C30.5612 52.5561 33.1641 53.1951 36.1804 53.6555C39.1968 54.1066 42.6266 54.3321 46.3665 54.2663C48.2365 54.2005 50.1816 54.1066 52.1832 53.8717C53.1886 53.7777 54.2035 53.6274 55.2371 53.4958C56.2708 53.3361 57.3138 53.1951 58.3662 52.9884C62.5947 52.2554 67.0113 51.1842 71.5593 49.9344C73.8333 49.2954 76.1355 48.6189 78.4659 47.9141C80.7963 47.1812 83.1549 46.4482 85.5323 45.7059C90.2871 44.1836 95.1357 42.6425 100.031 41.1766C104.937 39.7389 109.879 38.367 114.831 37.2864C117.303 36.7414 119.774 36.2433 122.236 35.8581C124.698 35.454 127.132 35.1157 129.547 34.8902C134.367 34.4016 139.084 34.3076 143.529 34.5519C147.974 34.7774 152.155 35.4258 155.933 36.2715C159.72 37.0984 163.103 38.1885 166.034 39.2973C168.957 40.4155 171.428 41.5807 173.42 42.605C174.426 43.0936 175.281 43.6104 176.042 44.0239C176.803 44.4373 177.423 44.832 177.94 45.1421C178.955 45.7717 179.5 46.1006 179.5 46.1006C179.5 46.1006 178.917 45.8468 177.827 45.3676C176.747 44.8602 175.121 44.2118 173.063 43.4037C172.02 43.0184 170.883 42.5767 169.615 42.1727C168.355 41.7404 166.974 41.327 165.508 40.8947C162.548 40.0772 159.184 39.3255 155.472 38.7523C153.621 38.461 151.676 38.2636 149.665 38.1039C148.66 38.0287 147.636 37.9817 146.592 37.9254C145.549 37.9066 144.497 37.8502 143.426 37.869C139.141 37.8596 134.63 38.1415 129.988 38.7711C125.346 39.3725 120.592 40.3215 115.78 41.4586C110.979 42.6144 106.121 43.9581 101.281 45.4052C96.4326 46.8335 91.5932 48.3652 86.7914 49.7935C81.9897 51.2406 77.2162 52.5937 72.5366 53.7213C67.857 54.8489 63.2619 55.7416 58.8548 56.2772C54.4478 56.8317 50.2193 56.9726 46.3384 56.8035C42.4481 56.6249 38.9149 56.0611 35.861 55.3188C32.7976 54.5858 30.2228 53.6274 28.1556 52.7629C27.1313 52.293 26.2104 51.9077 25.4493 51.4849C24.6787 51.0808 24.0116 50.752 23.5042 50.4419C22.4706 49.8405 21.9255 49.5116 21.9255 49.5116L21.9162 49.5022Z" fill="#7CADD2"/>
<path d="M143.52 34.5426C144.967 34.6178 146.386 34.74 147.776 34.8997C149.703 34.2889 151.61 33.7815 153.471 33.3868C156.403 32.7384 159.231 32.3626 161.853 32.1934C164.484 32.0243 166.908 32.0525 169.06 32.1934C171.212 32.372 173.091 32.5881 174.642 32.8418C176.183 33.1143 177.404 33.3305 178.222 33.5278C179.049 33.7063 179.49 33.8003 179.49 33.8003C179.49 33.8003 179.077 33.6217 178.297 33.2835C177.902 33.1237 177.423 32.9076 176.85 32.7009C176.277 32.4941 175.61 32.2122 174.849 31.9867C173.336 31.4887 171.475 30.9531 169.286 30.5114C167.096 30.0792 164.587 29.7315 161.815 29.6375C160.434 29.5811 158.987 29.5999 157.493 29.6657C155.999 29.7503 154.458 29.8912 152.879 30.1168C149.731 30.5584 146.442 31.3007 143.144 32.3438C141.49 32.8512 139.836 33.4432 138.182 34.0916C137.891 34.2043 137.6 34.3171 137.308 34.4393C139.423 34.4111 141.49 34.4393 143.51 34.552L143.52 34.5426Z" fill="#1D3157"/>
<path d="M130.27 38.7335C128.776 39.504 127.301 40.2934 125.835 41.0921C122.668 42.8493 119.548 44.6535 116.494 46.4201C114.972 47.294 113.459 48.1679 111.965 49.023C110.471 49.8687 108.987 50.6862 107.521 51.4755C104.589 53.0354 101.723 54.4637 98.9414 55.6195C96.1693 56.8035 93.463 57.6962 90.9259 58.354C88.3888 58.9836 86.002 59.3594 83.8595 59.5004C81.7265 59.6319 79.8378 59.585 78.2873 59.4534C76.7368 59.2937 75.5246 59.1245 74.6883 58.9648C73.8613 58.805 73.4103 58.7205 73.4103 58.7205C73.4103 58.7205 73.8332 58.8896 74.6131 59.2091C75.4025 59.5098 76.5865 59.9326 78.1369 60.3179C79.6874 60.6844 81.6137 61.0602 83.8595 61.1824C86.1053 61.3234 88.6613 61.2576 91.4146 60.8535C94.1584 60.4401 97.0996 59.7447 100.097 58.7205C103.104 57.715 106.177 56.4276 109.268 54.9617C112.36 53.4959 115.47 51.8514 118.581 50.1412C121.672 48.431 124.811 46.6926 127.949 44.9542C131.069 43.2252 134.207 41.5714 137.337 40.0491C138.925 39.2879 140.513 38.555 142.091 37.869C138.295 37.916 134.33 38.1885 130.261 38.7335H130.27Z" fill="#1D3157"/>
</svg>
