<svg xmlns="http://www.w3.org/2000/svg" fill="none" viewBox="0.55 0.33 250.45 289">
<path d="M248.892 73.5808L125.722 2.33081L2.55273 73.5808V216.081L125.722 287.331" stroke="#1D3157" stroke-width="4"/>
<path d="M249 69.3308C249 72.6445 246.314 75.3308 243 75.3308C239.686 75.3308 237 72.6445 237 69.3308C237 66.0171 239.686 63.3308 243 63.3308C246.314 63.3308 249 66.0171 249 69.3308Z" fill="#1D3157" stroke="#1D3157" stroke-width="4"/>
<path d="M19.463 205.257L127.759 268.025L236.055 205.257" stroke="#1D3157" stroke-width="4"/>
<path d="M20.0034 207.446C20.0034 205.73 21.3956 204.337 23.114 204.337C24.8324 204.337 26.2246 205.73 26.2246 207.446C26.2246 209.163 24.8324 210.556 23.114 210.556C21.3956 210.556 20.0034 209.163 20.0034 207.446Z" fill="#1D3157" stroke="#1D3157" stroke-width="4"/>
<path d="M189.34 118.658H187.593V124.08H186.878V118.658H185.131V118.019H189.34V118.658Z" fill="#1D3157"/>
<path d="M196.473 124.08H195.768V120.011C195.768 119.691 195.787 119.297 195.824 118.827H195.805C195.74 119.099 195.674 119.297 195.627 119.419L193.55 124.08H193.203L191.135 119.457C191.079 119.325 191.013 119.118 190.957 118.836H190.938C190.957 119.081 190.976 119.475 190.976 120.02V124.08H190.29V118.019H191.229L193.09 122.247C193.231 122.576 193.325 122.811 193.372 122.971H193.4C193.522 122.642 193.616 122.388 193.691 122.229L195.589 118.019H196.482V124.08H196.473Z" fill="#1D3157"/>
<path d="M74.7462 154.431H67.9147V138.513H50.8315V154.431H44V118H50.8315V133.674H67.9147V118H74.7462V154.431Z" fill="#1D3157"/>
<path d="M88.1468 121.984C88.1468 122.52 88.034 123.027 87.8179 123.497C87.6018 123.967 87.3105 124.38 86.9534 124.728C86.5963 125.085 86.1641 125.367 85.6848 125.574C85.1962 125.781 84.6793 125.893 84.1249 125.893C83.5705 125.893 83.0819 125.79 82.6027 125.574C82.1234 125.367 81.71 125.085 81.3529 124.728C80.9959 124.371 80.7233 123.967 80.5072 123.497C80.3005 123.027 80.1877 122.52 80.1877 121.984C80.1877 121.449 80.2911 120.913 80.5072 120.424C80.7139 119.936 80.9959 119.513 81.3529 119.165C81.71 118.808 82.1234 118.536 82.6027 118.32C83.0819 118.113 83.5893 118 84.1249 118C84.6606 118 85.1962 118.103 85.6848 118.32C86.1735 118.526 86.5963 118.808 86.9534 119.165C87.3105 119.522 87.6018 119.936 87.8179 120.424C88.034 120.913 88.1468 121.43 88.1468 121.984Z" fill="#1D3157"/>
<path d="M87.2067 128.581H80.9861V154.431H87.2067V128.581Z" fill="#1D3157"/>
<path d="M111.244 134.05C111.056 134.285 110.877 134.473 110.699 134.604C110.52 134.736 110.267 134.801 109.928 134.801C109.59 134.801 109.299 134.707 108.998 134.51C108.697 134.313 108.331 134.097 107.917 133.852C107.495 133.608 106.996 133.392 106.414 133.195C105.831 132.997 105.117 132.903 104.262 132.903C103.172 132.903 102.213 133.101 101.387 133.495C100.56 133.89 99.8831 134.454 99.3287 135.196C98.7837 135.938 98.3796 136.831 98.1071 137.884C97.8346 138.936 97.7031 140.12 97.7031 141.445C97.7031 142.77 97.8534 144.048 98.1447 145.119C98.436 146.19 98.8588 147.092 99.4132 147.825C99.9677 148.558 100.635 149.113 101.424 149.489C102.213 149.864 103.106 150.052 104.093 150.052C105.079 150.052 105.888 149.93 106.498 149.686C107.109 149.442 107.626 149.179 108.049 148.878C108.472 148.587 108.838 148.314 109.148 148.07C109.458 147.825 109.806 147.703 110.191 147.703C110.699 147.703 111.075 147.901 111.328 148.286L113.114 150.55C112.428 151.359 111.676 152.035 110.868 152.58C110.06 153.125 109.223 153.567 108.359 153.886C107.494 154.215 106.602 154.441 105.672 154.582C104.751 154.713 103.83 154.779 102.928 154.779C101.33 154.779 99.8268 154.478 98.4172 153.886C97.0077 153.294 95.7767 152.42 94.7243 151.283C93.6718 150.137 92.8449 148.746 92.2341 147.092C91.6233 145.439 91.3132 143.55 91.3132 141.436C91.3132 139.537 91.5857 137.78 92.1307 136.155C92.6758 134.538 93.4745 133.129 94.5364 131.945C95.5982 130.761 96.9043 129.831 98.4642 129.163C100.024 128.496 101.819 128.158 103.858 128.158C105.897 128.158 107.485 128.468 108.932 129.088C110.389 129.708 111.695 130.601 112.851 131.757L111.216 134.022L111.244 134.05Z" fill="#1D3157"/>
<path d="M127.566 128.177C129.502 128.177 131.25 128.487 132.819 129.107C134.389 129.727 135.732 130.611 136.841 131.757C137.95 132.903 138.805 134.294 139.406 135.938C140.008 137.583 140.318 139.425 140.318 141.454C140.318 143.484 140.017 145.354 139.406 146.998C138.805 148.643 137.95 150.043 136.841 151.208C135.732 152.373 134.389 153.257 132.819 153.877C131.25 154.497 129.502 154.807 127.566 154.807C125.631 154.807 123.883 154.497 122.304 153.877C120.726 153.257 119.382 152.364 118.264 151.208C117.145 150.052 116.281 148.643 115.67 146.998C115.059 145.354 114.749 143.503 114.749 141.454C114.749 139.406 115.059 137.583 115.67 135.938C116.281 134.294 117.145 132.903 118.264 131.757C119.382 130.611 120.726 129.737 122.304 129.107C123.883 128.487 125.64 128.177 127.566 128.177ZM127.566 150.015C129.718 150.015 131.306 149.291 132.34 147.844C133.374 146.397 133.89 144.283 133.89 141.492C133.89 138.701 133.374 136.577 132.34 135.121C131.306 133.655 129.718 132.932 127.566 132.932C125.415 132.932 123.77 133.664 122.727 135.14C121.684 136.606 121.167 138.729 121.167 141.501C121.167 144.273 121.684 146.388 122.727 147.835C123.77 149.291 125.377 150.015 127.566 150.015Z" fill="#1D3157"/>
<path d="M165.876 151.547V137.978C165.876 137.169 165.999 136.455 166.233 135.835C166.468 135.215 166.788 134.698 167.201 134.285C167.615 133.871 168.094 133.561 168.639 133.336C169.184 133.119 169.776 133.007 170.415 133.007C171.806 133.007 172.868 133.42 173.591 134.256C174.315 135.083 174.672 136.324 174.672 137.968V150.475C176.739 150.306 178.816 150.212 180.892 150.184V137.968C180.892 136.408 180.695 135.018 180.3 133.815C179.906 132.603 179.333 131.578 178.571 130.742C177.82 129.906 176.88 129.267 175.771 128.825C174.662 128.393 173.394 128.167 171.965 128.167C171.139 128.167 170.321 128.261 169.513 128.44C168.695 128.628 167.934 128.91 167.211 129.295C166.487 129.68 165.829 130.178 165.219 130.798C164.617 131.409 164.11 132.142 163.706 133.007C163.189 131.55 162.4 130.376 161.347 129.492C160.295 128.609 158.96 128.167 157.325 128.167C156.555 128.167 155.841 128.252 155.192 128.43C154.544 128.609 153.943 128.844 153.379 129.145C152.815 129.445 152.289 129.812 151.791 130.225C151.293 130.648 150.823 131.109 150.372 131.607L149.968 129.69C149.714 128.938 149.188 128.553 148.38 128.553H144.574V154.403H150.795V135.487C151.462 134.717 152.195 134.106 152.975 133.664C153.755 133.223 154.591 132.997 155.484 132.997C156.846 132.997 157.87 133.392 158.566 134.181C159.261 134.971 159.609 136.23 159.609 137.959V152.684C161.328 152.326 163.292 151.941 165.284 151.622C165.482 151.594 165.67 151.556 165.858 151.528L165.876 151.547Z" fill="#1D3157"/>
<path d="M65.4163 167.502C65.4163 167.502 66.0082 167.747 67.1076 168.207C68.207 168.667 69.8421 169.259 71.947 169.927C74.0612 170.556 76.6641 171.195 79.6805 171.656C82.6969 172.107 86.1266 172.332 89.8666 172.266C91.7365 172.201 93.6817 172.107 95.6832 171.872C96.6887 171.778 97.7035 171.627 98.7372 171.496C99.7708 171.336 100.814 171.195 101.866 170.988C106.095 170.255 110.511 169.184 115.059 167.934C117.333 167.295 119.636 166.619 121.966 165.914C124.296 165.181 126.655 164.448 129.032 163.706C133.787 162.184 138.636 160.643 143.532 159.177C148.437 157.739 153.379 156.367 158.331 155.286C160.803 154.741 163.274 154.243 165.736 153.858C168.198 153.454 170.632 153.116 173.047 152.89C177.867 152.402 182.585 152.308 187.029 152.552C191.474 152.777 195.656 153.426 199.433 154.272C203.22 155.098 206.603 156.188 209.535 157.297C212.457 158.415 214.928 159.581 216.92 160.605C217.926 161.094 218.781 161.61 219.542 162.024C220.303 162.437 220.923 162.832 221.44 163.142C222.455 163.772 223 164.101 223 164.101C223 164.101 222.417 163.847 221.327 163.368C220.247 162.86 218.621 162.212 216.563 161.404C215.52 161.018 214.383 160.577 213.115 160.173C211.855 159.74 210.474 159.327 209.008 158.895C206.048 158.077 202.684 157.325 198.972 156.752C197.121 156.461 195.176 156.264 193.165 156.104C192.16 156.029 191.136 155.982 190.093 155.925C189.05 155.907 187.997 155.85 186.926 155.869C182.641 155.86 178.13 156.141 173.488 156.771C168.846 157.372 164.092 158.322 159.281 159.459C154.479 160.614 149.621 161.958 144.781 163.405C139.933 164.833 135.093 166.365 130.291 167.793C125.49 169.241 120.716 170.594 116.037 171.721C111.357 172.849 106.762 173.742 102.355 174.277C97.9478 174.832 93.7193 174.973 89.8385 174.803C85.9482 174.625 82.415 174.061 79.361 173.319C76.2977 172.586 73.7229 171.627 71.6556 170.763C70.6314 170.293 69.7105 169.908 68.9493 169.485C68.1788 169.081 67.5117 168.752 67.0043 168.442C65.9706 167.84 65.4256 167.512 65.4256 167.512L65.4163 167.502Z" fill="#7CADD2"/>
<path d="M187.02 152.543C188.467 152.618 189.886 152.74 191.276 152.9C193.203 152.289 195.11 151.781 196.971 151.387C199.903 150.738 202.731 150.363 205.353 150.193C207.984 150.024 210.408 150.052 212.56 150.193C214.712 150.372 216.591 150.588 218.142 150.842C219.683 151.114 220.904 151.33 221.722 151.528C222.549 151.706 222.99 151.8 222.99 151.8C222.99 151.8 222.577 151.622 221.797 151.283C221.402 151.124 220.923 150.908 220.35 150.701C219.777 150.494 219.11 150.212 218.349 149.987C216.836 149.489 214.975 148.953 212.786 148.511C210.596 148.079 208.087 147.731 205.315 147.638C203.934 147.581 202.487 147.6 200.993 147.666C199.499 147.75 197.958 147.891 196.379 148.117C193.231 148.558 189.942 149.301 186.644 150.344C184.99 150.851 183.336 151.443 181.682 152.092C181.391 152.204 181.1 152.317 180.808 152.439C182.923 152.411 184.99 152.439 187.01 152.552L187.02 152.543Z" fill="#1D3157"/>
<path d="M173.77 156.734C172.276 157.504 170.801 158.293 169.335 159.092C166.168 160.849 163.049 162.653 159.995 164.42C158.472 165.294 156.959 166.168 155.465 167.023C153.971 167.869 152.487 168.686 151.021 169.476C148.089 171.035 145.223 172.464 142.441 173.62C139.669 174.803 136.963 175.696 134.426 176.354C131.889 176.984 129.502 177.359 127.36 177.5C125.227 177.632 123.338 177.585 121.787 177.453C120.237 177.294 119.025 177.124 118.188 176.965C117.361 176.805 116.91 176.72 116.91 176.72C116.91 176.72 117.333 176.89 118.113 177.209C118.903 177.51 120.087 177.933 121.637 178.318C123.187 178.684 125.114 179.06 127.36 179.182C129.605 179.323 132.161 179.258 134.915 178.854C137.659 178.44 140.6 177.745 143.597 176.72C146.604 175.715 149.677 174.428 152.769 172.962C155.86 171.496 158.97 169.851 162.081 168.141C165.172 166.431 168.311 164.693 171.449 162.954C174.569 161.225 177.708 159.571 180.837 158.049C182.425 157.288 184.013 156.555 185.591 155.869C181.795 155.916 177.83 156.188 173.761 156.734H173.77Z" fill="#1D3157"/>
</svg>