<svg xmlns="http://www.w3.org/2000/svg" fill="none" viewBox="61.64 33.63 250.82 291.61">
<path d="M187.165 320.211L310.454 249.168L310.335 106.875L186.926 35.625L63.6371 106.668" stroke="#0096DC" stroke-width="4"/>
<path d="M190.792 322.43C187.922 320.773 186.939 317.103 188.596 314.233C190.252 311.364 193.922 310.38 196.792 312.037C199.662 313.694 200.645 317.364 198.988 320.233C197.331 323.103 193.662 324.086 190.792 322.43Z" fill="#0096DC" stroke="#0096DC" stroke-width="4"/>
<path d="M187.844 55.6815L79.338 118.085L79.5485 243.255" stroke="#0096DC" stroke-width="4"/>
<path d="M185.678 55.0549C187.165 55.9133 187.675 57.8153 186.816 59.3035C185.957 60.7916 184.054 61.301 182.568 60.4426C181.081 59.5842 180.571 57.6823 181.43 56.1941C182.289 54.7059 184.191 54.1965 185.678 55.0549Z" fill="#0096DC" stroke="#0096DC" stroke-width="4"/>
<path d="M175.833 197.888C175.956 198.576 176.115 199.318 176.318 200.095C176.522 200.872 176.742 201.667 176.981 202.48C177.219 203.292 177.475 204.087 177.749 204.873C178.023 205.659 178.297 206.4 178.57 207.089C178.809 206.568 179.056 205.923 179.321 205.173C179.586 204.422 179.851 203.628 180.116 202.789C180.381 201.95 180.628 201.111 180.857 200.254C181.087 199.398 181.272 198.612 181.431 197.879H182.765C182.262 199.989 181.723 201.905 181.131 203.645C180.54 205.385 179.895 207.036 179.188 208.599H177.934C177.723 208.114 177.511 207.566 177.272 206.966C177.043 206.365 176.804 205.72 176.566 205.04C176.318 204.352 176.089 203.636 175.859 202.886C175.63 202.135 175.418 201.367 175.206 200.572C174.994 201.367 174.782 202.135 174.552 202.886C174.323 203.645 174.093 204.36 173.846 205.049C173.599 205.738 173.369 206.374 173.139 206.974C172.91 207.575 172.698 208.114 172.486 208.599H171.188C170.481 207.036 169.828 205.385 169.245 203.645C168.653 201.905 168.115 199.98 167.62 197.879H169.051C169.201 198.612 169.395 199.406 169.625 200.254C169.854 201.102 170.102 201.95 170.366 202.78C170.631 203.619 170.896 204.413 171.17 205.155C171.444 205.906 171.691 206.542 171.93 207.063C172.194 206.374 172.459 205.632 172.724 204.846C172.989 204.06 173.236 203.257 173.475 202.462C173.705 201.658 173.925 200.863 174.137 200.086C174.34 199.3 174.526 198.567 174.694 197.879H175.859L175.833 197.888Z" fill="#7C7F80"/>
<path d="M185.723 208.617H184.372V197.896H185.723V208.617ZM186.032 194.655C186.032 194.973 185.935 195.229 185.741 195.415C185.546 195.6 185.317 195.689 185.034 195.689C184.752 195.689 184.522 195.592 184.328 195.415C184.134 195.229 184.036 194.973 184.036 194.655C184.036 194.338 184.134 194.081 184.328 193.896C184.522 193.711 184.752 193.622 185.034 193.622C185.317 193.622 185.546 193.719 185.741 193.896C185.935 194.081 186.032 194.338 186.032 194.655Z" fill="#7C7F80"/>
<path d="M189.759 197.887H194.033V199.027H189.759V204.731C189.759 205.341 189.812 205.835 189.918 206.215C190.024 206.595 190.174 206.886 190.359 207.098C190.554 207.31 190.783 207.442 191.066 207.513C191.339 207.584 191.649 207.619 191.975 207.619C192.54 207.619 193 207.557 193.344 207.425C193.688 207.292 193.962 207.169 194.157 207.063L194.492 208.184C194.298 208.308 193.962 208.449 193.477 208.608C192.991 208.767 192.47 208.846 191.896 208.846C191.234 208.846 190.677 208.758 190.227 208.59C189.776 208.414 189.414 208.158 189.149 207.804C188.876 207.451 188.69 207.01 188.584 206.489C188.478 205.968 188.417 205.341 188.417 204.625V194.753L189.768 194.505V197.905L189.759 197.887Z" fill="#7C7F80"/>
<path d="M196.029 208.608V192.757L197.38 192.51V198.197C197.821 198.029 198.272 197.905 198.731 197.808C199.19 197.72 199.64 197.676 200.1 197.676C200.93 197.676 201.619 197.79 202.175 198.029C202.731 198.267 203.173 198.594 203.5 199.035C203.835 199.468 204.065 199.989 204.197 200.599C204.33 201.208 204.391 201.879 204.391 202.612V208.608H203.04V203.045C203.04 202.285 202.987 201.641 202.89 201.12C202.784 200.59 202.616 200.166 202.369 199.83C202.122 199.503 201.804 199.265 201.407 199.115C201 198.974 200.497 198.894 199.897 198.894C199.658 198.894 199.411 198.912 199.137 198.956C198.863 199 198.616 199.044 198.378 199.088C198.139 199.141 197.936 199.194 197.742 199.247C197.548 199.3 197.433 199.345 197.38 199.371V208.599H196.029V208.608Z" fill="#7C7F80"/>
<path d="M211.959 208.608V192.925L214.467 192.51V197.879C214.741 197.781 215.068 197.702 215.43 197.631C215.801 197.561 216.163 197.525 216.525 197.525C217.399 197.525 218.115 197.649 218.689 197.887C219.263 198.135 219.722 198.47 220.066 198.903C220.411 199.336 220.658 199.857 220.799 200.466C220.94 201.075 221.02 201.755 221.02 202.497V208.599H218.512V202.895C218.512 202.312 218.477 201.817 218.397 201.411C218.318 201.005 218.194 200.669 218.026 200.413C217.85 200.157 217.62 199.972 217.329 199.857C217.037 199.742 216.675 199.68 216.251 199.68C215.924 199.68 215.58 199.715 215.236 199.786C214.891 199.857 214.635 199.919 214.467 199.972V208.599H211.959V208.608Z" fill="#7C7F80"/>
<path d="M230.098 202.117C230.098 201.773 230.054 201.446 229.957 201.137C229.86 200.828 229.718 200.554 229.533 200.325C229.347 200.095 229.118 199.919 228.853 199.786C228.579 199.654 228.261 199.592 227.89 199.592C227.519 199.592 227.166 199.662 226.875 199.813C226.583 199.954 226.336 200.148 226.142 200.378C225.939 200.616 225.789 200.881 225.674 201.19C225.559 201.49 225.488 201.808 225.444 202.126H230.107L230.098 202.117ZM222.822 203.239C222.822 202.285 222.963 201.446 223.245 200.731C223.528 200.016 223.908 199.415 224.376 198.938C224.844 198.461 225.382 198.099 225.992 197.861C226.601 197.623 227.219 197.499 227.855 197.499C229.347 197.499 230.513 197.967 231.352 198.885C232.191 199.813 232.606 201.199 232.606 203.036C232.606 203.168 232.606 203.327 232.597 203.504C232.597 203.68 232.58 203.831 232.562 203.972H225.409C225.48 204.846 225.789 205.517 226.336 205.994C226.884 206.471 227.678 206.709 228.712 206.709C229.321 206.709 229.877 206.656 230.381 206.542C230.884 206.427 231.281 206.312 231.573 206.188L231.908 208.246C231.767 208.317 231.582 208.387 231.334 208.467C231.096 208.546 230.813 208.608 230.504 208.679C230.195 208.74 229.86 208.793 229.498 208.838C229.136 208.882 228.773 208.899 228.403 208.899C227.449 208.899 226.619 208.758 225.912 208.476C225.206 208.193 224.623 207.796 224.173 207.292C223.713 206.789 223.378 206.197 223.157 205.508C222.936 204.82 222.822 204.078 222.822 203.257" fill="#7C7F80"/>
<path d="M238.434 206.851C239.211 206.851 239.794 206.807 240.2 206.727V203.945C240.059 203.901 239.864 203.866 239.599 203.822C239.334 203.778 239.052 203.76 238.725 203.76C238.451 203.76 238.169 203.778 237.886 203.822C237.604 203.866 237.348 203.937 237.118 204.051C236.888 204.166 236.712 204.316 236.57 204.519C236.429 204.722 236.367 204.97 236.367 205.279C236.367 205.87 236.553 206.286 236.924 206.515C237.295 206.745 237.807 206.86 238.434 206.86M238.231 197.508C239.061 197.508 239.758 197.614 240.324 197.817C240.889 198.029 241.348 198.311 241.683 198.691C242.019 199.062 242.266 199.521 242.408 200.051C242.549 200.581 242.628 201.164 242.628 201.799V208.378C242.24 208.458 241.657 208.564 240.871 208.679C240.094 208.793 239.211 208.855 238.231 208.855C237.577 208.855 236.985 208.793 236.447 208.67C235.908 208.546 235.449 208.343 235.069 208.069C234.689 207.796 234.389 207.434 234.177 206.992C233.965 206.55 233.859 206.003 233.859 205.349C233.859 204.696 233.983 204.201 234.221 203.778C234.469 203.345 234.795 203 235.21 202.727C235.626 202.453 236.102 202.268 236.65 202.144C237.197 202.029 237.763 201.967 238.363 201.967C238.637 201.967 238.928 201.985 239.237 202.02C239.546 202.056 239.864 202.117 240.209 202.197V201.782C240.209 201.49 240.173 201.217 240.103 200.952C240.032 200.687 239.917 200.457 239.741 200.254C239.573 200.051 239.343 199.901 239.052 199.786C238.769 199.671 238.416 199.618 237.983 199.618C237.401 199.618 236.871 199.662 236.385 199.742C235.899 199.821 235.511 199.919 235.202 200.033L234.893 198.002C235.21 197.887 235.67 197.781 236.279 197.667C236.888 197.552 237.542 197.499 238.231 197.499" fill="#7C7F80"/>
<path d="M248.784 208.82C248.033 208.811 247.415 208.723 246.929 208.573C246.435 208.423 246.046 208.202 245.755 207.919C245.464 207.637 245.26 207.283 245.146 206.86C245.031 206.436 244.969 205.959 244.969 205.42V192.933L247.477 192.518V204.943C247.477 205.243 247.503 205.5 247.548 205.712C247.592 205.915 247.68 206.091 247.804 206.241C247.927 206.383 248.095 206.497 248.316 206.577C248.528 206.656 248.802 206.709 249.137 206.754L248.784 208.829V208.82Z" fill="#7C7F80"/>
<path d="M250.374 194.903L252.882 194.488V197.764H256.741V199.857H252.882V204.272C252.882 205.146 253.023 205.764 253.297 206.135C253.57 206.506 254.047 206.692 254.71 206.692C255.169 206.692 255.566 206.648 255.919 206.55C256.273 206.453 256.555 206.365 256.758 206.277L257.173 208.264C256.882 208.387 256.502 208.52 256.034 208.652C255.566 208.785 255.01 208.846 254.374 208.846C253.597 208.846 252.952 208.74 252.431 208.537C251.91 208.325 251.504 208.025 251.195 207.637C250.895 207.239 250.674 206.762 250.55 206.206C250.427 205.65 250.365 205.005 250.365 204.29V194.894L250.374 194.903Z" fill="#7C7F80"/>
<path d="M258.569 208.608V192.925L261.077 192.51V197.879C261.35 197.781 261.677 197.702 262.039 197.631C262.41 197.561 262.772 197.525 263.134 197.525C264.008 197.525 264.724 197.649 265.298 197.887C265.872 198.135 266.331 198.47 266.675 198.903C267.02 199.336 267.267 199.857 267.408 200.466C267.549 201.075 267.629 201.755 267.629 202.497V208.599H265.121V202.895C265.121 202.312 265.086 201.817 265.006 201.411C264.927 201.005 264.803 200.669 264.635 200.413C264.459 200.157 264.229 199.972 263.938 199.857C263.646 199.742 263.284 199.68 262.86 199.68C262.534 199.68 262.189 199.715 261.845 199.786C261.5 199.857 261.244 199.919 261.077 199.972V208.599H258.569V208.608Z" fill="#7C7F80"/>
<path d="M120.27 183.714H114.689V159.606H120.27V183.714ZM120.87 152.55C120.87 153.592 120.535 154.422 119.855 155.041C119.175 155.659 118.38 155.959 117.462 155.959C116.543 155.959 115.696 155.65 115.016 155.041C114.336 154.431 114 153.592 114 152.55C114 151.508 114.336 150.634 115.016 150.016C115.696 149.398 116.508 149.098 117.462 149.098C118.415 149.098 119.184 149.407 119.855 150.016C120.535 150.634 120.87 151.473 120.87 152.55Z" fill="#0096DC"/>
<path d="M126.222 160.392C127.299 160.083 128.694 159.792 130.416 159.518C132.138 159.244 134.046 159.103 136.13 159.103C138.099 159.103 139.742 159.377 141.057 159.906C142.382 160.445 143.433 161.196 144.21 162.167C144.996 163.13 145.552 164.304 145.87 165.673C146.197 167.042 146.356 168.543 146.356 170.168V183.723H140.775V171.042C140.775 169.753 140.687 168.658 140.519 167.748C140.351 166.839 140.077 166.106 139.689 165.54C139.3 164.975 138.779 164.56 138.126 164.295C137.463 164.03 136.66 163.907 135.706 163.907C135 163.907 134.258 163.951 133.489 164.039C132.721 164.136 132.156 164.207 131.785 164.269V183.723H126.204V160.401L126.222 160.392Z" fill="#0096DC"/>
<path d="M151.76 153.248L157.341 152.33V159.615H165.915V164.269H157.341V174.089C157.341 176.022 157.65 177.409 158.268 178.239C158.877 179.069 159.928 179.484 161.403 179.484C162.418 179.484 163.319 179.378 164.105 179.157C164.891 178.945 165.509 178.742 165.968 178.557L166.887 182.981C166.242 183.255 165.394 183.546 164.352 183.838C163.31 184.129 162.074 184.27 160.661 184.27C158.939 184.27 157.509 184.041 156.352 183.582C155.204 183.122 154.285 182.451 153.614 181.577C152.934 180.703 152.457 179.643 152.184 178.398C151.91 177.153 151.769 175.731 151.769 174.133V153.248H151.76Z" fill="#0096DC"/>
<path d="M220.764 182.981C219.687 183.255 218.291 183.537 216.569 183.838C214.847 184.129 212.958 184.27 210.9 184.27C208.966 184.27 207.341 183.997 206.034 183.44C204.727 182.884 203.685 182.116 202.899 181.135C202.113 180.155 201.557 178.981 201.222 177.612C200.886 176.243 200.709 174.742 200.709 173.117V159.615H206.29V172.243C206.29 174.821 206.67 176.667 207.421 177.771C208.171 178.875 209.487 179.431 211.368 179.431C212.048 179.431 212.755 179.405 213.514 179.343C214.265 179.281 214.83 179.202 215.201 179.113V159.615H220.782V182.99L220.764 182.981Z" fill="#0096DC"/>
<path d="M225.373 171.687C225.373 169.903 225.647 168.234 226.203 166.688C226.76 165.134 227.546 163.792 228.579 162.653C229.603 161.514 230.857 160.622 232.332 159.977C233.807 159.332 235.467 159.006 237.312 159.006C239.591 159.006 241.737 159.421 243.768 160.251L242.567 164.816C241.922 164.543 241.189 164.304 240.377 164.127C239.564 163.942 238.699 163.854 237.772 163.854C235.59 163.854 233.93 164.543 232.791 165.902C231.652 167.271 231.087 169.196 231.087 171.687C231.087 174.177 231.625 175.978 232.703 177.382C233.78 178.778 235.59 179.484 238.143 179.484C239.096 179.484 240.032 179.387 240.96 179.21C241.878 179.025 242.682 178.795 243.353 178.522L244.139 183.131C243.52 183.44 242.593 183.714 241.348 183.961C240.103 184.209 238.823 184.332 237.498 184.332C235.44 184.332 233.648 184.014 232.129 183.387C230.61 182.76 229.347 181.886 228.349 180.756C227.351 179.634 226.601 178.301 226.115 176.747C225.621 175.192 225.373 173.515 225.373 171.695" fill="#0096DC"/>
<path d="M247.318 183.714V148.859L252.899 147.941V159.88C253.517 159.668 254.233 159.482 255.045 159.332C255.857 159.182 256.67 159.103 257.465 159.103C259.399 159.103 261.006 159.377 262.277 159.906C263.549 160.445 264.573 161.196 265.342 162.167C266.11 163.13 266.658 164.295 266.975 165.646C267.302 166.997 267.461 168.508 267.461 170.159V183.714H261.88V171.033C261.88 169.744 261.792 168.64 261.624 167.739C261.456 166.83 261.182 166.097 260.794 165.532C260.405 164.966 259.893 164.551 259.249 164.286C258.604 164.022 257.8 163.889 256.855 163.889C256.122 163.889 255.363 163.969 254.595 164.119C253.826 164.269 253.261 164.41 252.89 164.534V183.714H247.309H247.318Z" fill="#0096DC"/>
<path d="M194.439 179.043C193.821 179.714 193.115 180.314 192.337 180.826C190.554 181.992 188.487 182.61 186.35 182.61C185.255 182.61 184.178 182.451 183.145 182.133C180.69 181.383 178.57 179.784 177.157 177.621C175.992 175.837 175.374 173.771 175.374 171.634C175.374 170.035 175.718 168.472 176.38 167.033C174.967 168.287 173.916 169.912 173.36 171.731C173.06 172.702 172.91 173.718 172.91 174.751C172.91 176.755 173.484 178.707 174.579 180.376C176.495 183.317 179.727 185.065 183.224 185.065C183.365 185.065 183.524 185.065 183.701 185.056C187.11 184.942 190.315 183.546 192.726 181.136C193.371 180.491 193.936 179.793 194.43 179.051" fill="#0096DC"/>
<path d="M174.041 180.729C172.875 178.946 172.257 176.879 172.257 174.742C172.257 173.647 172.416 172.57 172.734 171.536C173.484 169.082 175.083 166.953 177.246 165.549C179.03 164.384 181.096 163.765 183.233 163.765C184.832 163.765 186.395 164.11 187.834 164.772C186.58 163.359 184.955 162.308 183.136 161.752C182.165 161.452 181.149 161.302 180.125 161.302C178.12 161.302 176.169 161.876 174.491 162.971C171.727 164.772 169.978 167.81 169.811 171.086C169.811 171.263 169.802 171.439 169.802 171.616C169.802 171.757 169.802 171.907 169.811 172.093C169.934 175.502 171.321 178.707 173.74 181.118C174.385 181.763 175.083 182.328 175.824 182.822C175.153 182.204 174.553 181.498 174.041 180.72" fill="#0096DC"/>
<path d="M172.036 164.225C172.654 163.545 173.36 162.944 174.137 162.441C175.921 161.275 177.987 160.657 180.125 160.657C181.22 160.657 182.297 160.816 183.33 161.134C185.785 161.884 187.913 163.483 189.317 165.646C190.483 167.43 191.101 169.497 191.101 171.634C191.101 173.232 190.757 174.795 190.086 176.234C191.499 174.98 192.549 173.356 193.106 171.536C193.406 170.556 193.556 169.541 193.556 168.525C193.556 166.521 192.973 164.569 191.878 162.891C189.962 159.951 186.73 158.202 183.233 158.202C183.101 158.202 182.95 158.202 182.774 158.211C179.374 158.326 176.177 159.712 173.758 162.114C173.104 162.768 172.521 163.474 172.027 164.225" fill="#0096DC"/>
<path d="M192.435 162.529C193.6 164.313 194.218 166.379 194.218 168.516C194.218 169.611 194.059 170.689 193.742 171.722C192.991 174.177 191.393 176.305 189.229 177.709C187.445 178.875 185.37 179.493 183.242 179.493C181.643 179.493 180.08 179.149 178.641 178.486C179.895 179.899 181.52 180.95 183.339 181.506C184.31 181.807 185.335 181.957 186.359 181.957C188.364 181.957 190.315 181.383 191.984 180.288C194.925 178.372 196.673 175.139 196.673 171.642C196.673 171.457 196.673 171.272 196.665 171.104C196.532 167.704 195.128 164.516 192.717 162.114C192.081 161.478 191.393 160.922 190.66 160.436C191.331 161.054 191.931 161.761 192.443 162.538" fill="#0096DC"/>
</svg>