<svg width="154" height="61" viewBox="0 0 154 61" fill="none" xmlns="http://www.w3.org/2000/svg">
<path d="M62.0183 49.9468C62.1419 50.6356 62.3009 51.3774 62.504 52.1545C62.7071 52.9316 62.9278 53.7264 63.1663 54.5388C63.4047 55.3513 63.6608 56.146 63.9345 56.932C64.2083 57.7179 64.4821 58.4597 64.7558 59.1485C64.9942 58.6275 65.2415 57.9828 65.5064 57.2322C65.7713 56.4816 66.0363 55.6868 66.3012 54.8479C66.5661 54.009 66.8134 53.17 67.043 52.3135C67.2726 51.4569 67.458 50.6709 67.617 49.938H68.9504C68.4471 52.0485 67.9084 53.9648 67.3167 55.7045C66.7251 57.4441 66.0804 59.0955 65.374 60.6585H64.12C63.9081 60.1729 63.6961 59.6253 63.4577 59.0249C63.2281 58.4244 62.9897 57.7797 62.7512 57.0998C62.504 56.411 62.2744 55.6957 62.0448 54.945C61.8152 54.1944 61.6032 53.4262 61.3913 52.6314C61.1794 53.4262 60.9674 54.1944 60.7378 54.945C60.5082 55.7045 60.2786 56.4198 60.0314 57.1086C59.7841 57.7974 59.5545 58.4332 59.3249 59.0337C59.0953 59.6342 58.8834 60.1729 58.6714 60.6585H57.3733C56.6668 59.0955 56.0134 57.4441 55.4305 55.7045C54.8389 53.9648 54.3002 52.0397 53.8057 49.938H55.2363C55.3864 50.6709 55.5806 51.4657 55.8102 52.3135C56.0398 53.1612 56.2871 54.009 56.552 54.8391C56.817 55.678 57.0819 56.4728 57.3556 57.2146C57.6294 57.9652 57.8766 58.601 58.1151 59.122C58.38 58.4332 58.6449 57.6914 58.9098 56.9055C59.1748 56.1195 59.422 55.3159 59.6605 54.5212C59.8901 53.7176 60.1108 52.9228 60.3228 52.1457C60.5259 51.3597 60.7113 50.6268 60.8791 49.938H62.0448L62.0183 49.9468Z" fill="#7C7F80"/>
<path d="M71.9086 60.6761H70.5575V49.9556H71.9086V60.6761ZM72.2177 46.7147C72.2177 47.0326 72.1205 47.2887 71.9262 47.4742C71.732 47.6596 71.5024 47.7479 71.2198 47.7479C70.9372 47.7479 70.7076 47.6508 70.5133 47.4742C70.3191 47.2887 70.2219 47.0326 70.2219 46.7147C70.2219 46.3968 70.3191 46.1407 70.5133 45.9553C70.7076 45.7698 70.9372 45.6815 71.2198 45.6815C71.5024 45.6815 71.732 45.7787 71.9262 45.9553C72.1205 46.1407 72.2177 46.3968 72.2177 46.7147Z" fill="#7C7F80"/>
<path d="M75.9443 49.9467H80.2184V51.0859H75.9443V56.7906C75.9443 57.3999 75.9972 57.8944 76.1032 58.2741C76.2092 58.6539 76.3593 58.9453 76.5448 59.1572C76.739 59.3692 76.9686 59.5016 77.2512 59.5723C77.525 59.6429 77.834 59.6782 78.1608 59.6782C78.726 59.6782 79.1852 59.6164 79.5296 59.484C79.874 59.3515 80.1477 59.2279 80.342 59.1219L80.6776 60.2434C80.4833 60.3671 80.1477 60.5084 79.662 60.6673C79.1763 60.8263 78.6553 60.9057 78.0813 60.9057C77.419 60.9057 76.8627 60.8174 76.4123 60.6496C75.9619 60.473 75.5999 60.2169 75.3349 59.8637C75.0612 59.5105 74.8757 59.0689 74.7698 58.5479C74.6638 58.0269 74.602 57.3999 74.602 56.6846V46.8118L75.9531 46.5646V49.9644L75.9443 49.9467Z" fill="#7C7F80"/>
<path d="M82.2142 60.6673V44.8161L83.5653 44.5688V50.2559C84.0068 50.0881 84.4572 49.9644 84.9164 49.8673C85.3756 49.779 85.8259 49.7349 86.2851 49.7349C87.1152 49.7349 87.804 49.8496 88.3604 50.0881C88.9167 50.3265 89.3582 50.6533 89.685 51.0948C90.0206 51.5275 90.2502 52.0485 90.3826 52.6578C90.5151 53.2672 90.5769 53.9383 90.5769 54.6712V60.6673H89.2258V55.1039C89.2258 54.3445 89.1728 53.6999 89.0757 53.1788C88.9697 52.649 88.8019 52.2251 88.5546 51.8896C88.3074 51.5628 87.9895 51.3244 87.5921 51.1743C87.1859 51.033 86.6825 50.9535 86.082 50.9535C85.8436 50.9535 85.5963 50.9711 85.3226 51.0153C85.0488 51.0594 84.8016 51.1036 84.5631 51.1478C84.3247 51.2008 84.1216 51.2537 83.9273 51.3067C83.733 51.3597 83.6183 51.4039 83.5653 51.4303V60.6585H82.2142V60.6673Z" fill="#7C7F80"/>
<path d="M98.145 60.6673V44.9839L100.653 44.5688V49.9379C100.927 49.8408 101.253 49.7613 101.615 49.6907C101.986 49.62 102.348 49.5847 102.71 49.5847C103.585 49.5847 104.3 49.7083 104.874 49.9468C105.448 50.194 105.907 50.5296 106.252 50.9623C106.596 51.395 106.843 51.9161 106.985 52.5254C107.126 53.1347 107.205 53.8147 107.205 54.5564V60.6585H104.697V54.9538C104.697 54.371 104.662 53.8765 104.583 53.4702C104.503 53.064 104.379 52.7285 104.212 52.4724C104.035 52.2163 103.805 52.0309 103.514 51.9161C103.223 51.8013 102.861 51.7394 102.437 51.7394C102.11 51.7394 101.766 51.7747 101.421 51.8454C101.077 51.916 100.821 51.9779 100.653 52.0309V60.6585H98.145V60.6673Z" fill="#7C7F80"/>
<path d="M116.284 54.1767C116.284 53.8323 116.239 53.5056 116.142 53.1965C116.045 52.8874 115.904 52.6137 115.718 52.3841C115.533 52.1545 115.303 51.9779 115.038 51.8454C114.765 51.7129 114.447 51.6511 114.076 51.6511C113.705 51.6511 113.352 51.7218 113.06 51.8719C112.769 52.0132 112.522 52.2075 112.327 52.4371C112.124 52.6755 111.974 52.9404 111.859 53.2495C111.745 53.5497 111.674 53.8677 111.63 54.1856H116.292L116.284 54.1767ZM109.007 55.2982C109.007 54.3445 109.148 53.5056 109.431 52.7903C109.714 52.075 110.093 51.4745 110.561 50.9976C111.029 50.5208 111.568 50.1587 112.177 49.9203C112.787 49.6819 113.405 49.5582 114.041 49.5582C115.533 49.5582 116.699 50.0263 117.538 50.9447C118.377 51.8719 118.792 53.2583 118.792 55.0951C118.792 55.2276 118.792 55.3865 118.783 55.5632C118.783 55.7398 118.765 55.8899 118.747 56.0312H111.594C111.665 56.9054 111.974 57.5766 112.522 58.0534C113.069 58.5303 113.864 58.7687 114.897 58.7687C115.507 58.7687 116.063 58.7157 116.566 58.6009C117.07 58.4861 117.467 58.3713 117.758 58.2477L118.094 60.3053C117.953 60.3759 117.767 60.4466 117.52 60.526C117.281 60.6055 116.999 60.6673 116.69 60.738C116.381 60.7998 116.045 60.8528 115.683 60.8969C115.321 60.9411 114.959 60.9587 114.588 60.9587C113.634 60.9587 112.804 60.8174 112.098 60.5349C111.391 60.2523 110.809 59.8549 110.358 59.3515C109.899 58.8482 109.563 58.2565 109.343 57.5677C109.122 56.8789 109.007 56.1372 109.007 55.3159" fill="#7C7F80"/>
<path d="M124.619 58.91C125.396 58.91 125.979 58.8659 126.385 58.7864V56.0047C126.244 55.9605 126.05 55.9252 125.785 55.8811C125.52 55.8369 125.237 55.8192 124.911 55.8192C124.637 55.8192 124.354 55.8369 124.072 55.8811C123.789 55.9252 123.533 55.9959 123.303 56.1107C123.074 56.2255 122.897 56.3756 122.756 56.5787C122.615 56.7818 122.553 57.0291 122.553 57.3381C122.553 57.9298 122.738 58.3448 123.109 58.5744C123.48 58.804 123.992 58.9188 124.619 58.9188M124.416 49.5671C125.246 49.5671 125.944 49.673 126.509 49.8761C127.074 50.0881 127.533 50.3707 127.869 50.7504C128.204 51.1213 128.452 51.5805 128.593 52.1103C128.734 52.6402 128.814 53.223 128.814 53.8588V60.4377C128.425 60.5172 127.842 60.6232 127.057 60.738C126.279 60.8528 125.396 60.9146 124.416 60.9146C123.763 60.9146 123.171 60.8528 122.632 60.7291C122.094 60.6055 121.634 60.4024 121.255 60.1287C120.875 59.8549 120.575 59.4928 120.363 59.0513C120.151 58.6098 120.045 58.0623 120.045 57.4088C120.045 56.7553 120.169 56.2608 120.407 55.8369C120.654 55.4042 120.981 55.0598 121.396 54.7861C121.811 54.5123 122.288 54.3268 122.835 54.2032C123.383 54.0884 123.948 54.0266 124.549 54.0266C124.822 54.0266 125.114 54.0443 125.423 54.0796C125.732 54.1149 126.05 54.1767 126.394 54.2562V53.8412C126.394 53.5497 126.359 53.276 126.288 53.0111C126.218 52.7461 126.103 52.5165 125.926 52.3134C125.758 52.1103 125.529 51.9602 125.237 51.8454C124.955 51.7306 124.602 51.6776 124.169 51.6776C123.586 51.6776 123.056 51.7218 122.57 51.8012C122.085 51.8807 121.696 51.9779 121.387 52.0927L121.078 50.0616C121.396 49.9468 121.855 49.8408 122.465 49.726C123.074 49.6112 123.727 49.5582 124.416 49.5582" fill="#7C7F80"/>
<path d="M134.969 60.8793C134.219 60.8705 133.601 60.7822 133.115 60.6321C132.62 60.482 132.232 60.2612 131.94 59.9786C131.649 59.696 131.446 59.3428 131.331 58.9189C131.216 58.495 131.155 58.0182 131.155 57.4795V44.9928L133.662 44.5778V57.0026C133.662 57.3029 133.689 57.559 133.733 57.7709C133.777 57.974 133.866 58.1506 133.989 58.3007C134.113 58.442 134.281 58.5568 134.501 58.6363C134.713 58.7158 134.987 58.7688 135.323 58.8129L134.969 60.8882V60.8793Z" fill="#7C7F80"/>
<path d="M136.559 46.962L139.067 46.547V49.8232H142.926V51.9161H139.067V56.3315C139.067 57.2057 139.208 57.8239 139.482 58.1948C139.756 58.5657 140.233 58.7511 140.895 58.7511C141.354 58.7511 141.752 58.707 142.105 58.6098C142.458 58.5127 142.741 58.4244 142.944 58.3361L143.359 60.323C143.067 60.4466 142.688 60.5791 142.22 60.7115C141.752 60.844 141.195 60.9058 140.56 60.9058C139.782 60.9058 139.138 60.7999 138.617 60.5967C138.096 60.3848 137.69 60.0846 137.38 59.696C137.08 59.2986 136.859 58.8218 136.736 58.2654C136.612 57.7091 136.55 57.0644 136.55 56.3491V46.9532L136.559 46.962Z" fill="#7C7F80"/>
<path d="M144.754 60.6673V44.9839L147.262 44.5688V49.9379C147.536 49.8408 147.863 49.7613 148.225 49.6907C148.596 49.62 148.958 49.5847 149.32 49.5847C150.194 49.5847 150.909 49.7083 151.483 49.9468C152.057 50.194 152.516 50.5296 152.861 50.9623C153.205 51.395 153.452 51.9161 153.594 52.5254C153.735 53.1347 153.814 53.8147 153.814 54.5564V60.6585H151.307V54.9538C151.307 54.371 151.271 53.8765 151.192 53.4702C151.112 53.064 150.989 52.7285 150.821 52.4724C150.644 52.2163 150.415 52.0309 150.123 51.9161C149.832 51.8013 149.47 51.7394 149.046 51.7394C148.719 51.7394 148.375 51.7747 148.03 51.8454C147.686 51.916 147.43 51.9779 147.262 52.0309V60.6585H144.754V60.6673Z" fill="#7C7F80"/>
<path d="M6.45537 35.7735H0.874323V11.6655H6.45537V35.7735ZM7.05586 4.60969C7.05586 5.65172 6.72029 6.48182 6.04032 7.09997C5.36035 7.71813 4.56558 8.01835 3.64718 8.01835C2.72878 8.01835 1.88103 7.7093 1.20106 7.09997C0.521094 6.49065 0.185524 5.65172 0.185524 4.60969C0.185524 3.56766 0.521094 2.69342 1.20106 2.07527C1.88103 1.45711 2.69346 1.15686 3.64718 1.15686C4.6009 1.15686 5.36918 1.46594 6.04032 2.07527C6.72029 2.69342 7.05586 3.53234 7.05586 4.60969Z" fill="#0096DC"/>
<path d="M12.4073 12.4514C13.4846 12.1423 14.8799 11.8509 16.6019 11.5772C18.3239 11.3034 20.2313 11.1621 22.3154 11.1621C24.2847 11.1621 25.9272 11.4358 27.243 11.9657C28.5676 12.5044 29.6184 13.255 30.3955 14.2264C31.1815 15.1889 31.7378 16.3634 32.0557 17.7322C32.3825 19.1009 32.5414 20.6022 32.5414 22.2271V35.7823H26.9604V23.1013C26.9604 21.812 26.8721 20.717 26.7043 19.8074C26.5365 18.8978 26.2628 18.1649 25.8742 17.5997C25.4856 17.0345 24.9646 16.6195 24.3111 16.3546C23.6488 16.0897 22.8452 15.966 21.8915 15.966C21.1851 15.966 20.4433 16.0102 19.675 16.0985C18.9067 16.1956 18.3416 16.2663 17.9707 16.3281V35.7823H12.3896V12.4602L12.4073 12.4514Z" fill="#0096DC"/>
<path d="M37.9453 5.30732L43.5264 4.38892V11.6743H52.101V16.3281H43.5264V26.1479C43.5264 28.0819 43.8354 29.4683 44.4536 30.2984C45.0629 31.1285 46.1138 31.5435 47.5885 31.5435C48.6041 31.5435 49.5048 31.4375 50.2907 31.2168C51.0767 31.0048 51.6948 30.8017 52.154 30.6163L53.0724 35.0405C52.4278 35.3142 51.58 35.6057 50.538 35.8971C49.496 36.1885 48.2597 36.3298 46.8467 36.3298C45.1247 36.3298 43.6941 36.1002 42.5373 35.641C41.3893 35.1818 40.4709 34.5106 39.7998 33.6364C39.1198 32.7622 38.643 31.7025 38.3692 30.4573C38.0954 29.2122 37.9541 27.7904 37.9541 26.1921V5.30732H37.9453Z" fill="#0096DC"/>
<path d="M106.95 35.0405C105.872 35.3143 104.477 35.5968 102.755 35.8971C101.033 36.1885 99.1431 36.3298 97.0856 36.3298C95.1516 36.3298 93.5267 36.0561 92.2198 35.4997C90.9128 34.9434 89.8708 34.1751 89.0849 33.1949C88.2989 32.2147 87.7426 31.0402 87.407 29.6714C87.0715 28.3026 86.8948 26.8014 86.8948 25.1766V11.6743H92.4759V24.3023C92.4759 26.8809 92.8556 28.7265 93.6062 29.8304C94.3568 30.9342 95.6726 31.4906 97.5536 31.4906C98.2336 31.4906 98.94 31.4641 99.6995 31.4022C100.45 31.3404 101.015 31.2609 101.386 31.1726V11.6743H106.967V35.0493L106.95 35.0405Z" fill="#0096DC"/>
<path d="M111.559 23.7459C111.559 21.9621 111.833 20.2931 112.389 18.7477C112.945 17.1935 113.731 15.8512 114.764 14.7121C115.789 13.5729 117.043 12.681 118.517 12.0363C119.992 11.3917 121.652 11.0649 123.498 11.0649C125.776 11.0649 127.922 11.48 129.953 12.3101L128.752 16.8756C128.108 16.6018 127.375 16.3634 126.562 16.1868C125.75 16.0013 124.884 15.913 123.957 15.913C121.776 15.913 120.116 16.6018 118.977 17.9618C117.837 19.3305 117.272 21.2557 117.272 23.7459C117.272 26.2362 117.811 28.0377 118.888 29.4418C119.966 30.837 121.776 31.5435 124.328 31.5435C125.282 31.5435 126.218 31.4464 127.145 31.2697C128.064 31.0843 128.867 30.8547 129.538 30.5809L130.324 35.1906C129.706 35.4997 128.779 35.7734 127.534 36.0207C126.289 36.268 125.008 36.3916 123.683 36.3916C121.626 36.3916 119.833 36.0737 118.314 35.4467C116.795 34.8197 115.533 33.9455 114.535 32.8151C113.537 31.6936 112.786 30.3602 112.301 28.8059C111.806 27.2517 111.559 25.5739 111.559 23.7547" fill="#0096DC"/>
<path d="M133.504 35.7734V0.918407L139.085 0V11.9392C139.703 11.7272 140.418 11.5418 141.231 11.3917C142.043 11.2416 142.855 11.1621 143.65 11.1621C145.584 11.1621 147.191 11.4358 148.463 11.9657C149.735 12.5044 150.759 13.255 151.527 14.2264C152.296 15.1889 152.843 16.3546 153.161 17.7057C153.488 19.0568 153.647 20.5669 153.647 22.2182V35.7734H148.066V23.0924C148.066 21.8032 147.977 20.6993 147.81 19.7986C147.642 18.889 147.368 18.1561 146.979 17.5909C146.591 17.0257 146.079 16.6107 145.434 16.3458C144.789 16.0808 143.986 15.9484 143.041 15.9484C142.308 15.9484 141.549 16.0278 140.78 16.178C140.012 16.3281 139.447 16.4694 139.076 16.593V35.7734H133.495H133.504Z" fill="#0096DC"/>
<path d="M80.6247 31.102C80.0066 31.7731 79.3001 32.3736 78.523 32.8858C76.7392 34.0515 74.6728 34.6696 72.5358 34.6696C71.4407 34.6696 70.3634 34.5107 69.3302 34.1928C66.8752 33.4422 64.7559 31.8438 63.3429 29.6803C62.1773 27.8965 61.5591 25.83 61.5591 23.693C61.5591 22.0946 61.9035 20.5316 62.5658 19.0922C61.1529 20.3461 60.102 21.971 59.5457 23.7901C59.2455 24.7615 59.0953 25.7771 59.0953 26.8103C59.0953 28.8149 59.6693 30.7664 60.7643 32.4355C62.6806 35.3761 65.9127 37.1246 69.4097 37.1246C69.551 37.1246 69.7099 37.1246 69.8865 37.1158C73.2952 37.001 76.5008 35.6057 78.9116 33.1949C79.5562 32.5502 80.1214 31.8526 80.6159 31.1108" fill="#0096DC"/>
<path d="M60.226 32.7886C59.0603 31.0048 58.4422 28.9384 58.4422 26.8014C58.4422 25.7064 58.6011 24.629 58.9191 23.5958C59.6697 21.1409 61.268 19.0126 63.4316 17.6086C65.2154 16.4429 67.2818 15.8248 69.4188 15.8248C71.0172 15.8248 72.5802 16.1691 74.0197 16.8314C72.7657 15.4185 71.1408 14.3677 69.3217 13.8113C68.3503 13.5111 67.3348 13.361 66.3104 13.361C64.3058 13.361 62.3542 13.9349 60.6764 15.03C57.9123 16.8314 56.1639 19.8692 55.9961 23.1454C55.9961 23.3221 55.9872 23.4987 55.9872 23.6753C55.9872 23.8166 55.9872 23.9667 55.9961 24.1522C56.1197 27.5608 57.5061 30.7664 59.9258 33.1772C60.5704 33.8218 61.268 34.387 62.0098 34.8815C61.3387 34.2634 60.7382 33.5569 60.226 32.7798" fill="#0096DC"/>
<path d="M58.2211 16.2839C58.8393 15.604 59.5457 15.0035 60.3228 14.5001C62.1066 13.3345 64.173 12.7163 66.3101 12.7163C67.4051 12.7163 68.4825 12.8753 69.5157 13.1932C71.9706 13.9438 74.0988 15.5421 75.5029 17.7057C76.6686 19.4895 77.2867 21.5559 77.2867 23.6929C77.2867 25.2913 76.9423 26.8544 76.2712 28.2938C77.6841 27.0398 78.735 25.4149 79.2913 23.5958C79.5915 22.6156 79.7417 21.6001 79.7417 20.5845C79.7417 18.5799 79.1588 16.6283 78.0638 14.9505C76.1476 12.0098 72.9155 10.2614 69.4185 10.2614C69.2861 10.2614 69.1359 10.2614 68.9593 10.2702C65.5595 10.385 62.3627 11.7714 59.9431 14.1734C59.2896 14.8269 58.7068 15.5333 58.2123 16.2839" fill="#0096DC"/>
<path d="M78.6202 14.5884C79.7859 16.3722 80.404 18.4386 80.404 20.5756C80.404 21.6706 80.2451 22.748 79.9271 23.7812C79.1765 26.2362 77.5782 28.3644 75.4146 29.7685C73.6308 30.9341 71.5556 31.5523 69.4274 31.5523C67.829 31.5523 66.266 31.2079 64.8265 30.5456C66.0805 31.9585 67.7054 33.0094 69.5245 33.5657C70.4959 33.8659 71.5203 34.0161 72.5446 34.0161C74.5492 34.0161 76.5008 33.4421 78.1698 32.347C81.1105 30.4308 82.859 27.1987 82.859 23.7017C82.859 23.5163 82.859 23.3308 82.8501 23.1631C82.7177 19.7632 81.3136 16.5753 78.9028 14.1733C78.267 13.5375 77.5782 12.9812 76.8452 12.4955C77.5164 13.1136 78.1168 13.8201 78.629 14.5972" fill="#0096DC"/>
</svg>
