<svg width="260" height="49" viewBox="0 0 260 49" fill="none" xmlns="http://www.w3.org/2000/svg">
<path d="M33.833 14.3609C32.1504 12.6345 32.1504 9.84777 33.833 8.1214C35.647 6.26359 35.647 3.25778 33.833 1.39997C32.0278 -0.457851 29.092 -0.466613 27.2693 1.37368C27.2693 1.37368 27.2517 1.3912 27.243 1.39997C25.5604 3.12633 22.8263 3.12633 21.135 1.39997C19.3297 -0.457851 16.394 -0.466613 14.5713 1.37368C14.5713 1.37368 14.5538 1.3912 14.545 1.39997C12.731 3.25778 12.731 6.26359 14.545 8.1214C16.359 9.97922 19.3122 9.97922 21.1262 8.1214C22.8088 6.39504 25.5429 6.39504 27.2342 8.1214C28.9168 9.84777 28.9168 12.6345 27.2342 14.3609C25.4202 16.2187 25.4202 19.2332 27.2342 21.0911C28.9168 22.8174 28.9168 25.6042 27.2342 27.3305C25.797 28.7502 25.4202 30.9585 26.3141 32.7901C27.4621 35.1474 30.2663 36.1113 32.5711 34.9371C33.018 34.7092 33.4299 34.4113 33.7892 34.0432C35.4717 32.3168 38.2059 32.3168 39.8972 34.0432C41.7112 35.901 44.6556 35.901 46.4696 34.0432C48.2836 32.1942 48.3012 29.1971 46.4959 27.3393C46.4959 27.3393 46.4784 27.3218 46.4696 27.313C44.7871 25.5866 44.7871 22.7999 46.4696 21.0735C48.2836 19.2245 48.3012 16.2274 46.4959 14.3696C46.4959 14.3696 46.4784 14.3521 46.4696 14.3433C44.6556 12.4855 41.7112 12.4855 39.8972 14.3433C38.0832 16.2012 38.0832 19.2157 39.8972 21.0735C41.5797 22.7999 41.5797 25.5866 39.8972 27.313C38.2146 29.0394 35.4805 29.0394 33.7892 27.313C32.1066 25.5866 32.1066 22.7999 33.7892 21.0735C35.6032 19.2245 35.6207 16.2187 33.8155 14.3521L33.833 14.3609Z" fill="#50B9B2"/>
<path d="M21.143 40.2917C19.329 38.4339 16.3758 38.4339 14.5618 40.2917C12.7478 42.1495 12.7478 45.1553 14.5618 47.0131C16.367 48.8709 19.3027 48.8797 21.1255 47.0394C21.1255 47.0394 21.143 47.0219 21.1518 47.0131C22.9658 45.1553 22.9658 42.1495 21.1518 40.2917H21.143ZM21.143 21.0826C22.957 19.2247 22.957 16.2102 21.143 14.3523C19.329 12.4945 16.3758 12.4945 14.5618 14.3523C12.888 16.0787 10.1714 16.0875 8.48004 14.3786C8.48004 14.3786 8.46252 14.3611 8.45375 14.3523C6.63975 12.4945 3.69529 12.4945 1.88129 14.3523C0.0672874 16.2014 0.0497618 19.1984 1.855 21.0563C1.855 21.0563 1.87252 21.0738 1.88129 21.0826C3.56384 22.8089 3.56384 25.5956 1.88129 27.322C0.0672874 29.1711 0.0497618 32.1681 1.855 34.0259C1.855 34.0259 1.87252 34.0435 1.88129 34.0522C3.69529 35.91 6.63975 35.91 8.45375 34.0522C10.1363 32.3258 12.8704 32.3258 14.5618 34.0522C16.3758 35.91 19.329 35.91 21.143 34.0522C22.8256 32.3258 25.5597 32.3258 27.251 34.0522C28.9336 35.7786 28.9336 38.5653 27.251 40.2917C25.437 42.1495 25.437 45.1553 27.251 47.0131C29.0562 48.8709 31.9919 48.8797 33.8147 47.0394C33.8147 47.0394 33.8322 47.0219 33.841 47.0131C35.655 45.1553 35.655 42.1495 33.841 40.2917C32.1584 38.5653 32.1584 35.7786 33.841 34.0522C35.655 32.1944 35.655 29.1798 33.841 27.322C32.027 25.4642 29.0738 25.4642 27.2598 27.322C25.5772 29.0484 22.8431 29.0484 21.1518 27.322C19.3378 25.4642 16.3845 25.4642 14.5705 27.322C12.888 29.0484 10.1538 29.0484 8.46252 27.322C6.77997 25.5956 6.77997 22.8089 8.46252 21.0826C10.1451 19.3562 12.8792 19.3562 14.5705 21.0826C16.3845 22.9404 19.3378 22.9404 21.1518 21.0826H21.143Z" fill="#156DB2"/>
<path d="M21.1399 21.0913C22.9539 19.2335 22.9539 16.219 21.1399 14.3611C19.3259 12.5033 16.3726 12.5033 14.5586 14.3611C12.7446 16.219 12.7446 19.2335 14.5586 21.0913C16.3726 22.9492 19.3259 22.9492 21.1399 21.0913Z" fill="#50B9B2"/>
<path d="M75.6062 15.6929C75.6325 16.245 75.2294 16.7182 74.6861 16.7795C74.3794 16.7795 74.1778 16.7182 73.4592 16.2975C72.3813 15.6228 71.1457 15.2635 69.8838 15.246C67.36 15.246 65.5109 16.5692 65.5109 18.3657C65.5109 19.9518 66.7991 21.1787 72.1009 24.5613C75.2119 26.5594 76.1057 27.7336 76.1057 29.977C76.1057 33.2195 73.2927 35.4891 69.2529 35.4891C66.2733 35.4891 62.8381 33.8329 62.8381 32.4132C62.8206 31.8699 63.2237 31.4054 63.7583 31.3616C64.0445 31.3616 64.8595 31.6742 66.2032 32.2993C67.2373 32.7988 68.3765 33.0617 69.5245 33.0792C72.0308 33.1143 73.8623 31.8611 73.8623 30.1085C73.8185 29.1358 73.3102 28.2331 72.504 27.7073C72.0133 27.3218 70.652 26.3636 68.4203 24.833C67.0094 23.9742 65.7125 22.9401 64.5557 21.7483C63.7057 20.8544 63.2412 19.6451 63.2588 18.392C63.2588 15.281 66.0104 12.9149 69.6735 12.9149C72.5917 12.9149 75.6062 14.2995 75.6062 15.6841V15.6929Z" fill="#156DB2"/>
<path d="M84.676 16.9811C82.6254 19.1456 81.863 19.7941 81.3022 19.7941C80.7413 19.7152 80.3207 19.242 80.2769 18.6724C80.4521 18.0502 80.8114 17.4894 81.3022 17.0775L83.195 15.1233C85.0266 13.2479 85.4472 12.9237 86.0431 12.9237C86.639 12.9237 86.9632 13.432 86.9632 14.9217V34.2535C86.9632 34.902 86.4462 35.4278 85.8152 35.4278C85.1843 35.4278 84.6673 34.902 84.6673 34.2535V16.9986L84.676 16.9811Z" fill="#156DB2"/>
<path d="M103.816 33.1581C104.447 33.0968 104.999 33.5787 105.06 34.2185C105.113 34.867 104.648 35.4278 104.017 35.4891C103.947 35.4891 103.877 35.4891 103.816 35.4891H95.5607C94.5091 35.4891 93.8781 35.1561 93.8781 34.5515C93.8781 34.1746 93.9745 33.9468 94.5354 33.088L100.696 23.3169C102.747 20.0658 102.878 19.759 102.878 18.4708C102.896 16.7269 101.537 15.2985 99.8284 15.2722C99.7233 15.2722 99.6269 15.2722 99.5217 15.281C98.102 15.281 97.2433 15.8857 96.3757 17.5069C95.9112 18.4445 95.5782 18.6987 95.0875 18.6987C94.4127 18.6812 93.8781 18.1028 93.8957 17.4192C94.0534 16.1486 94.7457 15.0093 95.7885 14.2995C96.9015 13.4057 98.2773 12.9149 99.697 12.9149C102.939 12.9149 105.262 15.1583 105.262 18.2693C105.262 19.9957 104.894 21.0823 103.64 23.0015L97.1469 33.1581H103.824H103.816Z" fill="#156DB2"/>
<path d="M127.123 15.6929C127.15 16.245 126.747 16.7182 126.203 16.7796C125.905 16.7796 125.713 16.7182 124.976 16.2976C123.899 15.6228 122.663 15.2635 121.401 15.246C118.886 15.246 117.028 16.5692 117.028 18.3657C117.028 19.9519 118.325 21.1787 123.618 24.5613C126.738 26.5594 127.623 27.7337 127.623 29.9771C127.623 33.2195 124.81 35.4892 120.761 35.4892C117.782 35.4892 114.347 33.8329 114.347 32.4133C114.329 31.8699 114.732 31.4055 115.267 31.3617C115.553 31.3617 116.371 31.6742 117.72 32.2993C118.754 32.7988 119.885 33.0617 121.033 33.0793C123.548 33.0793 125.371 31.8349 125.371 30.0735C125.327 29.1007 124.819 28.1981 124.012 27.6723C123.522 27.2867 122.166 26.3286 119.946 24.798C118.518 23.9567 117.203 22.9314 116.02 21.7571C115.17 20.8632 114.706 19.6539 114.723 18.4008C114.723 15.2898 117.475 12.9237 121.138 12.9237C124.1 12.9237 127.115 14.3083 127.115 15.6929H127.123Z" fill="#848585"/>
<path d="M130.999 20.3639C130.885 18.4797 131.489 16.6219 132.69 15.1847C133.996 13.7388 135.827 12.9151 137.746 12.9151C141.392 12.8625 144.389 15.8332 144.441 19.5576C144.441 19.6803 144.441 19.803 144.441 19.9169V28.4787C144.512 32.2644 141.567 35.3929 137.869 35.4718C135.959 35.5068 134.118 34.7181 132.821 33.2809C131.533 31.8262 130.885 29.8895 131.034 27.9266L130.999 20.3463V20.3639ZM142.128 20.2587C142.233 18.9968 141.856 17.7436 141.068 16.7709C140.2 15.8069 138.973 15.2636 137.694 15.2811C136.423 15.2636 135.205 15.8245 134.364 16.806C133.61 17.8313 133.251 19.1019 133.338 20.3814V27.9353C133.338 29.8107 133.698 30.9411 134.556 31.8262C135.424 32.6587 136.581 33.1232 137.773 33.1057C139.096 33.1232 140.349 32.5448 141.208 31.5195C141.909 30.5293 142.233 29.3199 142.128 28.1018V20.2499V20.2587Z" fill="#848585"/>
<path d="M159.176 33.1585C159.807 33.0971 160.359 33.5791 160.42 34.2188C160.473 34.8673 160.008 35.4282 159.377 35.4895C159.307 35.4895 159.237 35.4895 159.176 35.4895H150.772C150.132 35.621 149.51 35.2003 149.378 34.5431C149.343 34.3853 149.343 34.2276 149.378 34.0786V14.1772C149.317 13.5287 149.79 12.9679 150.421 12.9065C151.052 12.8452 151.604 13.3272 151.665 13.9669C151.665 14.037 151.665 14.1071 151.665 14.1772V33.1585H159.184H159.176Z" fill="#848585"/>
<path d="M162.783 14.1772C162.721 13.5287 163.194 12.9679 163.825 12.9065C164.456 12.8452 165.008 13.3272 165.07 13.9669C165.07 14.037 165.07 14.1071 165.07 14.1772V28.0144C164.93 29.3289 165.324 30.6434 166.165 31.6424C167.909 33.5178 170.81 33.6054 172.641 31.8177C172.703 31.7563 172.764 31.7038 172.816 31.6424C173.649 30.6346 174.043 29.3289 173.912 28.0144V14.1772C173.851 13.5287 174.324 12.9679 174.955 12.9065C175.586 12.8452 176.138 13.3272 176.199 13.9669C176.199 14.037 176.199 14.1071 176.199 14.1772V27.9531C176.331 29.697 175.875 31.4233 174.902 32.8605C172.475 35.9189 168.076 36.3834 165.087 33.8946C164.719 33.5879 164.377 33.2373 164.071 32.8605C163.098 31.4233 162.642 29.6882 162.783 27.9531V14.1772Z" fill="#848585"/>
<path d="M187.428 34.2449C187.428 34.9197 186.893 35.463 186.236 35.463C185.579 35.463 185.044 34.9197 185.044 34.2449V15.2548H180.742C180.111 15.3074 179.567 14.8342 179.515 14.1945C179.515 14.1682 179.515 14.1419 179.515 14.1156C179.515 13.4671 180.023 12.9326 180.654 12.9238C180.68 12.9238 180.715 12.9238 180.742 12.9238H191.74C192.371 12.88 192.923 13.3795 192.966 14.028C192.966 14.0543 192.966 14.0893 192.966 14.1156C192.966 14.7553 192.441 15.2724 191.818 15.2636C191.792 15.2636 191.766 15.2636 191.74 15.2636H187.428V34.2537V34.2449Z" fill="#848585"/>
<path d="M196.467 14.1767C196.406 13.5458 196.853 12.9849 197.466 12.9236C197.51 12.9236 197.563 12.9236 197.606 12.9236C198.237 12.9061 198.754 13.4143 198.772 14.0541C198.772 14.0979 198.772 14.1417 198.772 14.1767V34.2447C198.825 34.8756 198.36 35.4365 197.738 35.4891C197.694 35.4891 197.65 35.4891 197.606 35.4891C196.984 35.4891 196.485 34.9808 196.485 34.3498C196.485 34.3148 196.485 34.2797 196.485 34.2447L196.458 14.1767H196.467Z" fill="#848585"/>
<path d="M203.68 20.3639C203.566 18.4798 204.17 16.622 205.362 15.1848C206.668 13.7388 208.517 12.9151 210.445 12.9151C214.099 12.8888 217.079 15.8858 217.105 19.619C217.105 19.7242 217.105 19.8206 217.105 19.9257V28.4874C217.175 32.2732 214.239 35.4017 210.533 35.4806C208.622 35.5156 206.782 34.7269 205.485 33.2897C204.197 31.835 203.548 29.8983 203.697 27.9354V20.3551L203.68 20.3639ZM214.809 20.2587C214.914 18.9968 214.529 17.7524 213.749 16.7709C212.881 15.807 211.654 15.2637 210.375 15.2812C209.078 15.2461 207.842 15.807 206.992 16.806C206.239 17.8313 205.879 19.102 205.967 20.3814V27.9354C205.967 29.8107 206.335 30.9412 207.194 31.8263C208.061 32.6588 209.209 33.1232 210.401 33.1057C211.724 33.1232 212.986 32.5449 213.845 31.5195C214.537 30.5381 214.862 29.3375 214.765 28.1369L214.809 20.25V20.2587Z" fill="#848585"/>
<path d="M233.117 14.1772C233.064 13.5287 233.529 12.9679 234.16 12.9065C234.791 12.8452 235.352 13.3272 235.404 13.9669C235.404 14.037 235.404 14.1071 235.404 14.1772V33.325C235.404 34.7096 235.01 35.4895 234.274 35.4895C233.774 35.4895 233.45 35.1916 232.889 34.1663L224.284 18.331V34.2626C224.284 34.9111 223.767 35.4369 223.136 35.4369C222.505 35.4369 221.988 34.9111 221.988 34.2626V15.0535C221.988 13.5901 222.356 12.9153 223.092 12.9153C223.618 12.9679 224.091 13.3009 224.31 13.7916L233.117 29.7233V14.1684V14.1772Z" fill="#848585"/>
<path d="M252.326 15.693C252.343 16.245 251.949 16.7183 251.406 16.7796C251.108 16.7796 250.906 16.7183 250.179 16.2976C249.101 15.6229 247.865 15.2636 246.603 15.246C244.088 15.246 242.23 16.5693 242.23 18.3658C242.23 19.9519 243.527 21.1788 248.82 24.5614C251.94 26.5594 252.825 27.7337 252.825 29.9771C252.825 33.2195 250.012 35.4892 245.981 35.4892C242.993 35.4892 239.514 33.833 239.514 32.4133C239.496 31.87 239.899 31.4055 240.434 31.3617C240.72 31.3617 241.538 31.6743 242.888 32.2994C243.922 32.7989 245.052 33.0618 246.2 33.0793C248.715 33.0793 250.538 31.8349 250.538 30.0735C250.494 29.1008 249.986 28.1982 249.18 27.6724C248.689 27.2868 247.331 26.3287 245.105 24.798C243.694 23.9392 242.388 22.9051 241.231 21.7133C240.381 20.8195 239.917 19.6101 239.943 18.357C239.943 15.246 242.695 12.8799 246.402 12.8799C249.311 12.915 252.326 14.3084 252.326 15.693Z" fill="#848585"/>
<path d="M255.511 9.51447C253.311 9.51447 251.532 7.69171 251.532 5.44831C251.532 3.2049 253.311 1.38214 255.511 1.38214C257.71 1.38214 259.489 3.2049 259.489 5.44831C259.489 7.69171 257.71 9.51447 255.511 9.51447ZM255.511 2.29352C253.854 2.276 252.496 3.62554 252.478 5.31685C252.478 5.36067 252.478 5.40449 252.478 5.44831C252.478 7.15715 253.837 8.55051 255.511 8.55051C257.184 8.55051 258.543 7.16591 258.543 5.44831C258.595 3.75699 257.29 2.3461 255.642 2.29352C255.598 2.29352 255.554 2.29352 255.511 2.29352ZM256.229 7.61284L255.458 5.93905H255.011V7.61284H254.091V3.28377H255.826C256.562 3.25748 257.184 3.84462 257.211 4.60703C257.211 4.63332 257.211 4.66837 257.211 4.69466C257.211 5.20293 256.904 5.66738 256.431 5.83389L257.351 7.65665L256.229 7.61284ZM255.668 4.08123H255.011V5.20293H255.668C255.975 5.20293 256.22 4.9488 256.22 4.64208C256.22 4.33537 255.975 4.08123 255.668 4.08123Z" fill="#848585"/>
</svg>
