<svg xmlns="http://www.w3.org/2000/svg" fill="none" viewBox="0.3 0.33 250.45 289">
<path d="M2.40526 216.081L125.575 287.331L248.744 216.081L248.744 73.5808L125.575 2.33083" stroke="#156DB2" stroke-width="4"/>
<path d="M2.29687 220.331C2.29687 217.017 4.98317 214.331 8.29687 214.331C11.6106 214.331 14.2969 217.017 14.2969 220.331C14.2969 223.645 11.6106 226.331 8.29687 226.331C4.98316 226.331 2.29687 223.645 2.29687 220.331Z" fill="#156DB2" stroke="#156DB2" stroke-width="4"/>
<path d="M231.834 84.4043L123.538 21.6367L15.2422 84.4043" stroke="#156DB2" stroke-width="4"/>
<path d="M231.293 82.2151C231.293 83.932 229.901 85.3245 228.183 85.3245C226.464 85.3245 225.072 83.932 225.072 82.2151C225.072 80.4983 226.464 79.1058 228.183 79.1058C229.901 79.1058 231.293 80.4983 231.293 82.2151Z" fill="#156DB2" stroke="#156DB2" stroke-width="4"/>
<mask id="mask0_1_20536" style="mask-type:luminance" maskUnits="userSpaceOnUse" x="26" y="132" width="185" height="35">
<path d="M210.083 132H26V166.69H210.083V132Z" fill="white"/>
</mask>
<g mask="url(#mask0_1_20536)">
<path d="M49.6828 142.347C48.4868 141.12 48.4868 139.139 49.6828 137.912C50.9722 136.591 50.9722 134.454 49.6828 133.134C48.3996 131.813 46.3128 131.807 45.0171 133.115C45.0171 133.115 45.0047 133.128 44.9984 133.134C43.8025 134.361 41.859 134.361 40.6567 133.134C39.3735 131.813 37.2868 131.807 35.9911 133.115C35.9911 133.115 35.9787 133.128 35.9724 133.134C34.683 134.454 34.683 136.591 35.9724 137.912C37.2619 139.232 39.3611 139.232 40.6505 137.912C41.8465 136.684 43.79 136.684 44.9922 137.912C46.1882 139.139 46.1882 141.12 44.9922 142.347C43.7028 143.667 43.7028 145.81 44.9922 147.131C46.1882 148.358 46.1882 150.339 44.9922 151.566C43.9706 152.575 43.7028 154.145 44.3382 155.447C45.1542 157.122 47.1475 157.807 48.7858 156.973C49.1034 156.811 49.3962 156.599 49.6516 156.337C50.8476 155.11 52.7911 155.11 53.9933 156.337C55.2827 157.658 57.3757 157.658 58.6652 156.337C59.9546 155.023 59.967 152.893 58.6838 151.572C58.6838 151.572 58.6714 151.56 58.6652 151.553C57.4692 150.326 57.4692 148.345 58.6652 147.118C59.9546 145.804 59.967 143.673 58.6838 142.353C58.6838 142.353 58.6714 142.34 58.6652 142.334C57.3757 141.014 55.2827 141.014 53.9933 142.334C52.7039 143.655 52.7039 145.798 53.9933 147.118C55.1893 148.345 55.1893 150.326 53.9933 151.553C52.7973 152.78 50.8538 152.78 49.6516 151.553C48.4556 150.326 48.4556 148.345 49.6516 147.118C50.941 145.804 50.9535 143.667 49.6703 142.34L49.6828 142.347Z" fill="#50B9B2"/>
<path d="M40.6635 160.779C39.3741 159.458 37.2749 159.458 35.9855 160.779C34.696 162.099 34.696 164.236 35.9855 165.556C37.2687 166.877 39.3554 166.883 40.6511 165.575C40.6511 165.575 40.6636 165.563 40.6698 165.556C41.9592 164.236 41.9592 162.099 40.6698 160.779H40.6635ZM40.6635 147.124C41.953 145.804 41.953 143.661 40.6635 142.341C39.3741 141.02 37.2749 141.02 35.9855 142.341C34.7957 143.568 32.8647 143.574 31.6625 142.359C31.6625 142.359 31.65 142.347 31.6438 142.341C30.3543 141.02 28.2613 141.02 26.9719 142.341C25.6825 143.655 25.67 145.785 26.9532 147.106C26.9532 147.106 26.9657 147.118 26.9719 147.124C28.1679 148.352 28.1679 150.332 26.9719 151.56C25.6825 152.874 25.67 155.004 26.9532 156.325C26.9532 156.325 26.9657 156.337 26.9719 156.344C28.2613 157.664 30.3543 157.664 31.6438 156.344C32.8398 155.116 34.7832 155.116 35.9855 156.344C37.2749 157.664 39.3741 157.664 40.6635 156.344C41.8595 155.116 43.803 155.116 45.0052 156.344C46.2012 157.571 46.2012 159.552 45.0052 160.779C43.7158 162.099 43.7158 164.236 45.0052 165.556C46.2885 166.877 48.3752 166.883 49.6709 165.575C49.6709 165.575 49.6833 165.563 49.6895 165.556C50.979 164.236 50.979 162.099 49.6895 160.779C48.4936 159.552 48.4936 157.571 49.6895 156.344C50.979 155.023 50.979 152.88 49.6895 151.56C48.4001 150.239 46.3009 150.239 45.0115 151.56C43.8155 152.787 41.872 152.787 40.6698 151.56C39.3804 150.239 37.2811 150.239 35.9917 151.56C34.7957 152.787 32.8522 152.787 31.65 151.56C30.454 150.332 30.454 148.352 31.65 147.124C32.846 145.897 34.7895 145.897 35.9917 147.124C37.2811 148.445 39.3804 148.445 40.6698 147.124H40.6635Z" fill="#156DB2"/>
<path d="M40.663 147.131C41.9524 145.81 41.9524 143.667 40.663 142.347C39.3735 141.026 37.2743 141.026 35.9849 142.347C34.6955 143.667 34.6955 145.81 35.9849 147.131C37.2743 148.451 39.3735 148.451 40.663 147.131Z" fill="#50B9B2"/>
<path d="M79.3773 143.293C79.3959 143.686 79.1094 144.022 78.7232 144.066C78.5052 144.066 78.3619 144.022 77.8511 143.723C77.0849 143.244 76.2066 142.988 75.3096 142.976C73.5157 142.976 72.2013 143.916 72.2013 145.193C72.2013 146.321 73.117 147.193 76.8856 149.597C79.0969 151.018 79.7323 151.852 79.7323 153.447C79.7323 155.752 77.7328 157.365 74.8611 157.365C72.7432 157.365 70.3014 156.188 70.3014 155.179C70.289 154.792 70.5755 154.462 70.9555 154.431C71.159 154.431 71.7383 154.653 72.6934 155.098C73.4284 155.453 74.2382 155.64 75.0542 155.652C76.8358 155.677 78.1377 154.786 78.1377 153.54C78.1065 152.849 77.7452 152.207 77.1721 151.834C76.8233 151.56 75.8557 150.878 74.2694 149.79C73.2665 149.18 72.3446 148.445 71.5223 147.598C70.9181 146.962 70.588 146.103 70.6004 145.212C70.6004 143.001 72.5564 141.319 75.1601 141.319C77.2344 141.319 79.3773 142.303 79.3773 143.287V143.293Z" fill="#156DB2"/>
<path d="M85.8245 144.209C84.3669 145.748 83.825 146.209 83.4263 146.209C83.0276 146.153 82.7287 145.816 82.6975 145.412C82.8221 144.969 83.0775 144.571 83.4263 144.278L84.7718 142.889C86.0737 141.556 86.3727 141.325 86.7963 141.325C87.2198 141.325 87.4503 141.686 87.4503 142.745V156.487C87.4503 156.948 87.0828 157.322 86.6343 157.322C86.1858 157.322 85.8183 156.948 85.8183 156.487V144.222L85.8245 144.209Z" fill="#156DB2"/>
<path d="M99.4291 155.708C99.8776 155.665 100.27 156.007 100.314 156.462C100.351 156.923 100.021 157.321 99.5723 157.365C99.5225 157.365 99.4727 157.365 99.4291 157.365H93.5612C92.8137 157.365 92.3652 157.128 92.3652 156.699C92.3652 156.431 92.4338 156.269 92.8324 155.658L97.2115 148.713C98.6691 146.402 98.7625 146.184 98.7625 145.268C98.775 144.029 97.8095 143.013 96.5948 142.994C96.5201 142.994 96.4515 142.994 96.3768 143.001C95.3677 143.001 94.7572 143.431 94.1405 144.583C93.8104 145.249 93.5737 145.43 93.2249 145.43C92.7452 145.418 92.3652 145.006 92.3777 144.521C92.4898 143.617 92.9819 142.808 93.7232 142.303C94.5143 141.668 95.4922 141.319 96.5014 141.319C98.8061 141.319 100.457 142.914 100.457 145.125C100.457 146.352 100.195 147.124 99.3045 148.489L94.6887 155.708H99.4353H99.4291Z" fill="#156DB2"/>
<path d="M115.998 143.294C116.017 143.686 115.731 144.022 115.344 144.066C115.133 144.066 114.996 144.022 114.472 143.723C113.706 143.244 112.828 142.988 111.931 142.976C110.143 142.976 108.823 143.917 108.823 145.193C108.823 146.321 109.744 147.193 113.507 149.597C115.724 151.018 116.354 151.852 116.354 153.447C116.354 155.752 114.354 157.365 111.476 157.365C109.358 157.365 106.916 156.188 106.916 155.179C106.904 154.793 107.19 154.462 107.57 154.431C107.774 154.431 108.355 154.653 109.315 155.098C110.05 155.453 110.853 155.64 111.669 155.652C113.457 155.652 114.753 154.768 114.753 153.516C114.722 152.824 114.36 152.183 113.787 151.809C113.438 151.535 112.475 150.854 110.897 149.766C109.881 149.168 108.947 148.439 108.106 147.604C107.502 146.969 107.172 146.109 107.184 145.218C107.184 143.007 109.14 141.325 111.744 141.325C113.849 141.325 115.992 142.309 115.992 143.294H115.998Z" fill="#848585"/>
<path d="M118.751 146.614C118.67 145.274 119.1 143.954 119.954 142.932C120.882 141.904 122.184 141.319 123.548 141.319C126.139 141.281 128.269 143.393 128.307 146.041C128.307 146.128 128.307 146.215 128.307 146.296V152.382C128.357 155.073 126.264 157.297 123.635 157.353C122.277 157.378 120.969 156.817 120.047 155.795C119.131 154.761 118.67 153.385 118.776 151.989L118.751 146.601V146.614ZM126.662 146.539C126.737 145.642 126.469 144.751 125.909 144.06C125.292 143.374 124.42 142.988 123.51 143.001C122.607 142.988 121.741 143.387 121.143 144.085C120.608 144.813 120.352 145.717 120.415 146.626V151.996C120.415 153.329 120.67 154.132 121.28 154.761C121.897 155.353 122.719 155.683 123.566 155.671C124.507 155.683 125.398 155.272 126.008 154.543C126.507 153.839 126.737 152.98 126.662 152.114V146.533V146.539Z" fill="#848585"/>
<path d="M138.779 155.708C139.227 155.665 139.619 156.007 139.663 156.462C139.7 156.923 139.37 157.322 138.922 157.365C138.872 157.365 138.822 157.365 138.779 157.365H132.805C132.35 157.459 131.908 157.16 131.814 156.693C131.789 156.58 131.789 156.468 131.814 156.362V142.216C131.771 141.755 132.107 141.356 132.556 141.313C133.004 141.269 133.397 141.612 133.44 142.067C133.44 142.116 133.44 142.166 133.44 142.216V155.708H138.785H138.779Z" fill="#848585"/>
<path d="M141.344 142.216C141.301 141.755 141.637 141.356 142.086 141.313C142.534 141.269 142.927 141.612 142.97 142.067C142.97 142.116 142.97 142.166 142.97 142.216V152.052C142.87 152.986 143.151 153.921 143.749 154.631C144.988 155.964 147.05 156.026 148.352 154.755C148.396 154.712 148.439 154.674 148.477 154.631C149.068 153.914 149.349 152.986 149.255 152.052V142.216C149.212 141.755 149.548 141.356 149.997 141.313C150.445 141.269 150.838 141.612 150.881 142.067C150.881 142.116 150.881 142.166 150.881 142.216V152.008C150.975 153.248 150.651 154.475 149.959 155.497C148.234 157.671 145.107 158.001 142.983 156.232C142.721 156.014 142.478 155.764 142.26 155.497C141.569 154.475 141.245 153.242 141.344 152.008V142.216Z" fill="#848585"/>
<path d="M158.861 156.481C158.861 156.96 158.481 157.346 158.014 157.346C157.546 157.346 157.166 156.96 157.166 156.481V142.982H154.108C153.659 143.019 153.273 142.683 153.236 142.228C153.236 142.21 153.236 142.191 153.236 142.172C153.236 141.711 153.597 141.331 154.046 141.325C154.064 141.325 154.089 141.325 154.108 141.325H161.925C162.374 141.294 162.766 141.649 162.798 142.11C162.798 142.129 162.798 142.154 162.798 142.172C162.798 142.627 162.424 142.995 161.982 142.988C161.963 142.988 161.944 142.988 161.925 142.988H158.861V156.487V156.481Z" fill="#848585"/>
<path d="M165.29 142.216C165.246 141.767 165.564 141.369 166 141.325C166.031 141.325 166.068 141.325 166.099 141.325C166.548 141.313 166.915 141.674 166.928 142.129C166.928 142.16 166.928 142.191 166.928 142.216V156.48C166.965 156.929 166.635 157.328 166.193 157.365C166.162 157.365 166.131 157.365 166.099 157.365C165.657 157.365 165.302 157.004 165.302 156.555C165.302 156.53 165.302 156.505 165.302 156.48L165.283 142.216H165.29Z" fill="#848585"/>
<path d="M170.416 146.614C170.335 145.274 170.765 143.954 171.612 142.932C172.54 141.905 173.855 141.319 175.225 141.319C177.823 141.3 179.941 143.431 179.959 146.084C179.959 146.159 179.959 146.228 179.959 146.302V152.388C180.009 155.079 177.922 157.303 175.287 157.359C173.929 157.384 172.621 156.823 171.699 155.802C170.784 154.768 170.323 153.391 170.429 151.996V146.607L170.416 146.614ZM178.327 146.539C178.402 145.642 178.128 144.757 177.573 144.06C176.957 143.375 176.085 142.988 175.175 143.001C174.253 142.976 173.375 143.375 172.771 144.085C172.235 144.814 171.98 145.717 172.042 146.626V151.996C172.042 153.329 172.304 154.132 172.914 154.761C173.531 155.353 174.347 155.683 175.194 155.671C176.134 155.683 177.031 155.272 177.642 154.543C178.134 153.846 178.365 152.992 178.296 152.139L178.327 146.533V146.539Z" fill="#848585"/>
<path d="M191.34 142.216C191.302 141.755 191.632 141.356 192.081 141.313C192.529 141.269 192.928 141.612 192.966 142.067C192.966 142.116 192.966 142.166 192.966 142.216V155.827C192.966 156.811 192.685 157.365 192.162 157.365C191.807 157.365 191.576 157.154 191.178 156.425L185.061 145.169V156.493C185.061 156.954 184.693 157.328 184.245 157.328C183.796 157.328 183.429 156.954 183.429 156.493V142.839C183.429 141.799 183.69 141.319 184.214 141.319C184.587 141.356 184.924 141.593 185.079 141.942L191.34 153.267V142.21V142.216Z" fill="#848585"/>
<path d="M204.994 143.293C205.007 143.686 204.726 144.022 204.34 144.066C204.128 144.066 203.985 144.022 203.468 143.723C202.702 143.244 201.823 142.988 200.926 142.976C199.139 142.976 197.818 143.916 197.818 145.193C197.818 146.321 198.74 147.193 202.502 149.597C204.72 151.018 205.349 151.852 205.349 153.447C205.349 155.752 203.35 157.365 200.484 157.365C198.36 157.365 195.887 156.188 195.887 155.179C195.875 154.792 196.161 154.462 196.541 154.431C196.745 154.431 197.326 154.653 198.285 155.098C199.02 155.453 199.824 155.64 200.64 155.652C202.428 155.652 203.723 154.768 203.723 153.515C203.692 152.824 203.331 152.182 202.758 151.809C202.409 151.535 201.443 150.854 199.861 149.766C198.858 149.155 197.93 148.42 197.108 147.573C196.504 146.938 196.174 146.078 196.192 145.187C196.192 142.976 198.148 141.294 200.783 141.294C202.851 141.319 204.994 142.309 204.994 143.293Z" fill="#848585"/>
<path d="M207.256 138.902C205.692 138.902 204.427 137.606 204.427 136.011C204.427 134.417 205.692 133.121 207.256 133.121C208.819 133.121 210.084 134.417 210.084 136.011C210.084 137.606 208.819 138.902 207.256 138.902ZM207.256 133.769C206.078 133.756 205.113 134.716 205.1 135.918C205.1 135.949 205.1 135.98 205.1 136.011C205.1 137.226 206.066 138.217 207.256 138.217C208.445 138.217 209.411 137.232 209.411 136.011C209.448 134.809 208.52 133.806 207.349 133.769C207.318 133.769 207.287 133.769 207.256 133.769ZM207.766 137.55L207.218 136.36H206.9V137.55H206.246V134.473H207.48C208.003 134.454 208.445 134.871 208.464 135.413C208.464 135.432 208.464 135.457 208.464 135.476C208.464 135.837 208.246 136.167 207.91 136.285L208.564 137.581L207.766 137.55ZM207.368 135.04H206.9V135.837H207.368C207.586 135.837 207.76 135.656 207.76 135.438C207.76 135.22 207.586 135.04 207.368 135.04Z" fill="#848585"/>
</g>
</svg>