<svg xmlns="http://www.w3.org/2000/svg" fill="none" viewBox="59.58 32.43 250.82 291.61">
<path d="M184.874 37.4509L61.5847 108.494L61.7043 250.787L185.113 322.037L308.402 250.994" stroke="#D4292F" stroke-width="4"/>
<path d="M181.247 35.232C184.117 36.8889 185.1 40.5584 183.443 43.4282C181.787 46.2979 178.117 47.2812 175.247 45.6243C172.378 43.9675 171.394 40.2979 173.051 37.4282C174.708 34.5584 178.378 33.5752 181.247 35.232Z" fill="#D4292F" stroke="#D4292F" stroke-width="4"/>
<path d="M184.195 301.98L292.701 239.577L292.49 114.406" stroke="#D4292F" stroke-width="4"/>
<path d="M186.361 302.607C184.874 301.748 184.364 299.846 185.223 298.358C186.082 296.87 187.985 296.361 189.471 297.219C190.958 298.077 191.468 299.979 190.609 301.468C189.75 302.956 187.848 303.465 186.361 302.607Z" fill="#D4292F" stroke="#D4292F" stroke-width="4"/>
<path d="M181 196L175.251 196C174.885 187.601 174.527 179.202 174.17 171.064C171.461 179.071 168.662 187.331 165.846 195.643C164.416 195.643 163.03 195.66 161.644 195.617C161.456 195.617 161.179 195.32 161.108 195.111C158.578 187.104 155.735 179.185 153.938 170.968C153.92 170.873 153.884 170.786 153.821 170.576C153.383 179.132 152.954 187.549 152.516 195.991L147 195.991C147.706 185.684 148.413 175.421 149.128 165.07C149.405 165.053 149.655 165.026 149.915 165.018C151.98 165.018 154.045 165.035 156.11 165C156.673 164.992 156.888 165.175 157.058 165.68C159.445 172.964 162.1 180.178 163.772 187.671C163.808 187.819 163.888 187.95 163.951 188.089C164.907 184.9 165.766 181.702 166.812 178.566C168.26 174.21 169.843 169.897 171.38 165.567C171.461 165.349 171.729 165.044 171.917 165.035C174.295 165 176.682 165.009 179.158 165.009C179.775 175.36 180.383 185.641 181 195.974" fill="#1D62AC"/>
<path d="M224.74 169.924C223.468 174.125 222.152 178.508 220.835 182.892L228.807 182.892C227.427 178.491 226.057 174.125 224.749 169.924M211 195.981C212.147 192.485 213.248 189.145 214.35 185.814C216.544 179.186 218.748 172.559 220.916 165.923C221.139 165.244 221.417 164.983 222.187 165.001C224.149 165.062 226.111 165.027 228.072 165.018C228.493 165.018 228.726 165.088 228.887 165.549C232.237 175.586 235.605 185.614 238.973 195.642C238.991 195.712 238.982 195.79 239 195.99L236.125 195.99C235.211 195.99 234.297 195.964 233.384 195.999C232.927 196.016 232.721 195.86 232.587 195.442C231.781 192.937 230.93 190.441 230.15 187.936C229.98 187.388 229.729 187.223 229.147 187.223C226.272 187.249 223.397 187.249 220.521 187.223C219.948 187.223 219.742 187.406 219.59 187.919C218.846 190.389 218.04 192.833 217.288 195.303C217.136 195.807 216.948 196.016 216.365 195.999C214.628 195.955 212.89 195.981 211.009 195.981" fill="#1D62AC"/>
<path d="M248.63 174.765C248.63 176.322 248.63 177.871 248.63 179.428C248.63 179.817 248.691 180.111 249.157 180.094C250.729 180.05 252.327 180.18 253.855 179.895C256.692 179.376 258.299 177.239 258.229 174.454C258.159 171.712 256.604 169.939 253.636 169.541C252.195 169.342 250.702 169.532 249.236 169.524C248.753 169.524 248.612 169.723 248.621 170.19C248.647 171.712 248.63 173.243 248.63 174.774M248.621 184.496L248.621 196L243 196L243 165.588C244.607 165.441 246.241 165.251 247.883 165.138C250.825 164.948 253.776 164.853 256.683 165.545C261.075 166.6 263.718 169.55 263.973 173.624C264.272 178.32 262.093 181.841 257.825 183.527C254.892 184.686 251.835 184.764 248.63 184.487" fill="#1D62AC"/>
<path d="M209 165.397C208.577 166.945 208.189 168.389 207.792 169.832C206.532 169.528 205.315 169.119 204.054 168.945C200.498 168.458 197.124 168.858 194.31 171.389C192.86 172.694 191.954 174.346 191.47 176.225C190.814 178.764 190.789 181.321 191.453 183.86C192.601 188.217 196.079 191.009 200.593 191.183C201.802 191.226 203.027 191.183 204.227 191.018C205.418 190.861 206.583 190.496 207.818 190.209C208.076 191.444 208.335 192.766 208.629 194.07C208.741 194.548 208.499 194.696 208.111 194.844C206.229 195.557 204.262 195.818 202.268 195.949C199.584 196.123 196.943 195.87 194.405 194.949C190.219 193.435 187.362 190.548 185.981 186.313C184.617 182.13 184.652 177.903 186.231 173.772C188.312 168.337 192.446 165.362 198.021 164.336C201.301 163.736 204.564 163.945 207.757 164.919C208.154 165.041 208.525 165.206 208.991 165.388" fill="#1F64AD"/>
<path d="M115.991 194.758C112.495 196.971 108.83 198.719 104.622 198.978C102.994 199.085 101.446 198.808 100.014 198.006C100.059 198.059 100.103 198.113 100.139 198.166C99.1423 197.203 98.0748 196.302 97.2208 195.213C90.1485 186.284 90.282 173.518 97.4965 164.696C97.7189 164.419 98.0303 164.223 98.3061 164C97.5054 165.436 97.2297 166.98 97.3364 168.612C97.6033 172.84 99.338 176.516 101.535 180.013C101.562 180.048 101.58 180.075 101.598 180.111C103.386 183.117 105.636 185.74 108.065 188.237C110.476 190.708 113.171 192.823 116 194.767" fill="#1D62AC"/>
<path d="M133.03 196.443C133.03 196.443 133.03 196.452 133.021 196.46C132.186 197.33 131.385 198.216 130.462 198.948C121.75 205.792 109.295 205.662 100.688 198.681C100.47 198.509 100.296 198.277 100.122 198.053C100.087 198.001 100.044 197.949 100 197.898C101.401 198.681 102.916 198.948 104.508 198.845C108.634 198.595 112.22 196.917 115.632 194.773C115.666 194.756 115.692 194.73 115.727 194.713C118.652 192.991 121.219 190.805 123.656 188.455C125.997 186.191 128.017 183.669 129.87 181C132.029 184.374 133.717 187.921 133.978 192.001C134.083 193.568 133.813 195.057 133.039 196.443" fill="#8DBF43"/>
<path d="M133.733 195.316C133.52 195.576 133.221 195.775 132.957 196C132.957 196 132.957 195.991 132.965 195.983C133.724 194.588 133.989 193.099 133.886 191.514C133.631 187.409 131.976 183.842 129.861 180.447C129.835 180.412 129.818 180.386 129.801 180.352C128.086 177.433 125.928 174.887 123.6 172.462C121.297 170.064 118.712 168.011 116 166.115C119.344 163.967 122.858 162.279 126.901 162.019C128.453 161.924 129.946 162.183 131.311 162.971C131.268 162.919 131.225 162.867 131.191 162.815C132.146 163.751 133.179 164.625 133.997 165.682C140.778 174.35 140.642 186.734 133.733 195.307" fill="#2DA9E1"/>
<path d="M131 163.098C129.598 162.314 128.083 162.047 126.498 162.151C122.37 162.409 118.782 164.089 115.368 166.225C115.333 166.251 115.307 166.268 115.272 166.285C112.346 168.017 109.777 170.188 107.347 172.54C105.005 174.814 102.984 177.338 101.129 180C98.9783 176.623 97.2802 173.074 97.0189 168.999C96.9231 167.423 97.1844 165.932 97.9681 164.545C98.7955 163.675 99.5967 162.788 100.528 162.056C109.246 155.207 121.708 155.336 130.321 162.323C130.538 162.504 130.704 162.728 130.878 162.952C130.913 163.003 130.956 163.055 131 163.107" fill="#D4292F"/>
</svg>