<svg width="172" height="47" viewBox="0 0 172 47" fill="none" xmlns="http://www.w3.org/2000/svg">
<path d="M89 39H83.2514C82.8848 30.601 82.5272 22.2019 82.1696 14.0643C79.4607 22.0713 76.6624 30.331 73.8462 38.6429C72.4157 38.6429 71.03 38.6603 69.6442 38.6167C69.4565 38.6167 69.1793 38.3205 69.1078 38.1114C66.5777 30.1044 63.7347 22.1845 61.9377 13.9685C61.9198 13.8726 61.884 13.7855 61.8215 13.5764C61.3834 22.1323 60.9543 30.5487 60.5162 38.9913H55C55.7063 28.6842 56.4126 18.4206 57.1278 8.06996C57.4049 8.05253 57.6553 8.02645 57.9145 8.01774C59.9798 8.01774 62.045 8.03515 64.1102 8.0003C64.6734 7.99158 64.888 8.17457 65.0578 8.67991C67.4449 15.9637 70.1002 23.1778 71.772 30.6707C71.8078 30.8188 71.8883 30.9495 71.9508 31.0889C72.9075 27.9001 73.7657 24.7025 74.8117 21.5659C76.2601 17.2096 77.8425 12.8968 79.3802 8.56664C79.4607 8.34882 79.7289 8.04389 79.9166 8.03518C82.2948 8.00033 84.6818 8.00902 87.1583 8.00902C87.7752 18.3597 88.3831 28.6407 89 38.9739" fill="#1D62AC"/>
<path d="M132.74 12.9236C131.468 17.1245 130.152 21.508 128.835 25.8915H136.807C135.427 21.4906 134.057 17.1245 132.749 12.9236M119 38.9813C120.147 35.4849 121.248 32.1451 122.35 28.814C124.544 22.1865 126.748 15.5589 128.916 8.92269C129.139 8.24429 129.417 7.98342 130.187 8.00081C132.149 8.06169 134.111 8.02692 136.072 8.01822C136.493 8.01822 136.726 8.08779 136.887 8.54876C140.237 18.5857 143.605 28.6139 146.973 38.6421C146.991 38.7117 146.982 38.79 147 38.99H144.125C143.211 38.99 142.297 38.9639 141.384 38.9987C140.927 39.0161 140.721 38.8595 140.587 38.4421C139.781 35.9372 138.93 33.441 138.15 30.9361C137.98 30.3882 137.729 30.223 137.147 30.223C134.272 30.2491 131.397 30.2491 128.521 30.223C127.948 30.223 127.742 30.4055 127.59 30.9187C126.846 33.3888 126.04 35.8328 125.288 38.3029C125.136 38.8073 124.948 39.0161 124.365 38.9987C122.628 38.9552 120.89 38.9813 119.009 38.9813" fill="#1D62AC"/>
<path d="M156.63 17.7654C156.63 19.3223 156.63 20.8706 156.63 22.4275C156.63 22.8167 156.691 23.1108 157.157 23.0936C158.729 23.0503 160.327 23.18 161.855 22.8945C164.692 22.3755 166.299 20.2392 166.229 17.454C166.159 14.7121 164.604 12.9389 161.636 12.541C160.195 12.3421 158.702 12.5324 157.236 12.5237C156.753 12.5237 156.612 12.7227 156.621 13.1897C156.647 14.7121 156.63 16.2431 156.63 17.774M156.621 27.4961V39H151V8.58822C152.607 8.44118 154.241 8.25087 155.883 8.13843C158.825 7.94814 161.776 7.85297 164.683 8.54493C169.075 9.60018 171.718 12.5496 171.973 16.6236C172.272 21.3203 170.093 24.8407 165.825 26.5274C162.892 27.6864 159.835 27.7643 156.63 27.4875" fill="#1D62AC"/>
<path d="M117 8.39716C116.577 9.94517 116.189 11.3888 115.792 12.8325C114.532 12.5281 113.315 12.1193 112.054 11.9454C108.498 11.4584 105.124 11.8585 102.31 14.3892C100.86 15.6937 99.9538 17.346 99.4704 19.2245C98.8145 21.7639 98.7886 24.3208 99.4532 26.8602C100.601 31.2173 104.079 34.009 108.593 34.1829C109.802 34.2264 111.027 34.1828 112.227 34.0176C113.418 33.8611 114.583 33.4959 115.818 33.2089C116.076 34.4438 116.335 35.7656 116.629 37.0701C116.741 37.5485 116.499 37.6963 116.111 37.8442C114.229 38.5573 112.262 38.8182 110.268 38.9487C107.584 39.1226 104.943 38.8704 102.405 37.9485C98.219 36.4353 95.3621 33.5481 93.9811 29.3128C92.6174 25.1296 92.652 20.903 94.2314 16.7721C96.3115 11.3366 100.446 8.3624 106.021 7.33619C109.301 6.73611 112.564 6.94477 115.757 7.9188C116.154 8.04055 116.525 8.20582 116.991 8.38845" fill="#1F64AD"/>
<path d="M23.9911 37.7584C20.495 39.9707 16.8299 41.7193 12.6222 41.978C10.9942 42.085 9.44631 41.8084 8.01407 41.0055C8.05855 41.0591 8.10304 41.1126 8.13862 41.1662C7.14228 40.2027 6.07478 39.3017 5.22077 38.2134C-1.85147 29.2838 -1.71803 16.5184 5.49654 7.69584C5.71894 7.4193 6.0303 7.22302 6.30607 7C5.50544 8.43623 5.22967 9.97954 5.33642 11.612C5.6033 15.8404 7.338 19.5157 9.53529 23.0126C9.56197 23.0483 9.57974 23.0751 9.59754 23.1108C11.3856 26.117 13.6363 28.7397 16.0649 31.2375C18.4757 33.7085 21.1711 35.8226 24 37.7673" fill="#1D62AC"/>
<path d="M41.0298 39.4431C41.0298 39.4431 41.0298 39.4517 41.0211 39.4603C40.1856 40.3298 39.3848 41.2164 38.4623 41.9481C29.7501 48.7916 17.2953 48.6624 8.68758 41.6812C8.47 41.5091 8.29593 41.2766 8.12186 41.0528C8.08705 41.0012 8.04352 40.9495 8 40.8978C9.40126 41.6812 10.9157 41.9481 12.5084 41.8448C16.6339 41.5952 20.2197 39.9165 23.6315 37.7731C23.6663 37.7559 23.6924 37.7301 23.7272 37.7129C26.6516 35.9912 29.2192 33.8047 31.6561 31.4547C33.9974 29.1908 36.0166 26.6685 37.8704 24C40.0289 27.3744 41.7174 30.921 41.9785 35.0013C42.0829 36.568 41.8131 38.0572 41.0385 39.4431" fill="#8DBF43"/>
<path d="M41.733 38.3158C41.5197 38.5756 41.2212 38.7748 40.9568 39C40.9568 39 40.9568 38.9913 40.9653 38.9827C41.7244 37.5884 41.9888 36.0989 41.8865 34.5142C41.6306 30.4094 39.9759 26.8415 37.8605 23.4468C37.8349 23.4122 37.8179 23.3862 37.8008 23.3516C36.0864 20.4332 33.9284 17.8872 31.5998 15.4625C29.2969 13.0637 26.7124 11.0114 24 9.11486C27.3436 6.96722 30.8578 5.27857 34.9008 5.01877C36.4532 4.92351 37.9458 5.18329 39.3105 5.97133C39.2679 5.91937 39.2253 5.86737 39.1911 5.81541C40.1465 6.75067 41.1785 7.62537 41.9974 8.68187C48.7784 17.3504 48.6419 29.7339 41.733 38.3072" fill="#2DA9E1"/>
<path d="M39 6.09811C37.5979 5.31418 36.0826 5.04715 34.4976 5.15052C30.3698 5.40896 26.7818 7.0888 23.368 9.22522C23.3331 9.25107 23.307 9.26825 23.2722 9.28548C20.3461 11.017 17.777 13.1879 15.3473 15.5397C13.0047 17.814 10.9843 20.3381 9.12937 23C6.97834 19.6231 5.28015 16.0738 5.01889 11.9991C4.9231 10.4226 5.18436 8.93226 5.96813 7.54531C6.79545 6.67523 7.59665 5.78791 8.52848 5.05567C17.2458 -1.79296 29.7079 -1.66369 38.3207 5.32277C38.5384 5.50368 38.7039 5.72764 38.8781 5.95162C38.9129 6.00331 38.9565 6.05505 39 6.10673" fill="#D4292F"/>
</svg>
