<svg xmlns="http://www.w3.org/2000/svg" fill="none" viewBox="0 1 250.45 289">
<path d="M248.339 74.25L125.169 3L2 74.25V216.75L125.169 288" stroke="#69CCC2" stroke-width="4"/>
<path d="M242.447 78C246.866 78 250.447 74.4183 250.447 70C250.447 65.5817 246.866 62 242.447 62C238.029 62 234.447 65.5817 234.447 70C234.447 74.4183 238.029 78 242.447 78Z" fill="#69CCC2"/>
<path d="M18.9103 205.927L127.206 268.694L235.502 205.927" stroke="#69CCC2" stroke-width="4"/>
<path d="M22.5613 203.006C19.7388 203.006 17.4507 205.294 17.4507 208.116C17.4507 210.937 19.7388 213.225 22.5613 213.225C25.3838 213.225 27.6719 210.937 27.6719 208.116C27.6719 205.294 25.3838 203.006 22.5613 203.006Z" fill="#69CCC2"/>
<path d="M97.8849 131.411C97.4346 131.411 97.0969 131.066 97.1291 130.623L97.9171 107.522C97.9492 106.694 98.8819 106.525 99.2599 107.217L108.507 124.746C108.643 125.019 108.957 125.019 109.054 124.746L118.3 107.217C118.678 106.525 119.603 106.702 119.643 107.522L120.431 130.623C120.463 131.074 120.126 131.411 119.675 131.411H118.678C118.3 131.411 117.955 131.106 117.955 130.688L117.472 114.493C117.472 114.116 116.99 114.083 116.853 114.357L109.359 129.031C109.086 129.482 108.467 129.482 108.225 129.031L100.699 114.357C100.562 114.083 100.08 114.116 100.08 114.493L99.5976 130.688C99.5976 131.098 99.2518 131.411 98.8739 131.411H97.8769H97.8849Z" fill="#14143D"/>
<path d="M125.899 138.977C125.449 138.977 125.216 138.567 125.384 138.189L128.544 131.105C128.617 130.864 128.617 130.655 128.544 130.486L122.94 117.557C122.699 117.147 123.045 116.696 123.487 116.696H124.653C125.031 116.696 125.272 116.905 125.449 117.275L129.606 127.109C129.742 127.415 130.12 127.415 130.257 127.109L134.454 117.275C134.623 116.897 134.864 116.696 135.242 116.696H136.239C136.682 116.696 136.995 117.147 136.826 117.557L127.716 138.423C127.58 138.8 127.338 138.969 126.96 138.969H125.899V138.977Z" fill="#14143D"/>
<path d="M98.3272 160.616C97.6437 160.616 97.1211 160.101 97.1211 159.41V137.201C97.1211 136.55 97.6357 136.027 98.3272 136.027H104.72C107.019 136.027 108.917 136.751 110.356 138.19C111.804 139.629 112.519 141.39 112.519 143.449C112.519 145.507 111.796 147.268 110.356 148.707C108.917 150.114 107.019 150.838 104.72 150.838H102.726C102.42 150.838 102.106 151.079 102.106 151.457V159.401C102.106 160.085 101.592 160.608 100.932 160.608H98.3192L98.3272 160.616ZM102.106 146.078C102.106 146.383 102.412 146.665 102.726 146.665H104.205C106.263 146.665 107.646 145.322 107.646 143.505C107.646 141.688 106.239 140.377 104.205 140.377H102.726C102.307 140.377 102.106 140.586 102.106 140.956V146.078Z" fill="#14143D"/>
<path d="M116.274 158.694C114.795 157.077 114.039 155.051 114.039 152.679C114.039 150.307 114.795 148.281 116.274 146.665C117.754 145.016 119.611 144.188 121.847 144.188C123.841 144.188 125.385 144.904 126.454 146.351C126.727 146.729 127.105 146.697 127.137 146.319L127.21 145.635C127.314 145.016 127.692 144.711 128.344 144.711H130.024C130.716 144.711 131.23 145.257 131.23 145.909V159.417C131.23 160.101 130.716 160.623 130.024 160.623H128.344C127.692 160.623 127.314 160.318 127.21 159.731L127.137 159.047C127.105 158.669 126.727 158.669 126.454 158.975C125.425 160.414 123.881 161.138 121.847 161.138C119.651 161.138 117.794 160.31 116.274 158.702M122.635 148.53C120.295 148.53 118.51 150.347 118.51 152.687C118.51 153.821 118.888 154.818 119.684 155.606C120.472 156.394 121.469 156.812 122.643 156.812C123.817 156.812 124.773 156.394 125.569 155.606C126.357 154.818 126.776 153.821 126.776 152.687C126.776 150.347 124.991 148.53 122.651 148.53" fill="#14143D"/>
<path d="M137.205 160.616C136.553 160.616 136.039 160.101 136.039 159.409V149.439C136.039 149.061 135.87 148.892 135.484 148.892H134.382C133.731 148.892 133.281 148.442 133.281 147.791V145.829C133.281 145.137 133.731 144.695 134.382 144.695H135.484C135.862 144.695 136.039 144.526 136.039 144.18V138.335C136.039 137.683 136.553 137.128 137.205 137.128H139.303C139.955 137.128 140.509 137.675 140.509 138.335V144.18C140.509 144.526 140.678 144.695 141.024 144.695H142.809C143.501 144.695 143.943 145.145 143.943 145.829V147.791C143.943 148.442 143.493 148.892 142.809 148.892H141.024C140.678 148.892 140.509 149.061 140.509 149.439V159.409C140.509 160.093 139.955 160.616 139.303 160.616H137.205Z" fill="#14143D"/>
<path d="M147.167 160.615C146.516 160.615 146.001 160.101 146.001 159.409V136.348C146.001 135.697 146.516 135.182 147.167 135.182H149.266C149.917 135.182 150.472 135.697 150.472 136.348V145.386C150.472 145.804 150.882 145.973 151.195 145.691C152.257 144.694 153.535 144.18 154.975 144.18C157.998 144.18 159.823 146.069 159.823 149.27V159.409C159.823 160.093 159.309 160.615 158.657 160.615H156.559C155.875 160.615 155.353 160.101 155.353 159.409V150.886C155.353 149.342 154.669 148.546 153.254 148.546C152.329 148.546 151.501 149.028 150.777 150.025C150.568 150.235 150.472 150.54 150.472 150.918V159.409C150.472 160.093 149.925 160.615 149.266 160.615H147.167Z" fill="#14143D"/>
<path d="M161.335 145.973C161.029 145.321 161.407 144.702 162.123 144.702H164.873C165.46 144.702 165.87 144.976 166.111 145.53L168.893 152.373C169.062 152.751 169.44 152.719 169.577 152.405L172.568 145.498C172.946 144.67 173.878 144.67 174.248 145.498L177.239 152.405C177.408 152.711 177.786 152.751 177.923 152.373L180.745 145.53C180.986 144.984 181.364 144.702 181.951 144.702H184.219C184.91 144.702 185.28 145.321 185.007 145.973L178.582 160.446C178.277 161.274 177.207 161.306 176.829 160.51L173.492 153.225C173.356 152.92 172.978 152.92 172.841 153.225L169.472 160.51C169.094 161.298 168.065 161.266 167.751 160.446L161.327 145.973H161.335Z" fill="#14143D"/>
<path d="M188.006 158.694C186.527 157.077 185.771 155.051 185.771 152.679C185.771 150.307 186.527 148.281 188.006 146.665C189.486 145.016 191.343 144.188 193.578 144.188C195.573 144.188 197.116 144.904 198.186 146.351C198.459 146.729 198.837 146.697 198.869 146.319L198.942 145.635C199.046 145.016 199.424 144.711 200.075 144.711H201.756C202.448 144.711 202.962 145.257 202.962 145.909V159.417C202.962 160.101 202.448 160.623 201.756 160.623H200.075C199.424 160.623 199.046 160.318 198.942 159.731L198.869 159.047C198.837 158.669 198.459 158.669 198.186 158.975C197.157 160.414 195.605 161.138 193.578 161.138C191.375 161.138 189.518 160.31 188.006 158.702M194.366 148.53C192.027 148.53 190.242 150.347 190.242 152.687C190.242 153.821 190.619 154.818 191.415 155.606C192.203 156.394 193.201 156.812 194.375 156.812C195.548 156.812 196.505 156.394 197.293 155.606C198.081 154.818 198.499 153.821 198.499 152.687C198.499 150.347 196.714 148.53 194.375 148.53" fill="#14143D"/>
<path d="M207.907 168.181C207.224 168.181 206.878 167.594 207.119 167.015L209.933 160.205C210.038 159.931 210.038 159.618 209.933 159.312L204.675 146.077C204.401 145.353 204.779 144.702 205.607 144.702H208.18C208.8 144.702 209.21 145.008 209.451 145.667L212.096 152.984C212.233 153.362 212.748 153.362 212.884 152.984L215.634 145.627C215.803 145.008 216.253 144.702 216.905 144.702H218.963C219.791 144.702 220.169 145.353 219.928 146.077L211.437 167.321C211.228 167.9 210.818 168.181 210.199 168.181H207.899H207.907Z" fill="#14143D"/>
<path d="M50.6453 128.717V128.758C50.6453 128.758 50.6453 128.734 50.6453 128.717ZM61.7496 117.645C67.8687 117.645 72.854 122.623 72.854 128.75C72.854 134.877 67.8767 139.854 61.7496 139.854C55.6225 139.854 50.6453 134.877 50.6453 128.75C50.6453 122.623 55.6225 117.645 61.7496 117.645ZM61.7496 104C48.0883 104 37.0161 115.064 37 128.717C37 128.717 37 128.742 37 128.758V161.934C37 162.658 37.587 163.245 38.3107 163.245C39.0343 163.245 39.6213 162.658 39.6213 161.934V128.758C39.6213 128.758 39.6213 128.734 39.6213 128.717C39.6374 116.528 49.5597 106.621 61.7576 106.621C73.9555 106.621 83.894 116.552 83.894 128.758C83.894 140.964 73.9636 150.894 61.7576 150.894C57.7131 150.894 53.9178 149.8 50.6533 147.895V144.461C53.7892 146.681 57.6166 147.999 61.7576 147.999C72.3795 147.999 80.9912 139.388 80.9912 128.766C80.9912 118.144 72.3795 109.532 61.7576 109.532C51.1438 109.532 42.5481 118.128 42.524 128.734C42.524 128.734 42.524 128.758 42.524 128.774V161.95C42.524 162.674 43.111 163.261 43.8347 163.261C44.5584 163.261 45.1453 162.674 45.1453 161.95V128.774C45.1453 128.774 45.1453 128.75 45.1453 128.734C45.1614 119.591 52.6072 112.153 61.7576 112.153C70.908 112.153 78.378 119.607 78.378 128.774C78.378 137.94 70.9241 145.394 61.7576 145.394C57.496 145.394 53.5962 143.778 50.6533 141.124V136.831C53.1459 140.264 57.1904 142.499 61.7576 142.499C69.332 142.499 75.4752 136.356 75.4752 128.782C75.4752 121.207 69.332 115.064 61.7576 115.064C54.1912 115.064 48.0561 121.191 48.04 128.75C48.04 128.75 48.04 128.774 48.04 128.79V161.966C48.04 162.69 48.627 163.277 49.3507 163.277C50.0743 163.277 50.6613 162.69 50.6613 161.966V150.91C53.9982 152.591 57.7694 153.539 61.7657 153.539C75.435 153.539 86.5153 142.459 86.5153 128.79C86.5153 115.12 75.435 104.04 61.7657 104.04" fill="#69CCC2"/>
</svg>