<svg width="184" height="65" viewBox="0 0 184 65" fill="none" xmlns="http://www.w3.org/2000/svg">
<path d="M61.385 27.4113C60.9347 27.4113 60.597 27.0656 60.6291 26.6233L61.4171 3.5221C61.4493 2.6939 62.382 2.52504 62.7599 3.21655L72.0069 20.7455C72.1435 21.0189 72.4571 21.0189 72.5536 20.7455L81.8005 3.21655C82.1785 2.52504 83.1032 2.70194 83.1434 3.5221L83.9314 26.6233C83.9635 27.0736 83.6258 27.4113 83.1755 27.4113H82.1785C81.8006 27.4113 81.4548 27.1058 81.4548 26.6877L80.9724 10.4935C80.9724 10.1156 80.4899 10.0834 80.3532 10.3568L72.8592 25.0312C72.5858 25.4815 71.9667 25.4815 71.7254 25.0312L64.1993 10.3568C64.0626 10.0834 63.5801 10.1156 63.5801 10.4935L63.0976 26.6877C63.0976 27.0977 62.7519 27.4113 62.374 27.4113H61.3769H61.385Z" fill="#14143D"/>
<path d="M89.399 34.9773C88.9487 34.9773 88.7155 34.5673 88.8844 34.1893L92.0444 27.1054C92.1168 26.8642 92.1168 26.6551 92.0444 26.4863L86.44 13.5566C86.1988 13.1466 86.5445 12.6963 86.9868 12.6963H88.1527C88.5306 12.6963 88.7718 12.9054 88.9487 13.2752L93.1058 23.1091C93.2425 23.4147 93.6204 23.4147 93.7571 23.1091L97.9544 13.2752C98.1233 12.8973 98.3645 12.6963 98.7424 12.6963H99.7395C100.182 12.6963 100.495 13.1466 100.326 13.5566L91.2162 34.4225C91.0795 34.8005 90.8383 34.9693 90.4604 34.9693H89.399V34.9773Z" fill="#14143D"/>
<path d="M61.8273 56.6156C61.1438 56.6156 60.6211 56.101 60.6211 55.4095V33.2008C60.6211 32.5495 61.1357 32.0269 61.8273 32.0269H68.2197C70.5194 32.0269 72.417 32.7505 73.8563 34.1898C75.3036 35.6291 76.0192 37.3901 76.0192 39.4485C76.0192 41.507 75.2956 43.2679 73.8563 44.7072C72.417 46.1143 70.5194 46.838 68.2197 46.838H66.2256C65.92 46.838 65.6064 47.0792 65.6064 47.4572V55.4015C65.6064 56.0849 65.0918 56.6076 64.4325 56.6076H61.8192L61.8273 56.6156ZM65.6064 42.0779C65.6064 42.3834 65.912 42.6648 66.2256 42.6648H67.7051C69.7635 42.6648 71.1465 41.322 71.1465 39.5048C71.1465 37.6876 69.7394 36.3769 67.7051 36.3769H66.2256C65.8074 36.3769 65.6064 36.586 65.6064 36.9559V42.0779Z" fill="#14143D"/>
<path d="M79.7744 54.6936C78.2949 53.0774 77.539 51.0511 77.539 48.6791C77.539 46.307 78.2949 44.2808 79.7744 42.6646C81.2539 41.0162 83.1113 40.188 85.3467 40.188C87.3408 40.188 88.8846 40.9036 89.954 42.351C90.2274 42.7289 90.6053 42.6967 90.6375 42.3188L90.7099 41.6353C90.8144 41.0162 91.1923 40.7106 91.8436 40.7106H93.5241C94.2156 40.7106 94.7303 41.2574 94.7303 41.9087V55.4173C94.7303 56.1007 94.2156 56.6234 93.5241 56.6234H91.8436C91.1923 56.6234 90.8144 56.3178 90.7099 55.7309L90.6375 55.0474C90.6053 54.6695 90.2274 54.6695 89.954 54.975C88.9248 56.4143 87.381 57.138 85.3467 57.138C83.1515 57.138 81.2941 56.3098 79.7744 54.7016M86.1346 44.53C83.7948 44.53 82.0097 46.3472 82.0097 48.6871C82.0097 49.8209 82.3876 50.8179 83.1837 51.6059C83.9717 52.3939 84.9687 52.812 86.1427 52.812C87.3166 52.812 88.2735 52.3939 89.0695 51.6059C89.8575 50.8179 90.2757 49.8209 90.2757 48.6871C90.2757 46.3472 88.4906 44.53 86.1507 44.53" fill="#14143D"/>
<path d="M100.705 56.6156C100.053 56.6156 99.5388 56.101 99.5388 55.4095V45.4389C99.5388 45.061 99.3699 44.8921 98.984 44.8921H97.8824C97.2311 44.8921 96.7808 44.4418 96.7808 43.7905V41.8286C96.7808 41.1371 97.2311 40.6948 97.8824 40.6948H98.984C99.3619 40.6948 99.5388 40.5259 99.5388 40.1802V34.3345C99.5388 33.6832 100.053 33.1284 100.705 33.1284H102.803C103.455 33.1284 104.009 33.6752 104.009 34.3345V40.1802C104.009 40.5259 104.178 40.6948 104.524 40.6948H106.309C107.001 40.6948 107.443 41.1451 107.443 41.8286V43.7905C107.443 44.4418 106.993 44.8921 106.309 44.8921H104.524C104.178 44.8921 104.009 45.061 104.009 45.4389V55.4095C104.009 56.0929 103.455 56.6156 102.803 56.6156H100.705Z" fill="#14143D"/>
<path d="M110.667 56.6152C110.016 56.6152 109.501 56.1006 109.501 55.4091V32.348C109.501 31.6967 110.016 31.1821 110.667 31.1821H112.766C113.417 31.1821 113.972 31.6967 113.972 32.348V41.3859C113.972 41.804 114.382 41.9729 114.696 41.6915C115.757 40.6944 117.035 40.1798 118.475 40.1798C121.498 40.1798 123.323 42.0694 123.323 45.2696V55.4091C123.323 56.0925 122.809 56.6152 122.157 56.6152H120.059C119.375 56.6152 118.853 56.1006 118.853 55.4091V46.8858C118.853 45.342 118.169 44.5459 116.754 44.5459C115.829 44.5459 115.001 45.0284 114.277 46.0254C114.068 46.2345 113.972 46.5401 113.972 46.918V55.4091C113.972 56.0925 113.425 56.6152 112.766 56.6152H110.667Z" fill="#14143D"/>
<path d="M124.835 41.9726C124.529 41.3213 124.907 40.7021 125.623 40.7021H128.373C128.96 40.7021 129.37 40.9755 129.611 41.5304L132.393 48.3731C132.562 48.751 132.94 48.7188 133.077 48.4052L136.068 41.4982C136.446 40.67 137.378 40.67 137.748 41.4982L140.739 48.4052C140.908 48.7108 141.286 48.751 141.423 48.3731L144.245 41.5304C144.486 40.9836 144.864 40.7021 145.451 40.7021H147.719C148.41 40.7021 148.78 41.3213 148.507 41.9726L142.082 56.446C141.777 57.2742 140.707 57.3064 140.329 56.5104L136.992 49.2254C136.856 48.9198 136.478 48.9198 136.341 49.2254L132.972 56.5104C132.594 57.2984 131.565 57.2662 131.251 56.446L124.827 41.9726H124.835Z" fill="#14143D"/>
<path d="M151.506 54.6936C150.027 53.0774 149.271 51.0511 149.271 48.6791C149.271 46.307 150.027 44.2808 151.506 42.6646C152.986 41.0162 154.843 40.188 157.079 40.188C159.073 40.188 160.617 40.9036 161.686 42.351C161.959 42.7289 162.337 42.6967 162.369 42.3188L162.442 41.6353C162.546 41.0162 162.924 40.7106 163.576 40.7106H165.256C165.948 40.7106 166.462 41.2574 166.462 41.9087V55.4173C166.462 56.1007 165.948 56.6234 165.256 56.6234H163.576C162.924 56.6234 162.546 56.3178 162.442 55.7309L162.369 55.0474C162.337 54.6695 161.959 54.6695 161.686 54.975C160.657 56.4143 159.105 57.138 157.079 57.138C154.875 57.138 153.018 56.3098 151.506 54.7016M157.867 44.53C155.527 44.53 153.742 46.3472 153.742 48.6871C153.742 49.8209 154.12 50.8179 154.916 51.6059C155.704 52.3939 156.701 52.812 157.875 52.812C159.049 52.812 160.005 52.3939 160.793 51.6059C161.581 50.8179 162 49.8209 162 48.6871C162 46.3472 160.215 44.53 157.875 44.53" fill="#14143D"/>
<path d="M171.407 64.1813C170.724 64.1813 170.378 63.5943 170.619 63.0154L173.433 56.2048C173.538 55.9314 173.538 55.6178 173.433 55.3123L168.175 42.0771C167.901 41.3534 168.279 40.7021 169.107 40.7021H171.681C172.3 40.7021 172.71 41.0077 172.951 41.667L175.596 48.9842C175.733 49.3621 176.248 49.3621 176.384 48.9842L179.134 41.6268C179.303 41.0077 179.754 40.7021 180.405 40.7021H182.463C183.291 40.7021 183.669 41.3534 183.428 42.0771L174.937 63.3209C174.728 63.8999 174.318 64.1813 173.699 64.1813H171.399H171.407Z" fill="#14143D"/>
<path d="M14.1453 24.7174V24.7576C14.1453 24.7576 14.1453 24.7335 14.1453 24.7174ZM25.2497 13.6452C31.3687 13.6452 36.354 18.6225 36.354 24.7496C36.354 30.8767 31.3767 35.8539 25.2497 35.8539C19.1226 35.8539 14.1453 30.8767 14.1453 24.7496C14.1453 18.6225 19.1226 13.6452 25.2497 13.6452ZM25.2497 0C11.5883 0 0.516127 11.0641 0.500046 24.7174C0.500046 24.7174 0.500046 24.7416 0.500046 24.7576V57.934C0.500046 58.6577 1.08703 59.2446 1.8107 59.2446C2.53437 59.2446 3.12136 58.6577 3.12136 57.934V24.7576C3.12136 24.7576 3.12136 24.7335 3.12136 24.7174C3.13744 12.5276 13.0598 2.62131 25.2577 2.62131C37.4556 2.62131 47.394 12.5517 47.394 24.7576C47.394 36.9636 37.4636 46.894 25.2577 46.894C21.2131 46.894 17.4179 45.8004 14.1533 43.8947V40.4613C17.2892 42.6806 21.1166 43.9993 25.2577 43.9993C35.8796 43.9993 44.4913 35.3876 44.4913 24.7657C44.4913 14.1438 35.8796 5.53208 25.2577 5.53208C14.6438 5.53208 6.0482 14.1277 6.02407 24.7335C6.02407 24.7335 6.02407 24.7576 6.02407 24.7737V57.9501C6.02407 58.6737 6.61106 59.2607 7.33473 59.2607C8.0584 59.2607 8.64538 58.6737 8.64538 57.9501V24.7737C8.64538 24.7737 8.64538 24.7496 8.64538 24.7335C8.66146 15.5911 16.1072 8.15337 25.2577 8.15337C34.4081 8.15337 41.878 15.6072 41.878 24.7737C41.878 33.9402 34.4242 41.3941 25.2577 41.3941C20.996 41.3941 17.0962 39.7779 14.1533 37.1244V32.8306C16.646 36.264 20.6905 38.4994 25.2577 38.4994C32.8321 38.4994 38.9753 32.3562 38.9753 24.7818C38.9753 17.2073 32.8321 11.0642 25.2577 11.0642C17.6913 11.0642 11.5561 17.1912 11.5401 24.7496C11.5401 24.7496 11.5401 24.7737 11.5401 24.7898V57.9661C11.5401 58.6898 12.127 59.2768 12.8507 59.2768C13.5744 59.2768 14.1614 58.6898 14.1614 57.9661V46.91C17.4983 48.5906 21.2694 49.5394 25.2657 49.5394C38.9351 49.5394 50.0153 38.4592 50.0153 24.7898C50.0153 11.1204 38.9351 0.0402065 25.2657 0.0402065" fill="#69CCC2"/>
</svg>
