<svg width="172" height="50" viewBox="0 0 172 50" fill="none" xmlns="http://www.w3.org/2000/svg">
<path d="M46.5252 11.8183L46.1184 13.6525C45.9726 14.3202 45.2973 14.7423 44.6143 14.5888L42.7034 14.1667C42.3964 14.0977 42.1202 13.9211 41.9437 13.6679C41.7979 13.4607 41.6443 13.2535 41.4909 13.0463C40.9767 12.3633 40.4165 11.711 39.8179 11.1047C39.603 10.8821 39.3804 10.6673 39.1579 10.4601C38.3291 9.68497 37.4311 8.98653 36.4795 8.36491C35.3974 7.65887 34.2386 7.06031 33.0415 6.56915C31.8443 6.08567 30.5857 5.71735 29.3118 5.4641C28.0455 5.21852 26.7409 5.09575 25.4362 5.09575C24.1393 5.09575 22.8346 5.21853 21.5607 5.47178C20.2791 5.72503 19.0282 6.09336 17.831 6.58451C16.6338 7.068 15.475 7.67424 14.3929 8.38027C13.3108 9.08631 12.2978 9.8998 11.3846 10.7977C10.4637 11.6956 9.63485 12.6855 8.92114 13.7369C8.19975 14.796 7.57812 15.9318 7.08697 17.0983C6.75697 17.881 6.48072 18.6869 6.2505 19.508C6.18143 19.7536 6.12003 19.9992 6.05864 20.2448C5.98957 20.5441 5.79772 20.805 5.53679 20.9815L3.9098 22.0559C3.33422 22.4396 2.5438 22.2861 2.16008 21.7182L1.10102 20.1527C0.909167 19.8688 0.847795 19.5234 0.932213 19.1934C0.955236 19.086 0.985914 18.9785 1.00894 18.8711C1.31591 17.5971 1.72263 16.3462 2.23681 15.1414C2.85842 13.6679 3.64122 12.2405 4.55446 10.9051C5.46003 9.57749 6.5114 8.32661 7.67022 7.19081C8.82904 6.05502 10.1107 5.02668 11.4767 4.13646C12.8427 3.24624 14.3008 2.47875 15.8126 1.87248C17.3245 1.25854 18.9054 0.790449 20.5247 0.475803C22.1363 0.161157 23.7863 0 25.4286 0H25.4362C27.0785 0 28.7285 0.161149 30.3324 0.468121C31.944 0.782767 33.5249 1.25086 35.0444 1.8648C36.5563 2.47875 38.0144 3.23856 39.3804 4.12878C40.7465 5.01899 42.028 6.03965 43.1945 7.17545C43.1945 7.17545 43.1945 7.17546 43.2022 7.18313C43.2866 7.26755 43.3787 7.35961 43.4632 7.44403C43.5092 7.49008 43.5476 7.53616 43.5936 7.57453C44.5145 8.51079 45.3587 9.53144 46.1261 10.6135C46.1952 10.7056 46.2566 10.7977 46.3257 10.8821C46.5252 11.1584 46.5943 11.5037 46.5252 11.8414" fill="#63BFBB"/>
<path d="M46.0033 38.6093C45.9342 38.7014 45.8652 38.7858 45.8038 38.8779C45.021 39.9369 44.1538 40.9423 43.2099 41.8632C42.051 42.9913 40.7771 44.0197 39.4111 44.9099C38.0527 45.8001 36.587 46.5599 35.0751 47.1739C33.5556 47.7878 31.9747 48.2559 30.3554 48.5705C28.7438 48.8852 27.0938 49.0387 25.4592 49.0387C23.8246 49.0387 22.1746 48.8775 20.563 48.5705C18.9514 48.2559 17.3628 47.7878 15.8433 47.1739C14.3238 46.5599 12.8657 45.7924 11.5073 44.9099C10.1413 44.0197 8.85969 42.9913 7.70087 41.8632C6.54972 40.7351 5.49835 39.4842 4.58511 38.1489C3.67186 36.8212 2.88911 35.3938 2.25982 33.905C2.25982 33.905 2.25982 33.905 2.25982 33.8973C1.69192 32.562 1.25446 31.1729 0.939815 29.7685C0.909118 29.638 0.878424 29.5 0.847727 29.3618C0.824704 29.2621 0.817039 29.17 0.809365 29.0702C0.809365 29.0242 0.80169 28.9781 0.809365 28.9397C0.809365 28.8937 0.817054 28.8476 0.824728 28.8015C0.840077 28.7171 0.863081 28.6327 0.901453 28.556C0.93215 28.4793 0.978182 28.4025 1.0319 28.3257L2.14469 26.7909C2.54375 26.2383 3.33423 26.1079 3.90213 26.5069L5.49835 27.6351C5.7516 27.8116 5.92812 28.0802 5.98952 28.3795C5.99719 28.4332 6.01252 28.4792 6.0202 28.5253C6.05089 28.7555 6.08928 28.9858 6.13533 29.216C6.31184 30.0448 6.60347 30.8506 6.95648 31.6257L7.10998 31.9558C7.60881 33.1299 8.2304 34.258 8.95178 35.317C9.68084 36.3761 10.5097 37.3661 11.4229 38.2563C12.3438 39.1542 13.3568 39.9677 14.4389 40.6737C15.5133 41.3798 16.6721 41.9784 17.8693 42.4695C19.0665 42.953 20.3251 43.329 21.5991 43.5746C22.8807 43.8201 24.1853 43.943 25.4823 43.943C26.7792 43.943 28.0838 43.8201 29.3654 43.5746C30.6394 43.329 31.8903 42.9607 33.0951 42.4695C34.2923 41.986 35.4511 41.3798 36.5255 40.6737C37.6076 39.96 38.6207 39.1465 39.5416 38.2563C40.1555 37.6577 40.7234 37.0208 41.2529 36.3454C41.4141 36.1459 41.5676 35.9387 41.721 35.7315C41.9052 35.4782 42.1738 35.3094 42.4808 35.248L44.4147 34.8566C45.0977 34.7184 45.7577 35.1559 45.8959 35.8235L46.2642 37.6731C46.3333 38.0031 46.2489 38.3484 46.0494 38.6247" fill="#242B42"/>
<path d="M50.5622 24.5424C50.5622 26.9752 50.1938 29.3235 49.5185 31.5414C49.4264 31.8484 49.081 32.0172 48.7741 31.9174L43.1412 30.1217L26.5493 24.8724C26.2039 24.7649 26.2039 24.2815 26.5493 24.1741L43.026 18.9632L48.7741 17.129C49.0887 17.0293 49.4264 17.1981 49.5185 17.5051C50.1938 19.7306 50.5622 22.0866 50.5622 24.5194C50.5622 24.5271 50.5622 24.5348 50.5622 24.5424Z" fill="#C45399"/>
<path d="M54.6291 33.1529V28.8015C55.4195 29.4615 56.2714 29.9604 57.2 30.2904C58.1286 30.6204 59.0572 30.7892 60.0011 30.7892C60.5537 30.7892 61.0371 30.7431 61.4516 30.6434C61.866 30.5436 62.2113 30.4055 62.4876 30.229C62.7638 30.0525 62.971 29.8452 63.1092 29.5997C63.2473 29.3618 63.3164 29.1008 63.3164 28.8169C63.3164 28.4332 63.209 28.0955 62.9864 27.7962C62.7639 27.4969 62.4722 27.2207 62.0962 26.9674C61.7201 26.7142 61.275 26.4685 60.7532 26.2306C60.239 25.9927 59.6788 25.7549 59.0802 25.5093C57.553 24.8723 56.4172 24.0972 55.6728 23.184C54.9284 22.2707 54.5524 21.158 54.5524 19.861C54.5524 18.848 54.7596 17.9731 55.1663 17.2441C55.573 16.515 56.1333 15.9164 56.8316 15.4406C57.5377 14.9725 58.3511 14.6195 59.272 14.3969C60.193 14.1744 61.1753 14.0669 62.2113 14.0669C63.2473 14.0669 64.1299 14.1283 64.9127 14.2511C65.6955 14.3739 66.4168 14.558 67.0845 14.819V18.8864C66.7545 18.6561 66.4015 18.4566 66.0178 18.2878C65.6341 18.1189 65.235 17.9731 64.8282 17.858C64.4215 17.7428 64.0148 17.6585 63.608 17.6047C63.2013 17.551 62.8176 17.5203 62.4569 17.5203C61.9581 17.5203 61.5053 17.5663 61.0985 17.6661C60.6918 17.7659 60.3465 17.8963 60.0625 18.0652C59.7786 18.234 59.5637 18.4413 59.4102 18.6868C59.2567 18.9247 59.1799 19.1933 59.1799 19.4926C59.1799 19.8226 59.2644 20.1142 59.4409 20.3675C59.6097 20.6284 59.8553 20.874 60.1776 21.1043C60.4922 21.3345 60.8836 21.5647 61.3364 21.7873C61.7892 22.0098 62.3034 22.24 62.8713 22.4779C63.6541 22.8079 64.3524 23.1532 64.974 23.5216C65.5957 23.89 66.1252 24.3044 66.5703 24.7648C67.0154 25.2253 67.3531 25.7549 67.591 26.3535C67.8289 26.9444 67.944 27.6427 67.944 28.4255C67.944 29.5152 67.7368 30.4285 67.3224 31.1653C66.908 31.902 66.3477 32.5006 65.6417 32.961C64.9357 33.4215 64.1145 33.7515 63.1706 33.951C62.2343 34.1506 61.2443 34.2503 60.2006 34.2503C59.1569 34.2503 58.1132 34.1582 57.1463 33.9817C56.1793 33.7975 55.3428 33.5289 54.6368 33.1682L54.6291 33.1529Z" fill="#242B42"/>
<path d="M88.0273 33.8973H83.6223V25.9544H75.5412V33.8973H71.1439V14.3893H75.5412V22.171H83.6223V14.3893H88.0273V33.8973Z" fill="#242B42"/>
<path d="M108.856 33.8973H103.806L100.775 28.8784C100.545 28.4946 100.33 28.1569 100.123 27.8576C99.9153 27.5583 99.7004 27.3051 99.4932 27.0902C99.2784 26.8753 99.0558 26.7141 98.8256 26.599C98.5953 26.4839 98.3421 26.4302 98.0735 26.4302H96.8916V33.8973H92.4943V14.3893H99.4625C104.198 14.3893 106.561 16.1543 106.561 19.6922C106.561 20.3752 106.454 20.9968 106.247 21.5724C106.039 22.148 105.74 22.6699 105.364 23.1303C104.98 23.5908 104.52 23.9898 103.983 24.3275C103.445 24.6651 102.839 24.9261 102.179 25.1179V25.1716C102.471 25.2637 102.747 25.4096 103.023 25.6168C103.292 25.824 103.561 26.0618 103.814 26.3304C104.067 26.599 104.313 26.8983 104.543 27.2053C104.773 27.52 104.988 27.8269 105.172 28.1262L108.856 33.8973ZM96.884 17.6815V23.1073H98.7872C99.7311 23.1073 100.491 22.8386 101.059 22.2938C101.642 21.7412 101.926 21.0582 101.926 20.2371C101.926 18.5334 100.905 17.6815 98.8639 17.6815H96.8763H96.884Z" fill="#242B42"/>
<path d="M122.377 33.8973H110.682V14.3893H121.932V17.9654H115.079V22.3014H121.456V25.8623H115.079V30.3211H122.385V33.8819L122.377 33.8973Z" fill="#242B42"/>
<path d="M151.424 14.3893L146.267 33.8973H141.394L138.156 21.3806C137.987 20.7282 137.879 19.9992 137.841 19.1934H137.787C137.703 20.0836 137.588 20.8127 137.434 21.3806L134.111 33.8973H129.039L123.912 14.3893H128.716L131.464 27.3818C131.579 27.9344 131.671 28.6788 131.725 29.6151H131.809C131.847 28.9167 131.978 28.157 132.2 27.3281L135.738 14.3893H140.443L143.643 27.4893C143.758 27.9727 143.865 28.6711 143.957 29.5843H144.011C144.049 28.8706 144.142 28.1416 144.295 27.4049L146.989 14.3893H151.424Z" fill="#242B42"/>
<path d="M153.896 33.8973V14.3893H160.803C167.733 14.3893 171.194 17.5588 171.194 23.8977C171.194 26.9368 170.25 29.3618 168.355 31.173C166.467 32.9841 163.942 33.8973 160.795 33.8973H153.889H153.896ZM158.294 17.9654V30.3287H160.473C162.376 30.3287 163.873 29.7608 164.955 28.6174C166.037 27.4739 166.582 25.916 166.582 23.9514C166.582 22.0942 166.045 20.6285 164.97 19.5618C163.896 18.495 162.384 17.9654 160.45 17.9654H158.301H158.294Z" fill="#242B42"/>
</svg>
