<svg xmlns="http://www.w3.org/2000/svg" fill="none" viewBox="0.55 1 250.45 289">
<path d="M248.892 74.25L125.722 3L2.55273 74.25V216.75L125.722 288" stroke="#C45399" stroke-width="4"/>
<path d="M243 78C247.418 78 251 74.4183 251 70C251 65.5817 247.418 62 243 62C238.582 62 235 65.5817 235 70C235 74.4183 238.582 78 243 78Z" fill="#C45399"/>
<path d="M19.463 205.927L127.759 268.694L236.055 205.927" stroke="#C45399" stroke-width="4"/>
<path d="M23.114 203.006C20.2915 203.006 18.0034 205.294 18.0034 208.116C18.0034 210.937 20.2915 213.225 23.114 213.225C25.9365 213.225 28.2246 210.937 28.2246 208.116C28.2246 205.294 25.9365 203.006 23.114 203.006Z" fill="#C45399"/>
<path d="M85.9419 125.78L85.5352 127.614C85.3893 128.282 84.714 128.704 84.031 128.551L82.1201 128.128C81.8132 128.059 81.5369 127.883 81.3604 127.63C81.2146 127.422 81.0611 127.215 80.9076 127.008C80.3934 126.325 79.8332 125.673 79.2346 125.066C79.0197 124.844 78.7972 124.629 78.5746 124.422C77.7458 123.647 76.8479 122.948 75.8962 122.327C74.8142 121.621 73.6554 121.022 72.4582 120.531C71.261 120.047 70.0024 119.679 68.7285 119.426C67.4622 119.18 66.1576 119.057 64.853 119.057C63.556 119.057 62.2513 119.18 60.9774 119.433C59.6958 119.687 58.4449 120.055 57.2477 120.546C56.0505 121.03 54.8917 121.636 53.8096 122.342C52.7276 123.048 51.7146 123.861 50.8013 124.759C49.8804 125.657 49.0516 126.647 48.3379 127.699C47.6165 128.758 46.9948 129.893 46.5037 131.06C46.1737 131.843 45.8974 132.649 45.6672 133.47C45.5981 133.715 45.5367 133.961 45.4754 134.206C45.4063 134.506 45.2144 134.767 44.9535 134.943L43.3265 136.018C42.7509 136.401 41.9605 136.248 41.5768 135.68L40.5177 134.114C40.3259 133.83 40.2645 133.485 40.3489 133.155C40.372 133.048 40.4026 132.94 40.4257 132.833C40.7326 131.559 41.1393 130.308 41.6535 129.103C42.2751 127.63 43.0579 126.202 43.9712 124.867C44.8767 123.539 45.9281 122.288 47.0869 121.152C48.2458 120.017 49.5274 118.988 50.8934 118.098C52.2594 117.208 53.7175 116.44 55.2294 115.834C56.7412 115.22 58.3221 114.752 59.9414 114.437C61.553 114.123 63.203 113.962 64.8453 113.962H64.853C66.4953 113.962 68.1452 114.123 69.7492 114.43C71.3608 114.744 72.9416 115.213 74.4611 115.826C75.973 116.44 77.4311 117.2 78.7971 118.09C80.1632 118.981 81.4448 120.001 82.6112 121.137C82.6112 121.137 82.6113 121.137 82.6189 121.145C82.7033 121.229 82.7955 121.321 82.8799 121.406C82.9259 121.452 82.9643 121.498 83.0103 121.536C83.9312 122.472 84.7754 123.493 85.5428 124.575C85.6119 124.667 85.6733 124.759 85.7424 124.844C85.9419 125.12 86.011 125.465 85.9419 125.803" fill="#63BFBB"/>
<path d="M85.42 152.571C85.3509 152.663 85.2819 152.747 85.2205 152.84C84.4377 153.899 83.5705 154.904 82.6266 155.825C81.4677 156.953 80.1938 157.981 78.8278 158.872C77.4694 159.762 76.0037 160.522 74.4918 161.136C72.9723 161.749 71.3914 162.218 69.7721 162.532C68.1605 162.847 66.5105 163 64.8759 163C63.2413 163 61.5913 162.839 59.9797 162.532C58.3681 162.218 56.7795 161.749 55.26 161.136C53.7405 160.522 52.2824 159.754 50.924 158.872C49.558 157.981 48.2764 156.953 47.1176 155.825C45.9664 154.697 44.915 153.446 44.0018 152.111C43.0886 150.783 42.3058 149.355 41.6765 147.867C41.6765 147.867 41.6765 147.867 41.6765 147.859C41.1086 146.524 40.6712 145.135 40.3565 143.73C40.3258 143.6 40.2951 143.462 40.2644 143.324C40.2414 143.224 40.2337 143.132 40.2261 143.032C40.2261 142.986 40.2184 142.94 40.2261 142.901C40.2261 142.855 40.2338 142.809 40.2414 142.763C40.2568 142.679 40.2798 142.594 40.3182 142.518C40.3489 142.441 40.3949 142.364 40.4486 142.287L41.5614 140.753C41.9605 140.2 42.7509 140.07 43.3188 140.469L44.9151 141.597C45.1683 141.773 45.3448 142.042 45.4062 142.341C45.4139 142.395 45.4292 142.441 45.4369 142.487C45.4676 142.717 45.506 142.947 45.552 143.178C45.7285 144.006 46.0202 144.812 46.3732 145.587L46.5267 145.917C47.0255 147.092 47.6471 148.22 48.3685 149.279C49.0975 150.338 49.9264 151.328 50.8396 152.218C51.7605 153.116 52.7736 153.929 53.8556 154.635C54.93 155.341 56.0888 155.94 57.286 156.431C58.4832 156.915 59.7418 157.291 61.0158 157.536C62.2974 157.782 63.602 157.905 64.899 157.905C66.1959 157.905 67.5005 157.782 68.7821 157.536C70.0561 157.291 71.307 156.922 72.5118 156.431C73.709 155.948 74.8678 155.341 75.9422 154.635C77.0243 153.922 78.0374 153.108 78.9583 152.218C79.5722 151.619 80.1401 150.982 80.6696 150.307C80.8308 150.108 80.9843 149.9 81.1377 149.693C81.3219 149.44 81.5905 149.271 81.8975 149.21L83.8314 148.818C84.5144 148.68 85.1744 149.118 85.3126 149.785L85.6809 151.635C85.75 151.965 85.6656 152.31 85.4661 152.586" fill="#242B42"/>
<path d="M89.9789 138.504C89.9789 140.937 89.6106 143.285 88.9353 145.503C88.8432 145.81 88.4978 145.979 88.1908 145.879L82.5579 144.083L65.966 138.834C65.6207 138.727 65.6207 138.243 65.966 138.136L82.4428 132.925L88.1908 131.091C88.5055 130.991 88.8432 131.16 88.9353 131.467C89.6106 133.692 89.9789 136.048 89.9789 138.481C89.9789 138.489 89.9789 138.496 89.9789 138.504Z" fill="#C45399"/>
<path d="M94.0457 147.115V142.763C94.8362 143.423 95.688 143.922 96.6166 144.252C97.5452 144.582 98.4738 144.751 99.4177 144.751C99.9703 144.751 100.454 144.705 100.868 144.605C101.283 144.505 101.628 144.367 101.904 144.191C102.18 144.014 102.388 143.807 102.526 143.561C102.664 143.323 102.733 143.063 102.733 142.779C102.733 142.395 102.626 142.057 102.403 141.758C102.18 141.459 101.889 141.182 101.513 140.929C101.137 140.676 100.692 140.43 100.17 140.192C99.6556 139.954 99.0954 139.717 98.4968 139.471C96.9696 138.834 95.8338 138.059 95.0894 137.146C94.345 136.232 93.969 135.12 93.969 133.823C93.969 132.81 94.1762 131.935 94.5829 131.206C94.9897 130.477 95.5499 129.878 96.2482 129.402C96.9543 128.934 97.7677 128.581 98.6887 128.359C99.6096 128.136 100.592 128.029 101.628 128.029C102.664 128.029 103.547 128.09 104.329 128.213C105.112 128.336 105.833 128.52 106.501 128.781V132.848C106.171 132.618 105.818 132.418 105.434 132.249C105.051 132.081 104.652 131.935 104.245 131.82C103.838 131.705 103.431 131.62 103.025 131.566C102.618 131.513 102.234 131.482 101.874 131.482C101.375 131.482 100.922 131.528 100.515 131.628C100.108 131.728 99.7631 131.858 99.4791 132.027C99.1952 132.196 98.9803 132.403 98.8268 132.649C98.6733 132.886 98.5966 133.155 98.5966 133.454C98.5966 133.784 98.681 134.076 98.8575 134.329C99.0264 134.59 99.2719 134.836 99.5942 135.066C99.9089 135.296 100.3 135.526 100.753 135.749C101.206 135.972 101.72 136.202 102.288 136.44C103.071 136.77 103.769 137.115 104.391 137.483C105.012 137.852 105.542 138.266 105.987 138.727C106.432 139.187 106.77 139.717 107.008 140.315C107.246 140.906 107.361 141.604 107.361 142.387C107.361 143.477 107.153 144.39 106.739 145.127C106.325 145.864 105.764 146.462 105.058 146.923C104.352 147.383 103.531 147.713 102.587 147.913C101.651 148.112 100.661 148.212 99.6173 148.212C98.5736 148.212 97.5299 148.12 96.5629 147.943C95.5959 147.759 94.7594 147.491 94.0534 147.13L94.0457 147.115Z" fill="#242B42"/>
<path d="M127.444 147.859H123.039V139.916H114.958V147.859H110.561V128.351H114.958V136.133H123.039V128.351H127.444V147.859Z" fill="#242B42"/>
<path d="M148.272 147.859H143.223L140.191 142.84C139.961 142.456 139.746 142.119 139.539 141.819C139.332 141.52 139.117 141.267 138.91 141.052C138.695 140.837 138.472 140.676 138.242 140.561C138.012 140.446 137.759 140.392 137.49 140.392H136.308V147.859H131.911V128.351H138.879C143.614 128.351 145.978 130.116 145.978 133.654C145.978 134.337 145.87 134.959 145.663 135.534C145.456 136.11 145.157 136.632 144.781 137.092C144.397 137.552 143.936 137.951 143.399 138.289C142.862 138.627 142.256 138.888 141.596 139.08V139.133C141.887 139.225 142.164 139.371 142.44 139.578C142.709 139.786 142.977 140.024 143.23 140.292C143.484 140.561 143.729 140.86 143.959 141.167C144.19 141.482 144.405 141.789 144.589 142.088L148.272 147.859ZM136.301 131.643V137.069H138.204C139.148 137.069 139.907 136.8 140.475 136.255C141.059 135.703 141.343 135.02 141.343 134.199C141.343 132.495 140.322 131.643 138.281 131.643H136.293H136.301Z" fill="#242B42"/>
<path d="M161.794 147.859H150.098V128.351H161.349V131.927H154.496V136.263H160.873V139.824H154.496V144.283H161.802V147.844L161.794 147.859Z" fill="#242B42"/>
<path d="M190.841 128.351L185.684 147.859H180.811L177.572 135.342C177.404 134.69 177.296 133.961 177.258 133.155H177.204C177.12 134.045 177.004 134.774 176.851 135.342L173.528 147.859H168.455L163.329 128.351H168.133L170.88 141.343C170.996 141.896 171.088 142.64 171.141 143.577H171.226C171.264 142.878 171.395 142.119 171.617 141.29L175.155 128.351H179.859L183.06 141.451C183.175 141.934 183.282 142.633 183.374 143.546H183.428C183.466 142.832 183.558 142.103 183.712 141.367L186.406 128.351H190.841Z" fill="#242B42"/>
<path d="M193.313 147.859V128.351H200.22C207.15 128.351 210.611 131.52 210.611 137.859C210.611 140.898 209.667 143.324 207.771 145.135C205.883 146.946 203.359 147.859 200.212 147.859H193.305H193.313ZM197.71 131.927V144.29H199.89C201.793 144.29 203.289 143.723 204.371 142.579C205.454 141.436 205.998 139.878 205.998 137.913C205.998 136.056 205.461 134.59 204.387 133.523C203.312 132.457 201.801 131.927 199.867 131.927H197.718H197.71Z" fill="#242B42"/>
</svg>