<svg xmlns="http://www.w3.org/2000/svg" fill="none" viewBox="59.84 33.1 250.82 291.61">
<path d="M185.13 38.1201L61.8406 109.163L61.9602 251.456L185.369 322.706L308.658 251.663" stroke="#257E96" stroke-width="4"/>
<path d="M181.503 35.9012C184.373 37.5581 185.356 41.2276 183.699 44.0974C182.042 46.9671 178.373 47.9504 175.503 46.2935C172.633 44.6367 171.65 40.9671 173.307 38.0974C174.964 35.2276 178.633 34.2444 181.503 35.9012Z" fill="#257E96" stroke="#257E96" stroke-width="4"/>
<path d="M184.45 302.649L292.957 240.246L292.746 115.075" stroke="#257E96" stroke-width="4"/>
<path d="M186.616 303.276C185.13 302.417 184.62 300.516 185.479 299.027C186.338 297.539 188.24 297.03 189.727 297.888C191.214 298.747 191.724 300.649 190.865 302.137C190.005 303.625 188.103 304.134 186.616 303.276Z" fill="#257E96" stroke="#257E96" stroke-width="4"/>
<path d="M132.898 169.35L135.132 169.35L135.132 163.448C135.132 157.522 130.323 152.713 124.397 152.713C123.003 152.713 121.672 152.982 120.444 153.466C117.243 166.925 128.089 169.357 132.898 169.357" fill="#3793B2"/>
<path d="M249.972 169.73C249.441 169.73 248.99 169.912 248.626 170.276C248.261 170.641 248.079 171.092 248.079 171.623C248.079 172.154 248.261 172.606 248.626 172.97C248.99 173.334 249.441 173.517 249.972 173.517C250.503 173.517 250.955 173.334 251.319 172.97C251.683 172.606 251.866 172.154 251.866 171.623C251.866 171.092 251.683 170.641 251.319 170.276C250.955 169.912 250.503 169.73 249.972 169.73Z" fill="#257E96"/>
<path d="M115.92 190.898L113.686 190.898L113.686 196.8C113.686 202.726 118.495 207.535 124.42 207.535C125.815 207.535 127.146 207.265 128.374 206.782C131.574 193.322 120.729 190.89 115.92 190.89" fill="#679C34"/>
<path d="M112.157 169.421L107.768 169.421C101.842 169.421 97.0334 174.23 97.0334 180.155C97.0334 186.081 101.842 190.89 107.768 190.89L115.912 190.89C120.721 190.89 131.567 193.322 128.366 206.782C132.343 205.206 135.155 201.332 135.155 196.8L135.155 192.863C135.155 192.134 135.132 191.413 135.076 190.716C135.044 190.28 134.862 189.908 134.807 189.48C132.319 184.362 130.093 181.003 127.447 177.89C123.541 173.279 119.232 171.298 114.526 169.587C114.249 169.556 114.074 169.492 113.789 169.476C113.242 169.437 112.696 169.421 112.157 169.421Z" fill="#7CB83F"/>
<path d="M136.668 190.819L141.057 190.819C146.983 190.819 151.792 186.01 151.792 180.084C151.792 174.158 146.983 169.35 141.057 169.35L132.913 169.35C128.105 169.35 117.259 166.917 120.46 153.458C116.483 155.034 113.67 158.908 113.67 163.44L113.67 167.377C113.67 182.762 125.395 190.819 136.668 190.819Z" fill="#257E96"/>
<path d="M135.076 190.771C134.109 177.438 123.984 170.166 113.749 169.476C114.715 182.802 124.84 190.082 135.076 190.771Z" fill="#07642E"/>
<path d="M166.408 177.612L165.941 177.335C162.827 175.394 162.178 174.174 162.178 173.493C162.178 172.812 162.447 172.257 163.018 171.813C163.596 171.362 164.348 171.132 165.275 171.132C166.052 171.132 166.844 171.306 167.628 171.639C168.42 171.98 169.3 172.534 170.243 173.295L170.655 173.628L170.655 169.381L170.536 169.302C169.68 168.779 168.825 168.391 167.985 168.137C167.137 167.884 166.274 167.757 165.402 167.757C163.437 167.757 161.805 168.335 160.554 169.468C159.294 170.609 158.652 172.091 158.652 173.865C158.652 175.133 158.993 176.242 159.651 177.161C160.308 178.072 161.861 179.316 164.396 180.956C165.972 181.954 166.971 182.714 167.375 183.229C167.763 183.728 167.961 184.291 167.961 184.948C167.961 185.749 167.684 186.359 167.113 186.818C166.535 187.286 165.719 187.523 164.697 187.523C163.675 187.523 162.78 187.278 161.916 186.802C161.037 186.311 160.102 185.503 159.128 184.386L158.684 183.871L158.684 188.822L158.779 188.902C159.674 189.654 160.633 190.209 161.607 190.549C162.582 190.898 163.691 191.064 164.903 191.064C166.86 191.064 168.484 190.486 169.743 189.353C171.011 188.212 171.653 186.747 171.653 185.004C171.653 183.483 171.312 182.184 170.639 181.146C169.957 180.1 168.579 178.943 166.424 177.597" fill="#257E96"/>
<path d="M178.926 183.839L174.608 175.64L170.806 175.64L177.056 187.571L171.923 197.988L175.646 197.988L186.682 175.64L182.958 175.64L178.926 183.839Z" fill="#257E96"/>
<path d="M194.999 175.426C194.136 175.426 193.32 175.592 192.575 175.925C191.973 176.194 191.371 176.583 190.769 177.098L190.769 175.64L187.362 175.64L187.362 190.676L190.769 190.676L190.769 180.045C191.26 179.45 191.767 179.015 192.274 178.753C192.797 178.484 193.415 178.349 194.112 178.349C195.079 178.349 195.8 178.603 196.243 179.102C196.695 179.609 196.925 180.433 196.925 181.534L196.925 190.668L200.323 190.668L200.323 180.789C200.323 179.134 199.84 177.811 198.889 176.852C197.939 175.893 196.623 175.41 194.991 175.41" fill="#257E96"/>
<path d="M230.673 183.142C230.673 184.647 230.269 185.852 229.469 186.699C228.677 187.547 227.56 187.983 226.165 187.983C225.642 187.983 225.143 187.904 224.684 187.753C224.256 187.61 223.836 187.389 223.416 187.103L223.416 179.221C223.828 178.928 224.256 178.714 224.676 178.579C225.135 178.428 225.634 178.357 226.165 178.357C227.56 178.357 228.677 178.785 229.469 179.625C230.269 180.472 230.673 181.653 230.673 183.15M226.902 175.331C226.149 175.331 225.444 175.426 224.819 175.616C224.335 175.759 223.86 175.973 223.416 176.242L223.416 175.64L219.978 175.64L219.978 197.988L223.416 197.988L223.416 190.09C223.852 190.351 224.319 190.557 224.795 190.692C225.421 190.866 226.126 190.961 226.902 190.961C229.065 190.961 230.847 190.225 232.21 188.775C233.573 187.325 234.262 185.432 234.262 183.142C234.262 180.853 233.573 178.959 232.21 177.509C230.847 176.06 229.057 175.323 226.902 175.323" fill="#257E96"/>
<path d="M242.248 181.875L241.986 181.748C239.594 180.567 239.095 179.807 239.095 179.379C239.095 179.07 239.213 178.848 239.475 178.682C239.76 178.5 240.188 178.413 240.742 178.413C241.376 178.413 242.057 178.531 242.763 178.753C243.483 178.983 244.292 179.347 245.163 179.823L245.543 180.037L245.543 176.622L245.416 176.551C244.68 176.131 243.911 175.822 243.135 175.624C242.358 175.426 241.542 175.323 240.711 175.323C239.134 175.323 237.882 175.703 236.963 176.448C236.036 177.208 235.569 178.246 235.569 179.538C235.569 180.52 235.838 181.376 236.377 182.057C236.908 182.738 237.851 183.412 239.237 184.132C239.491 184.267 239.847 184.457 240.314 184.687C242.255 185.653 242.549 186.272 242.549 186.549C242.549 186.945 242.382 187.246 242.026 187.476C241.645 187.721 241.099 187.848 240.41 187.848C239.776 187.848 239.055 187.697 238.286 187.412C237.502 187.119 236.67 186.676 235.823 186.113L235.427 185.852L235.427 189.575L235.561 189.646C236.369 190.082 237.209 190.415 238.049 190.629C238.888 190.843 239.784 190.954 240.711 190.954C242.343 190.954 243.681 190.549 244.68 189.749C245.694 188.941 246.217 187.84 246.217 186.485C246.217 185.511 245.955 184.687 245.44 184.037C244.933 183.404 243.887 182.691 242.248 181.867" fill="#257E96"/>
<path d="M251.675 175.64L248.269 175.64L248.269 190.676L251.675 190.676L251.675 175.64Z" fill="#257E96"/>
<path d="M263.852 184.045C263.345 183.412 262.299 182.699 260.659 181.875L260.398 181.748C258.005 180.567 257.506 179.815 257.506 179.379C257.506 179.07 257.625 178.848 257.887 178.682C258.172 178.5 258.599 178.405 259.154 178.405C259.78 178.405 260.461 178.524 261.174 178.745C261.895 178.975 262.703 179.34 263.575 179.823L263.955 180.029L263.955 176.614L263.828 176.543C263.091 176.123 262.323 175.814 261.547 175.616C260.77 175.418 259.954 175.315 259.122 175.315C257.546 175.315 256.286 175.695 255.375 176.44C254.448 177.201 253.973 178.238 253.973 179.53C253.973 180.512 254.242 181.368 254.781 182.049C255.312 182.73 256.255 183.412 257.641 184.125C257.894 184.259 258.259 184.449 258.718 184.679C260.659 185.646 260.952 186.264 260.952 186.541C260.952 186.937 260.778 187.238 260.43 187.468C260.049 187.713 259.511 187.84 258.813 187.84C258.18 187.84 257.459 187.69 256.69 187.396C255.906 187.103 255.074 186.668 254.226 186.105L253.83 185.844L253.83 189.567L253.965 189.638C254.773 190.074 255.613 190.407 256.453 190.621C257.292 190.835 258.188 190.946 259.122 190.946C260.754 190.946 262.093 190.542 263.091 189.741C264.113 188.925 264.628 187.832 264.628 186.477C264.628 185.503 264.367 184.679 263.852 184.03" fill="#257E96"/>
<path d="M216.763 187.587C216.398 187.983 215.986 188.339 215.527 188.632C214.481 189.314 213.261 189.678 212.001 189.678C211.36 189.678 210.726 189.583 210.116 189.401C208.674 188.957 207.422 188.022 206.591 186.747C205.909 185.701 205.545 184.481 205.545 183.221C205.545 182.279 205.751 181.36 206.139 180.52C205.307 181.257 204.689 182.215 204.365 183.285C204.19 183.855 204.103 184.457 204.103 185.059C204.103 186.24 204.444 187.389 205.085 188.371C206.21 190.098 208.112 191.128 210.171 191.128C210.259 191.128 210.346 191.128 210.449 191.128C212.453 191.056 214.339 190.241 215.757 188.822C216.129 188.442 216.47 188.03 216.755 187.594" fill="#257E96"/>
<path d="M204.76 188.585C204.079 187.539 203.714 186.319 203.714 185.059C203.714 184.418 203.809 183.784 203.991 183.174C204.435 181.732 205.37 180.48 206.645 179.648C207.691 178.967 208.911 178.603 210.171 178.603C211.114 178.603 212.033 178.809 212.88 179.197C212.143 178.365 211.185 177.747 210.115 177.422C209.545 177.248 208.943 177.161 208.341 177.161C207.16 177.161 206.012 177.502 205.029 178.143C203.405 179.205 202.375 180.987 202.28 182.92C202.28 183.023 202.28 183.126 202.28 183.229C202.28 183.316 202.28 183.404 202.28 183.507C202.352 185.511 203.168 187.396 204.594 188.815C204.966 189.195 205.378 189.528 205.821 189.821C205.425 189.456 205.077 189.044 204.776 188.585" fill="#257E96"/>
<path d="M203.58 178.872C203.944 178.476 204.356 178.12 204.816 177.818C205.861 177.129 207.081 176.773 208.341 176.773C208.983 176.773 209.616 176.868 210.226 177.05C211.668 177.494 212.92 178.428 213.752 179.704C214.433 180.75 214.798 181.97 214.798 183.229C214.798 184.172 214.592 185.091 214.203 185.931C215.035 185.194 215.653 184.235 215.978 183.166C216.152 182.588 216.239 181.993 216.239 181.391C216.239 180.211 215.899 179.07 215.257 178.08C214.132 176.353 212.231 175.323 210.171 175.323C210.092 175.323 210.005 175.323 209.902 175.323C207.905 175.394 206.02 176.202 204.602 177.62C204.221 178.001 203.881 178.421 203.588 178.864" fill="#257E96"/>
<path d="M215.582 177.874C216.263 178.92 216.628 180.14 216.628 181.399C216.628 182.041 216.532 182.675 216.35 183.285C215.907 184.727 214.972 185.978 213.696 186.81C212.65 187.491 211.431 187.856 210.171 187.856C209.228 187.856 208.309 187.65 207.461 187.262C208.198 188.094 209.157 188.712 210.226 189.036C210.797 189.211 211.399 189.298 212.001 189.298C213.181 189.298 214.33 188.957 215.312 188.315C217.039 187.19 218.069 185.289 218.069 183.229C218.069 183.118 218.069 183.007 218.069 182.912C217.99 180.916 217.166 179.038 215.748 177.628C215.376 177.256 214.964 176.923 214.536 176.638C214.932 177.002 215.281 177.414 215.582 177.874Z" fill="#257E96"/>
</svg>