<svg width="168" height="55" viewBox="0 0 168 55" fill="none" xmlns="http://www.w3.org/2000/svg">
<path d="M36.0669 16.6367H38.3011V10.7346C38.3011 4.80879 33.4922 0 27.5664 0C26.1721 0 24.8411 0.269366 23.6132 0.752623C20.4126 14.2125 31.2581 16.6446 36.0669 16.6446" fill="#3793B2"/>
<path d="M153.142 17.017C152.611 17.017 152.159 17.1992 151.795 17.5636C151.43 17.928 151.248 18.3796 151.248 18.9104C151.248 19.4412 151.43 19.8928 151.795 20.2572C152.159 20.6216 152.611 20.8038 153.142 20.8038C153.672 20.8038 154.124 20.6216 154.488 20.2572C154.853 19.8928 155.035 19.4412 155.035 18.9104C155.035 18.3796 154.853 17.928 154.488 17.5636C154.124 17.1992 153.672 17.017 153.142 17.017Z" fill="#257E96"/>
<path d="M19.0892 38.1851H16.8551V44.0871C16.8551 50.013 21.6639 54.8218 27.5897 54.8218C28.984 54.8218 30.315 54.5524 31.5429 54.0692C34.7435 40.6093 23.898 38.1772 19.0892 38.1772" fill="#679C34"/>
<path d="M15.3264 16.7079H10.9374C5.01156 16.7079 0.202721 21.5167 0.202721 27.4425C0.202721 33.3684 5.01156 38.1772 10.9374 38.1772H19.0815C23.8903 38.1772 34.7358 40.6093 31.5352 54.0692C35.5122 52.4926 38.3246 48.6187 38.3246 44.0872V40.1498C38.3246 39.421 38.3008 38.7001 38.2453 38.0029C38.2137 37.5672 38.0315 37.1948 37.976 36.767C35.4884 31.6493 33.2623 28.2902 30.6162 25.1768C26.7106 20.566 22.4009 18.5855 17.6951 16.8743C17.4178 16.8426 17.2435 16.7792 16.9583 16.7634C16.4116 16.7237 15.8651 16.7079 15.3264 16.7079Z" fill="#7CB83F"/>
<path d="M39.8378 38.106H44.2268C50.1526 38.106 54.9613 33.2971 54.9613 27.3713C54.9613 21.4454 50.1526 16.6366 44.2268 16.6366H36.0827C31.2739 16.6366 20.4283 14.2045 23.6289 0.744629C19.652 2.32116 16.8395 6.19511 16.8395 10.7266V14.664C16.8395 30.049 28.5645 38.106 39.8378 38.106Z" fill="#257E96"/>
<path d="M38.2448 38.0584C37.2783 24.7252 27.1537 17.4526 16.9182 16.7634C17.8847 30.0886 28.0093 37.3691 38.2448 38.0584Z" fill="#07642E"/>
<path d="M69.5776 24.8995L69.1102 24.6223C65.9967 22.6813 65.3471 21.4613 65.3471 20.78C65.3471 20.0987 65.6164 19.544 66.1868 19.1004C66.7651 18.6488 67.5177 18.4191 68.4446 18.4191C69.221 18.4191 70.0132 18.5934 70.7975 18.9261C71.5897 19.2668 72.4692 19.8214 73.4119 20.5819L73.8239 20.9146V16.6683L73.705 16.5891C72.8494 16.0662 71.9938 15.6781 71.1541 15.4245C70.3064 15.171 69.4429 15.0442 68.5714 15.0442C66.6067 15.0442 64.9747 15.6225 63.723 16.7554C62.4634 17.8962 61.8217 19.3777 61.8217 21.1523C61.8217 22.4199 62.1623 23.5289 62.8199 24.4479C63.4774 25.3589 65.0302 26.6028 67.5653 28.2427C69.1418 29.2409 70.14 30.0014 70.544 30.5164C70.9322 31.0155 71.1303 31.578 71.1303 32.2355C71.1303 33.0357 70.8531 33.6457 70.2826 34.1052C69.7043 34.5726 68.8883 34.8102 67.8663 34.8102C66.8444 34.8102 65.9491 34.5646 65.0856 34.0893C64.2062 33.5981 63.2714 32.7901 62.297 31.6731L61.8534 31.1581V36.1095L61.9484 36.1887C62.8436 36.9413 63.8022 37.4958 64.7766 37.8365C65.7511 38.1851 66.8602 38.3515 68.0723 38.3515C70.0291 38.3515 71.6532 37.7731 72.9128 36.6402C74.1804 35.4994 74.8221 34.0338 74.8221 32.2909C74.8221 30.7699 74.4814 29.4706 73.808 28.4328C73.1267 27.3871 71.7483 26.2304 69.5934 24.8836" fill="#257E96"/>
<path d="M82.0953 31.1264L77.7777 22.9269H73.975L80.2256 34.8577L75.092 45.2755H78.8155L89.8512 22.9269H86.1278L82.0953 31.1264Z" fill="#257E96"/>
<path d="M98.1687 22.713C97.3052 22.713 96.4893 22.8794 95.7446 23.2121C95.1425 23.4815 94.5404 23.8696 93.9383 24.3846V22.9269H90.5317V37.9633H93.9383V27.3316C94.4295 26.7375 94.9365 26.3017 95.4435 26.0403C95.9664 25.771 96.5843 25.6363 97.2814 25.6363C98.248 25.6363 98.9689 25.8898 99.4126 26.3889C99.8641 26.896 100.094 27.7198 100.094 28.821V37.9554H103.492V28.0764C103.492 26.4206 103.009 25.0976 102.059 24.139C101.108 23.1805 99.7928 22.6971 98.1608 22.6971" fill="#257E96"/>
<path d="M133.842 30.4292C133.842 31.9345 133.438 33.1386 132.638 33.9863C131.846 34.834 130.729 35.2697 129.335 35.2697C128.812 35.2697 128.313 35.1906 127.853 35.04C127.425 34.8974 127.005 34.6756 126.586 34.3904V26.5078C126.997 26.2146 127.425 26.0007 127.845 25.866C128.305 25.7155 128.804 25.6442 129.335 25.6442C130.729 25.6442 131.846 26.072 132.638 26.9118C133.438 27.7595 133.842 28.9399 133.842 30.4372M130.071 22.6179C129.319 22.6179 128.614 22.713 127.988 22.9031C127.505 23.0457 127.029 23.2596 126.586 23.529V22.9269H123.147V45.2755H126.586V37.3771C127.021 37.6385 127.489 37.8445 127.964 37.9792C128.59 38.1534 129.295 38.2485 130.071 38.2485C132.234 38.2485 134.017 37.5117 135.379 36.0619C136.742 34.6122 137.431 32.7188 137.431 30.4292C137.431 28.1397 136.742 26.2463 135.379 24.7965C134.017 23.3468 132.226 22.61 130.071 22.61" fill="#257E96"/>
<path d="M145.417 29.1617L145.155 29.0349C142.763 27.8545 142.264 27.094 142.264 26.6662C142.264 26.3572 142.383 26.1354 142.644 25.969C142.929 25.7868 143.357 25.6997 143.912 25.6997C144.545 25.6997 145.227 25.8185 145.932 26.0403C146.653 26.27 147.461 26.6345 148.332 27.1099L148.713 27.3237V23.9092L148.586 23.838C147.849 23.4181 147.081 23.1091 146.304 22.911C145.528 22.713 144.712 22.61 143.88 22.61C142.303 22.61 141.052 22.9903 140.133 23.735C139.206 24.4955 138.738 25.5333 138.738 26.8246C138.738 27.8069 139.008 28.6626 139.546 29.3439C140.077 30.0252 141.02 30.6986 142.406 31.4195C142.66 31.5542 143.016 31.7443 143.484 31.974C145.425 32.9405 145.718 33.5586 145.718 33.8358C145.718 34.232 145.552 34.5329 145.195 34.7627C144.815 35.0083 144.268 35.1351 143.579 35.1351C142.945 35.1351 142.224 34.9845 141.456 34.6993C140.671 34.4062 139.84 33.9626 138.992 33.4001L138.596 33.1387V36.8621L138.73 36.9334C139.539 37.3691 140.378 37.7018 141.218 37.9157C142.058 38.1296 142.953 38.2406 143.88 38.2406C145.512 38.2406 146.851 37.8365 147.849 37.0364C148.863 36.2283 149.386 35.1271 149.386 33.7724C149.386 32.798 149.125 31.9741 148.61 31.3245C148.103 30.6907 147.057 29.9777 145.417 29.1538" fill="#257E96"/>
<path d="M154.845 22.9269H151.438V37.9633H154.845V22.9269Z" fill="#257E96"/>
<path d="M167.021 31.3324C166.514 30.6986 165.469 29.9856 163.829 29.1617L163.567 29.0349C161.175 27.8545 160.676 27.1019 160.676 26.6662C160.676 26.3572 160.794 26.1354 161.056 25.969C161.341 25.7868 161.769 25.6917 162.323 25.6917C162.949 25.6917 163.631 25.8105 164.344 26.0323C165.065 26.2621 165.873 26.6266 166.744 27.1099L167.124 27.3158V23.9013L166.998 23.83C166.261 23.4102 165.492 23.1012 164.716 22.9031C163.94 22.705 163.124 22.6021 162.292 22.6021C160.715 22.6021 159.456 22.9824 158.544 23.727C157.618 24.4876 157.142 25.5254 157.142 26.8167C157.142 27.7991 157.412 28.6546 157.95 29.336C158.481 30.0173 159.424 30.6986 160.81 31.4116C161.064 31.5463 161.428 31.7365 161.888 31.9662C163.829 32.9327 164.122 33.5506 164.122 33.8279C164.122 34.224 163.947 34.525 163.599 34.7547C163.219 35.0003 162.68 35.1272 161.983 35.1272C161.349 35.1272 160.628 34.9766 159.86 34.6835C159.075 34.3903 158.243 33.9546 157.396 33.3921L157 33.1307V36.8542L157.134 36.9254C157.942 37.3612 158.782 37.694 159.622 37.9079C160.462 38.1218 161.357 38.2326 162.292 38.2326C163.924 38.2326 165.263 37.8286 166.261 37.0284C167.283 36.2124 167.798 35.1192 167.798 33.7645C167.798 32.79 167.536 31.9661 167.021 31.3165" fill="#257E96"/>
<path d="M119.932 34.8736C119.568 35.2698 119.156 35.6263 118.696 35.9194C117.65 36.6007 116.43 36.9651 115.171 36.9651C114.529 36.9651 113.895 36.8701 113.285 36.6879C111.843 36.2442 110.592 35.3094 109.76 34.0339C109.079 32.9882 108.714 31.7681 108.714 30.5085C108.714 29.5657 108.92 28.6468 109.308 27.8071C108.477 28.5438 107.859 29.5024 107.534 30.5719C107.36 31.1423 107.272 31.7444 107.272 32.3465C107.272 33.5269 107.613 34.6756 108.255 35.6579C109.38 37.385 111.281 38.4149 113.341 38.4149C113.428 38.4149 113.515 38.4149 113.618 38.4149C115.622 38.3436 117.508 37.5276 118.926 36.1096C119.298 35.7293 119.639 35.3173 119.924 34.8816" fill="#257E96"/>
<path d="M107.929 35.8718C107.248 34.826 106.883 33.6061 106.883 32.3464C106.883 31.7047 106.978 31.0709 107.161 30.4609C107.604 29.0191 108.539 27.7673 109.815 26.9355C110.86 26.2542 112.08 25.8898 113.34 25.8898C114.283 25.8898 115.202 26.0958 116.049 26.4839C115.313 25.6521 114.354 25.0342 113.284 24.7094C112.714 24.5351 112.112 24.4479 111.51 24.4479C110.329 24.4479 109.181 24.7886 108.198 25.4303C106.574 26.4919 105.545 28.2743 105.449 30.2074C105.449 30.3104 105.449 30.4134 105.449 30.5163C105.449 30.6035 105.449 30.6906 105.449 30.7936C105.521 32.7979 106.337 34.6835 107.763 36.1016C108.135 36.4818 108.547 36.8146 108.991 37.1077C108.595 36.7433 108.246 36.3313 107.945 35.8718" fill="#257E96"/>
<path d="M106.749 26.1591C107.113 25.763 107.525 25.4066 107.985 25.1055C109.031 24.4163 110.251 24.0597 111.51 24.0597C112.152 24.0597 112.786 24.1549 113.396 24.3371C114.838 24.7807 116.089 25.7155 116.921 26.991C117.602 28.0367 117.967 29.2567 117.967 30.5164C117.967 31.4591 117.761 32.3781 117.373 33.2179C118.204 32.4811 118.822 31.5225 119.147 30.453C119.322 29.8747 119.409 29.2805 119.409 28.6785C119.409 27.498 119.068 26.3572 118.426 25.3669C117.301 23.6399 115.4 22.61 113.34 22.61C113.261 22.61 113.174 22.61 113.071 22.61C111.075 22.6813 109.189 23.4894 107.771 24.9075C107.391 25.2877 107.05 25.7076 106.757 26.1512" fill="#257E96"/>
<path d="M118.751 25.1609C119.432 26.2067 119.797 27.4267 119.797 28.6864C119.797 29.3281 119.702 29.9619 119.519 30.5719C119.076 32.0137 118.141 33.2654 116.865 34.0972C115.82 34.7786 114.6 35.1429 113.34 35.1429C112.397 35.1429 111.478 34.937 110.631 34.5488C111.367 35.3806 112.326 35.9986 113.396 36.3234C113.966 36.4977 114.568 36.5848 115.17 36.5848C116.351 36.5848 117.499 36.2442 118.482 35.6025C120.209 34.4775 121.239 32.5762 121.239 30.5164C121.239 30.4055 121.239 30.2945 121.239 30.1995C121.159 28.2031 120.336 26.3255 118.917 24.9154C118.545 24.543 118.133 24.2103 117.705 23.9251C118.101 24.2895 118.45 24.7014 118.751 25.1609Z" fill="#257E96"/>
</svg>
